<?xml version="1.0" standalone="no"?>
<!DOCTYPE svg PUBLIC "-//W3C//DTD SVG 1.1//EN" "http://www.w3.org/Graphics/SVG/1.1/DTD/svg11.dtd" >
<svg xmlns="http://www.w3.org/2000/svg">
<metadata></metadata>
<defs>
<font id="pf_monumenta_proregular" horiz-adv-x="1601" >
<font-face units-per-em="2048" ascent="1638" descent="-410" />
<missing-glyph horiz-adv-x="624" />
<glyph horiz-adv-x="2048" />
<glyph horiz-adv-x="2048" />
<glyph unicode="&#xd;" horiz-adv-x="2048" />
<glyph unicode=" "  horiz-adv-x="624" />
<glyph unicode="&#x09;" horiz-adv-x="624" />
<glyph unicode="&#xa0;" horiz-adv-x="624" />
<glyph unicode="!" horiz-adv-x="686" d="M223 1407l197 131l76 -70l-131 -1106h-17zM227 109q0 18 7.5 40.5t22.5 41t38.5 30.5t56.5 12q53 0 89 -32.5t36 -85.5t-33.5 -92t-93.5 -39q-66 0 -94.5 41t-28.5 84z" />
<glyph unicode="&#x22;" horiz-adv-x="686" d="M106 1421l144 97l55 -52l-84 -571h-22zM391 1421l144 97l55 -52l-84 -571h-23z" />
<glyph unicode="#" horiz-adv-x="1529" d="M139 420l25 125h262l109 405h-318l21 125h331l99 342h131l-99 -342h353l98 342h131l-98 -342h241l-22 -125h-254l-107 -405h308l-23 -125h-321l-117 -422h-131l116 422h-352l-116 -422h-132l117 422h-252zM557 545h352l109 405h-354z" />
<glyph unicode="$" horiz-adv-x="1214" d="M147 129q8 76 12.5 141.5t8.5 155.5h14q12 -147 80 -239.5t178 -127.5l103 621q-63 43 -123 87t-107 98.5t-75.5 120t-28.5 151.5q0 80 32.5 148.5t93 118.5t145.5 79.5t190 29.5h12l18 107q4 14 15 16l33 6q4 0 13 2.5t19 2.5q12 0 13 -9l-23 -131q63 -8 127 -25.5 t111 -45.5q-2 -72 3 -145.5t9 -145.5l-19 -6q-12 74 -36.5 128t-56 91t-70.5 59.5t-78 32.5l-6 -33l-88 -510q70 -49 142.5 -99t131.5 -108.5t97 -128t38 -159.5q0 -111 -44 -194t-116.5 -137t-167 -81t-194.5 -27h-23.5t-23.5 2l-23 -131q-4 -12 -12 -16l-31 -4 q-2 -2 -10 -3t-18 -1q-4 -2 -8.5 2t-4.5 6l29 160q-78 16 -148.5 53t-132.5 88zM420 1208q0 -74 44 -129t126 -116l78 460l6 37l-2 2q-53 0 -99.5 -20.5t-80 -54t-53 -80.5t-19.5 -99zM518 45q14 -2 27.5 -3t27.5 -1q61 0 112.5 22.5t88.5 59.5t56.5 85t19.5 101 q0 49 -12.5 87t-39 73t-69.5 70.5t-102 81.5l-9 6z" />
<glyph unicode="%" horiz-adv-x="1597" d="M92 1096q0 74 23.5 137t67.5 111.5t105.5 76t137.5 27.5q78 0 138.5 -28.5t102.5 -75t63.5 -105.5t21.5 -121q0 -76 -25 -140.5t-70 -111.5t-106 -73.5t-137 -26.5t-135.5 27.5t-101.5 73.5t-63.5 105.5t-21.5 123.5zM242 1116q0 -61 13 -114.5t37.5 -93.5t59.5 -62.5 t78 -22.5q82 0 127 74t45 203q0 57 -12 109.5t-37 92t-60.5 64.5t-82.5 25q-80 0 -124 -76t-44 -199zM264 8l90 129q246 362 441 654q82 123 162.5 242.5t143 213.5t102.5 155.5t44 67.5q12 16 19 11l53 -37l9 -9t1 -10l-909 -1347q-20 -33 -37 -55q-14 -23 -25.5 -39.5 t-13.5 -20.5q-10 -16 -18 -10l-54 37q-2 2 -7 8t-1 10zM856 309q0 74 23.5 137.5t67.5 111.5t105.5 76t139.5 28t138.5 -28t101.5 -74t62.5 -105.5t21.5 -122.5q0 -76 -25 -140.5t-69 -111.5t-105 -73.5t-137 -26.5t-135.5 27.5t-101.5 73.5t-64.5 105.5t-22.5 122.5z M1006 332q0 -61 13 -115.5t37.5 -94.5t60.5 -62.5t79 -22.5q80 0 125 73.5t45 202.5q0 57 -12.5 109.5t-37 92.5t-60 64.5t-82.5 24.5q-80 0 -124 -74.5t-44 -197.5z" />
<glyph unicode="&#x26;" horiz-adv-x="1638" d="M115 424q0 90 35.5 166t84 133t98.5 95t79 52q-29 66 -48.5 128.5t-19.5 146.5q0 145 81 244.5t214 117.5q66 8 134.5 0t125.5 -36.5t93 -81t36 -127.5q0 -72 -35 -128.5t-89 -100.5t-116.5 -75.5t-117.5 -52.5q55 -162 149 -310.5t205 -281.5q18 27 39.5 64t40 74.5 t33 76.5t18.5 70q4 37 -12.5 62.5t-44 42t-61 25.5t-62.5 13v13q66 4 138.5 -4.5t141.5 -8.5q82 0 166 5.5t144 9.5v-15q-100 -10 -154.5 -50t-95.5 -101q-59 -90 -112.5 -172t-125.5 -164q98 -117 217 -188.5t267 -90.5l2 -22q-215 -18 -371 28t-248 117 q-18 -12 -42.5 -29.5t-63.5 -35t-94.5 -30.5t-133.5 -15q-90 -2 -179 22.5t-159.5 77.5t-113.5 137t-43 199zM369 510q2 -74 25.5 -144.5t68.5 -125.5t99 -86t109.5 -39.5t110 3t99.5 38.5q-66 61 -127.5 135t-115.5 155.5t-101.5 166.5t-83.5 165q-45 -53 -65.5 -123.5 t-18.5 -144.5zM577.5 1278q-2.5 -68 13 -146.5t42.5 -144.5q41 27 76 62q29 29 54.5 69.5t29.5 93.5q4 43 -1.5 83t-20.5 71t-43 50.5t-66 19.5q-43 0 -62.5 -45t-22 -113z" />
<glyph unicode="'" horiz-adv-x="432" d="M106 1421l144 97l55 -52l-84 -571h-22z" />
<glyph unicode="(" horiz-adv-x="741" d="M117 717q0 160 49 294t121.5 241.5t156.5 185.5t152 127q6 4 12 7t10 7q4 0 11.5 -14.5t7.5 -18.5q-2 -4 -7 -9l-9 -9q-59 -49 -119 -125t-107 -177.5t-76.5 -226.5t-29.5 -268q0 -145 25.5 -268t70.5 -225.5t105.5 -185.5t130.5 -146q16 -13 22 -25q0 -4 -9 -11t-13 -7 l-21 12q-74 51 -159 128t-156.5 181.5t-119.5 237.5t-48 295z" />
<glyph unicode=")" horiz-adv-x="741" d="M117 1561q0 4 10 11t14 7q12 -8 21 -12q74 -51 157.5 -129t155.5 -182.5t120 -236.5t48 -294q0 -160 -49 -294t-122 -241.5t-156 -185.5t-152 -127l-23 -14q-4 0 -11 14t-7 19q4 6 16 18q59 49 118.5 125t108 177t78 225t29.5 270q0 145 -25.5 268t-70.5 225.5 t-105.5 184t-130.5 147.5q-16 12 -22 25h-2z" />
<glyph unicode="*" horiz-adv-x="786" d="M55 1196q10 35 18.5 66.5t16.5 66.5l35 10q61 -39 118.5 -72.5t116.5 -66.5l-26 289h73.5t65.5 2l16 -31q-35 -119 -63 -264l242 121l18 -6q23 -57 57 -117l-16 -25q-53 -4 -121.5 -12t-161.5 -20l189 -189l6 -18l-94 -92l-37 -2q-23 47 -50.5 109.5t-66.5 146.5 l-137 -236l-37 -6q-43 55 -90 102l4 15q47 35 98.5 75.5t112.5 92.5l-283 47z" />
<glyph unicode="+" horiz-adv-x="1331" d="M203 496v139h391v379h139v-379h395v-139h-395v-377h-139v377h-391z" />
<glyph unicode="," horiz-adv-x="559" d="M121 -205q35 29 53.5 48.5t32.5 54.5q12 33 13 54t-5 38.5t-17.5 33t-23.5 35.5q-16 25 -20 66t24 78q14 20 48 35.5t63 9.5q53 -10 77.5 -52t24.5 -87q0 -49 -25.5 -99.5t-63.5 -96.5t-82 -85t-79 -61z" />
<glyph unicode="-" horiz-adv-x="772" d="M86 565v152l598 2v-154h-598z" />
<glyph unicode="." horiz-adv-x="518" d="M129 109q0 18 7 40.5t22.5 41t39 30.5t56.5 12q53 0 89 -32.5t36 -85.5t-34 -92t-93 -39q-66 0 -94.5 41t-28.5 84z" />
<glyph unicode="/" horiz-adv-x="907" d="M-29 -33q10 14 21 37q10 18 23.5 44t29.5 58q25 47 68 131.5t97 192t116.5 229t124 242.5t118 233.5t100.5 199.5t71.5 142.5t29.5 61.5q10 18 16 12l70 -34q4 -2 10 -7.5t2 -9.5q-172 -338 -319 -629q-63 -123 -127 -248.5t-121 -236.5t-101 -199t-69 -135 q-27 -53 -43 -85t-18 -38q-10 -18 -17 -12l-71 35q-4 2 -9.5 7t-1.5 9z" />
<glyph unicode="0" horiz-adv-x="1638" d="M147 715q0 172 48.5 318.5t137.5 254t216 169t285 61.5q162 0 285.5 -62.5t207.5 -167t127 -240t43 -278.5q0 -176 -49 -324.5t-140 -256t-218 -168t-281 -60.5q-156 0 -278.5 63.5t-207.5 168t-130.5 240.5t-45.5 282zM412 766q0 -145 28.5 -275.5t84 -228.5t135 -155.5 t182.5 -57.5q94 0 166.5 48t122 137.5t75 212t25.5 274.5h2q0 133 -27.5 261t-82 227.5t-136.5 161t-190 61.5q-94 0 -166 -50.5t-121 -139.5t-73.5 -211t-24.5 -265z" />
<glyph unicode="1" horiz-adv-x="956" d="M125 1454v33h700v-35q-63 -6 -104 -17.5t-65.5 -32t-37 -53t-14.5 -81.5q-2 -35 -3 -84t-1 -115l-2 -346l2 -301v-123t4 -92q4 -43 14.5 -73t37 -49t71.5 -31.5t119 -18.5v-35h-717v33q57 8 99 18t70 29.5t42 52.5t16 88q2 43 2 129v183.5v186.5v138v210t-4 198 q-2 55 -16 87.5t-43 52t-71 30t-99 18.5z" />
<glyph unicode="2" horiz-adv-x="1462" d="M162 18q236 203 398.5 357.5t248.5 298.5q41 66 64.5 142.5t28.5 152t-11.5 146.5t-58 125t-112.5 87t-171 33q-59 0 -113.5 -14.5t-100.5 -37t-85 -51t-66 -57.5l-12 14q43 61 97.5 118t122 99t149.5 66.5t180 24.5q80 0 161 -23.5t146.5 -75t106.5 -133.5t41 -200 q0 -76 -25 -151t-66 -143.5t-92 -132t-106 -118.5q-37 -37 -85 -80t-102.5 -90t-108.5 -95.5t-104 -93.5l5 -4h532q70 0 120 15.5t87 48.5t65.5 85t57.5 126l12 -17l-109 -385q-8 -29 -23 -42t-46 -13h-1020z" />
<glyph unicode="3" horiz-adv-x="1288" d="M166 -207q102 16 209.5 59.5t194.5 112t143.5 165.5t56.5 222q0 98 -50 179t-128 133.5t-173 73t-186 -2.5l-16 33q70 27 156 64.5t160.5 89t125 117t50.5 149.5q0 92 -49.5 141t-121 66.5t-150.5 9.5t-138 -31l-10 27q37 25 84 46t98 37.5t101 26t93 9.5q61 0 122 -13.5 t110 -44t79.5 -80t30.5 -120.5q0 -68 -26.5 -130.5t-72.5 -115.5t-105.5 -95t-122.5 -71q74 -14 148.5 -55t135 -101.5t98.5 -135.5t38 -159q0 -135 -59.5 -237.5t-153 -175t-207 -118.5t-219.5 -71q-29 -6 -66 -11t-71.5 -10t-63.5 -7t-39 -2z" />
<glyph unicode="4" horiz-adv-x="1529" d="M86 440l940 1092l51 -23l-2 -606l4 -356h101q72 0 131 40t90 152l12 -4l-41 -346h-293l2 -174q2 -68 1 -124t3 -91q4 -43 14.5 -72.5t37 -49t71.5 -32t119 -20.5v-35h-706v35q57 8 99 18.5t69.5 30t42 52t16.5 87.5q4 84 3 180.5t-1 194.5l-741 -2zM309 547h541l4 340 l-4 289v2z" />
<glyph unicode="5" horiz-adv-x="1163" d="M127 -213q131 35 249 88t206 132t139 184.5t51 244.5q0 94 -56.5 166t-141.5 118t-186 62.5t-191 -2.5l-45 39l206 656l29 14h494q51 0 83.5 11t55 31.5t38 49.5t34.5 61l14 -10l-74 -274q-8 -29 -17 -40t-48 -11h-553q-14 -45 -31 -97q-14 -43 -30.5 -95t-33.5 -101 q152 6 283 -19.5t226.5 -88t149.5 -164t54 -248.5q0 -170 -86 -300.5t-218 -220.5t-290.5 -143t-306.5 -72z" />
<glyph unicode="6" horiz-adv-x="1452" d="M172 596q0 190 80 350t210 284t295 209t335 126l6 -29q-162 -55 -286 -148.5t-209 -218.5t-129 -277.5t-44 -326.5q0 -98 24.5 -191t70.5 -165t113 -116t148 -44q59 0 110.5 22.5t88.5 68.5t58.5 112.5t21.5 157.5q0 98 -37 186t-100.5 142.5t-148.5 63.5t-183 -46 l-16 22q55 45 123.5 73t141.5 37t144.5 -3.5t130.5 -46.5q86 -51 139.5 -142.5t53.5 -216.5q0 -106 -40 -199.5t-111.5 -164t-172 -111.5t-219.5 -41q-135 0 -245.5 46t-188.5 129t-121 200t-43 258z" />
<glyph unicode="7" horiz-adv-x="1286" d="M82 1053l108 387q10 33 26.5 42t47.5 9h961l28 -43q-51 -82 -119.5 -210t-144.5 -280.5t-152.5 -318.5t-145 -322.5t-123 -295t-85.5 -234.5h-161l-31 35l753 1446h-638q-66 0 -111 -8.5t-79 -34t-60.5 -70.5t-55.5 -119z" />
<glyph unicode="8" horiz-adv-x="1314" d="M129 354q0 82 30.5 150.5t83 124t121 96.5t142.5 70q-63 33 -119.5 69.5t-97.5 80.5t-65.5 96.5t-24.5 115.5q0 57 28.5 120.5t89 117t153.5 88.5t224 35q94 0 173 -24t136.5 -66t89 -100t31.5 -130q0 -78 -32.5 -136t-80.5 -101t-101.5 -71t-96.5 -42 q55 -25 119.5 -60.5t121 -87t94.5 -121t38 -161.5q0 -80 -37 -161t-105.5 -145.5t-170 -105.5t-230.5 -41q-115 0 -209 30t-161.5 82t-105.5 122.5t-38 154.5zM369 365q0 -59 22.5 -120t61.5 -109t92 -77.5t114 -29.5q49 0 98.5 25.5t89.5 69.5t64.5 104.5t24.5 127.5 q0 74 -26.5 132.5t-72.5 105.5t-106.5 84t-128.5 70q-41 -23 -83 -58t-75.5 -82t-54 -107t-20.5 -136zM412 1196q0 -92 71.5 -159.5t212.5 -143.5q23 8 59 28.5t69.5 56.5t58 89t24.5 127q0 55 -19.5 103.5t-51 83t-74.5 54t-90 19.5q-66 0 -115 -24.5t-82 -62.5t-48 -84 t-15 -87z" />
<glyph unicode="9" horiz-adv-x="1452" d="M152 1008q0 106 39.5 199t111.5 164t171 112t220 41q135 0 246 -46t188.5 -129t120.5 -200t43 -258q0 -190 -79.5 -350t-210 -284t-295 -209t-334.5 -126l-6 29q162 55 285.5 148.5t208.5 218t129 276t44 328.5q0 98 -24.5 191t-70.5 165t-112.5 116t-148.5 44 q-121 0 -200 -91.5t-79 -269.5q0 -98 37 -186t100.5 -142.5t148.5 -63.5t183 46l17 -22q-55 -45 -124 -73t-141.5 -37t-144.5 3t-131 47q-86 51 -139 141.5t-53 217.5z" />
<glyph unicode=":" horiz-adv-x="559" d="M143 938q0 18 7.5 40.5t22.5 41t39 31t56 12.5q53 0 89 -33t36 -86t-33.5 -92t-93.5 -39q-66 0 -94.5 41t-28.5 84zM158 111q0 18 7 40.5t22.5 41t39 31t56.5 12.5q53 0 89 -33t36 -86t-34 -92t-93 -39q-66 0 -94.5 41t-28.5 84z" />
<glyph unicode=";" horiz-adv-x="559" d="M96 -240q76 68 107 144q4 10 6 29.5t0 43t-10.5 47t-24.5 42.5q-23 25 -25 69.5t29 85.5q16 23 49 36t62 7q59 -12 82.5 -52t23.5 -89q0 -53 -27.5 -111.5t-69.5 -114t-89 -100.5t-84 -69zM143 938q0 18 7.5 40.5t22.5 41t39 31t56 12.5q53 0 89 -33t36 -86t-33.5 -92 t-93.5 -39q-66 0 -94.5 41t-28.5 84z" />
<glyph unicode="&#x3c;" horiz-adv-x="1024" d="M125 571v119l680 393l37 -96l-613 -356l613 -355l-37 -96z" />
<glyph unicode="=" horiz-adv-x="1331" d="M195 336l20 123h922l-21 -123h-921zM195 672l20 123h922l-21 -123h-921z" />
<glyph unicode="&#x3e;" horiz-adv-x="1024" d="M125 276l612 355l-612 356l37 96l680 -393v-119l-680 -391z" />
<glyph unicode="?" horiz-adv-x="985" d="M140 1377.5q1 17.5 10 27.5q59 59 121.5 81.5t115.5 22.5q109 0 209 -44t178 -132q45 -49 68.5 -112.5t26.5 -131t-16 -133t-60 -118.5q-45 -59 -116 -108.5t-142 -104.5q-70 -53 -102 -128t-5 -161l-16 -10q-18 23 -39 52.5t-37.5 63t-26.5 69.5t-8 71q2 33 24.5 66.5 t59.5 60.5q53 39 108.5 82t99.5 93t71.5 110.5t27.5 135.5q0 51 -14 98.5t-43 84.5t-71 58.5t-95 21.5q-72 0 -129 -49.5t-92 -110.5q-8 -20 -23 -21q-18 0 -33.5 20.5t-21.5 33.5q-6 14 -13 34.5t-12.5 40t-4.5 37zM291 109q0 18 7 40.5t22.5 41t39 30.5t56.5 12 q53 0 89 -32.5t36 -85.5t-34 -92t-93 -39q-66 0 -94.5 41t-28.5 84z" />
<glyph unicode="@" horiz-adv-x="1609" d="M98 678q0 147 65.5 273t174 218.5t247 143.5t283.5 51q147 0 284.5 -53.5t245 -145.5t172 -218t64.5 -269q0 -90 -25.5 -159.5t-69.5 -118t-103.5 -74t-126.5 -25.5q-55 0 -108.5 16.5t-96.5 51t-69.5 89t-26.5 132.5v438h-129q-33 0 -53.5 -4t-36 -14.5t-26.5 -25.5 t-24 -40l-8 6q2 4 9.5 35t15.5 68q8 43 20 96l6 4q8 -16 22.5 -24.5t32 -12.5t35 -4h29.5l174 -6l197 6h26.5t22.5 2q-92 78 -210 122t-243 44q-129 0 -251.5 -46t-218 -128t-154 -191.5t-58.5 -236.5q0 -84 25 -158t68 -137q16 16 29.5 43t29.5 61q6 14 21.5 48t37 80.5 t46 100.5t49.5 109q57 127 126 283h25l289 -625q20 -47 57 -91t96 -48l2 -8l-169 8q-29 0 -60 -1t-59 -3q-23 -2 -48.5 -3t-37.5 -1v8q53 8 72.5 35t5.5 67l-68 164l-119 2l-117 2q-6 -14 -17 -42.5t-23.5 -59.5t-21.5 -58.5t-9 -41.5q0 -23 25.5 -44.5t54.5 -23.5v-8 q-4 0 -31 1t-49 3q-23 2 -45.5 3t-30.5 1h-8q-4 0 -9.5 -1t-9.5 -1h-2q49 -59 111.5 -105.5t134.5 -79t150.5 -50t158.5 -17.5q205 0 375 105l45 -74q-94 -55 -201.5 -86t-218.5 -31q-147 0 -285.5 51t-246 141.5t-172 213t-64.5 268.5zM512 670l88 -2l102 2l-100 223 q-23 -57 -44 -110.5t-46 -112.5zM1128 621q0 -68 15.5 -110t42 -66.5t59.5 -34t70 -9.5q43 0 82 18.5t68.5 53.5t47 88t17.5 123q0 104 -37 195.5t-100 164.5l-19 -110h-8q0 57 -25.5 75.5t-87.5 18.5l-125 2v-409z" />
<glyph unicode="A" horiz-adv-x="1656" d="M-12 0v14q68 12 112.5 30.5t77.5 48.5t57.5 75t51.5 111q12 31 40.5 101.5t68.5 165.5t86 206.5t93 224.5q109 262 240 577h16l543 -1284q43 -104 114 -174.5t181 -81.5v-14q-41 2 -90 6q-41 4 -94 6t-113 2q-47 0 -99 -2t-101.5 -5t-92.5 -5t-73 -2v14q110 16 144 58 q16 20 17 54q0 36 -18 87q-18 47 -40 108.5t-42 116.5q-23 66 -47 131l-246 4l-235 -4q-31 -80 -56 -147q-23 -57 -41 -108.5t-22 -67.5q-10 -33 -19.5 -63.5t-9.5 -51.5q0 -31 14.5 -52.5t37 -34.5t50 -20.5t54.5 -9.5v-14l-275 14q-4 0 -40.5 -2t-85 -5t-93.5 -5t-65 -2z M561 645l207 -6l227 6l-213 526q-2 4 -4 12.5t-6 8.5q-6 0 -6 -8z" />
<glyph unicode="B" horiz-adv-x="1409" d="M70 0v14q59 6 103 16.5t75 32t47 55.5t18 89q2 43 2 131v188.5v191.5v140v105.5v113t-1 109.5t-3 96q-2 55 -17 88t-45 53.5t-74 30.5t-101 19v14q111 0 188.5 -6t136.5 -6q35 0 77 1t77 5l82 8q26 2 52 2q60 1 123 -9q91 -14 167 -51.5t125 -106.5t49 -175 q0 -78 -30.5 -134.5t-72.5 -95t-83 -61t-62 -29.5v-10q74 -10 143.5 -36.5t125 -70.5t88 -108.5t32.5 -150.5q0 -90 -37.5 -172t-109.5 -145.5t-173.5 -100.5t-226.5 -37l-309 14zM532 853q0 -54 1.5 -101t1.5 -83v-48v-72.5t1 -121.5t2 -119t1 -64q2 -45 12 -80t35.5 -58.5 t67.5 -36t110 -12.5q45 0 96 19.5t94 61.5t71 109t28 161q0 82 -33 149.5t-88 116.5t-127 76.5t-148 27.5h-32v39h32q63 0 113.5 22.5t84.5 62.5t51.5 94.5t17.5 117.5q0 76 -23.5 133.5t-65.5 97t-96.5 60t-115.5 20.5q-55 0 -73 -25.5t-18 -47.5v-103v-151v-54v-87.5 v-103.5z" />
<glyph unicode="C" d="M109 754q0 182 79.5 323.5t205.5 238.5t283 148.5t310 51.5q27 0 75 -1.5t108.5 -9.5t127 -23.5t132.5 -41.5l63 -332l-25 -4q-18 74 -62 136.5t-107.5 108.5t-146.5 71.5t-179 25.5q-133 0 -240.5 -51.5t-185.5 -139.5t-120 -205.5t-42 -250.5q0 -182 59.5 -324.5 t154.5 -242t211 -151.5t230 -52q76 0 148 21.5t133 64.5t109.5 107.5t78.5 148.5l15 -17l-99 -323q-49 -23 -113.5 -35t-125 -18.5t-105.5 -8.5t-57 -2q-182 0 -347 49.5t-292 147.5t-201.5 245.5t-74.5 344.5z" />
<glyph unicode="D" horiz-adv-x="1873" d="M123 0v16q57 8 102 18.5t76 31t47.5 53.5t20.5 86q2 29 2 79t1 111.5t1 130t-1 131t-1 115.5v86v105.5v115t-1 111.5t-3 96q-2 49 -18.5 82t-45.5 53.5t-73 31.5t-101 20v14l348 -8h32q57 0 125 5q87 7 179 7q180 0 350 -38t301 -124t211 -226t80 -345 q0 -188 -69.5 -332.5t-188.5 -243t-277.5 -148.5t-334.5 -50l-410 22h-75t-97 -1t-99 -2t-81 -3zM588 388.5q0 -109.5 2 -161.5q12 -57 37.5 -92t64.5 -54.5t87 -26.5t104 -7q150 0 264.5 48t191 135t115.5 210t39 273q0 162 -64.5 294t-173 225t-249 144t-293.5 51 q-49 0 -85 -13t-36 -71q0 -90 -2 -213.5t-2 -263.5v-237v-240.5z" />
<glyph unicode="E" horiz-adv-x="1357" d="M125 1470v17q45 -4 110.5 -6t135 -4t135 -2h112.5l306 2h89t65.5 5t46 17t32.5 37l14 -10q-12 -47 -15 -96.5t-7 -71.5q-2 -23 -4 -50.5t-3 -56t-2 -54.5t-1 -42h-19q-10 115 -69.5 178.5t-182.5 67.5l-106 2h-180v-586h80t118 2q72 0 156 2q41 0 66.5 9.5t42 24.5 t26.5 36.5t21 50.5q4 0 8 -4l4 -4q-4 -20 -7 -46t-6.5 -52.5t-5.5 -50t-2 -37.5v-50.5t1 -54.5t1 -49.5v-34.5l-18 2q-2 27 -7 57.5t-20.5 56t-45 43t-79.5 17.5l-333 6v-178l2 -280q0 -55 10 -95.5t35.5 -66t70.5 -36.5q38 -9 95 -9h22q31 0 47.5 1t30.5 2t28.5 2t41.5 5 q45 6 82.5 19.5t69.5 42t60.5 76.5t55.5 122l16 -8l-71 -287q-8 -29 -19.5 -40t-40.5 -11q-111 2 -225.5 6t-265.5 4q-98 0 -232.5 -4t-265.5 -6v16q57 8 99 18.5t70 30t42 52.5t16 88q2 43 2 132v188.5v191.5v141v105.5v113t-1 109.5t-3 96q-2 55 -16 88t-42 52.5t-71 29.5 t-100 18z" />
<glyph unicode="F" horiz-adv-x="1216" d="M119 0v12q57 8 101 18.5t73 30t45 52t18 88.5q0 20 1 54t1 77v92v98v336v105.5v113t-1 109.5t-3 96q-2 55 -16 88t-42 52.5t-71 29.5t-100 18v17q45 -4 110.5 -6t135 -4t135 -2h112.5l295 2h94.5t66 4t44 17t27.5 38l16 -10q-12 -47 -15 -96.5t-7 -71.5q-2 -23 -4 -50.5 t-3.5 -56t-2.5 -54.5t-1 -42h-18q-10 115 -69.5 179.5t-182.5 66.5l-137 2h-139v-586h79t115 2q68 0 150 2q47 0 72.5 9.5t41 24.5t23.5 36.5t18 50.5q4 0 9 -4l4 -4q-4 -20 -7.5 -46t-6.5 -52.5t-5 -50t-2 -37.5v-50.5t1 -54.5t1 -49.5v-34.5l-18 2q-2 27 -7.5 57.5 t-20.5 56t-45 43t-79 17.5l-327 6v-102q0 -41 1 -76t1 -45v-96v-133.5t4 -102.5q4 -43 16 -72.5t40 -49t75 -32t121 -18.5v-14q-33 2 -79 4t-97.5 3t-100.5 2t-88 1q-37 0 -84 -1t-95 -3t-94 -3t-79 -3z" />
<glyph unicode="G" horiz-adv-x="1775" d="M117 754q0 180 75.5 321.5t199.5 239.5t281.5 149.5t319.5 51.5q27 0 78 -1.5t114.5 -9.5t133.5 -23.5t135 -41.5l64 -332l-25 -4q-18 74 -62.5 136.5t-107.5 108.5t-146 71.5t-180 25.5q-133 0 -242.5 -52.5t-188.5 -141.5t-123 -207.5t-44 -251.5q0 -131 42 -263.5 t128 -239t217.5 -173t309.5 -66.5q27 0 58.5 3t61 7.5t52 8.5t30.5 8q0 25 2 51q0 23 1.5 53.5t1.5 61.5v80v93t-3 83q-2 55 -18 89t-46 54.5t-74 31.5t-101 19v17q33 0 80 -1t97 -4.5t97 -5.5t82 -2q41 0 88 1t94.5 3.5t89.5 4.5t72 4v-17q-63 -6 -106 -17t-69.5 -32.5 t-40 -53.5t-15.5 -81q-2 -29 -2 -86v-107v-264q-14 -8 -47 -17t-72 -18.5t-78 -16.5t-65 -11q-51 -6 -115 -14.5t-141 -8.5q-166 0 -327 48t-287 145.5t-202.5 245t-76.5 348.5z" />
<glyph unicode="H" horiz-adv-x="1992" d="M135 1475v12q33 0 80 -1t97 -4t97.5 -5t82.5 -2q41 0 88 1t94 3t89 4t73 4v-14q-63 -6 -106.5 -17.5t-70 -32t-40 -53.5t-15.5 -82q0 -16 -1 -38.5t-2 -57.5t-2 -84t-1 -121v-166l379 -4l416 2v127v100.5v84t-1 75.5t-3 80q-2 55 -18.5 88t-46.5 52.5t-74 29.5t-101 19 v12q33 0 80 -1t97 -4t97 -5t82 -2q41 0 88 1t94.5 3t89.5 4t72 4v-14q-63 -6 -106 -17.5t-70.5 -32t-41 -53.5t-15.5 -82q-2 -35 -3 -84t-1 -114v-367l2 -301v-133.5t4 -102.5q4 -43 16.5 -72.5t40 -49t74.5 -32t121 -18.5v-14q-33 2 -79 4t-97.5 3t-100.5 2t-88 1 q-37 0 -84 -1t-95 -3t-94 -3t-79 -3v12q57 8 101 18.5t73 30t45.5 52t18.5 88.5q2 31 2 95v142v160v150h-795v-95q0 -121 1 -201.5t1 -134t1 -84t3 -47.5q4 -43 16.5 -72.5t40 -49t74.5 -32t121 -18.5v-14q-33 2 -79 4t-97 3t-100.5 2t-87.5 1q-37 0 -84.5 -1t-95.5 -3 t-94 -3t-79 -3v12q57 8 101.5 18.5t73 30t45 52t18.5 88.5q2 43 2 132v190.5v193.5v141t-1 86t-1 81t-1 104.5t-1 156.5q0 55 -15.5 88t-46 52.5t-75.5 29.5t-103 19z" />
<glyph unicode="I" horiz-adv-x="956" d="M125 1475v12q33 0 80 -1t97 -4t97 -5t82 -2q41 0 88 1t94.5 3t89.5 4t72 4v-14q-63 -6 -106 -17.5t-69.5 -32t-40 -53.5t-15.5 -82q-2 -35 -3 -84t-1 -114v-668v-133.5t4 -102.5q4 -43 16.5 -72.5t40 -49t74.5 -32t121 -18.5v-14q-33 2 -79 4t-97.5 3t-100.5 2t-88 1 q-37 0 -84 -1t-95 -3t-94 -3t-79 -3v12q57 8 101 18.5t73 30t45.5 52t18.5 88.5q2 43 2 132v190.5v193.5v141t1 105.5t1 115v111.5t-2 96q-2 55 -19.5 88t-48.5 52.5t-75 29.5t-101 19z" />
<glyph unicode="J" horiz-adv-x="876" d="M25 -428q96 45 160.5 125t102.5 176t54 201.5t16 201.5v44t-1 87.5t-1 113t-1 124t-1 117.5v96v105.5v115v111.5t-2 96q-2 55 -18.5 88t-46 52.5t-73.5 29.5t-101 19v12q33 0 80 -1t97 -4t97 -5t82 -2q41 0 88 1t94 3t89 4t73 4v-14q-63 -6 -106 -17.5t-70 -32t-40 -53.5 t-15 -82q-2 -35 -3 -84t-1 -114l-3 -388v-37.5v-51v-47v-27.5q0 -82 2.5 -159t2.5 -142q0 -131 -40 -243t-112 -199t-172 -148.5t-221 -93.5z" />
<glyph unicode="K" horiz-adv-x="1751" d="M117 1475v12q33 0 80 -1t97 -4t97 -5t82 -2q41 0 88 1t94 3t89 4t73 4v-14q-63 -6 -106 -17.5t-70 -32t-40 -53.5t-15 -82q-2 -35 -3 -84t-1 -114l-4 -367l4 -301v-133.5t4 -102.5q4 -43 16 -72.5t40 -49t75 -32t121 -18.5v-14q-33 2 -79 4t-97.5 3t-100.5 2t-88 1 q-37 0 -84 -1t-95 -3t-94 -3t-79 -3v12q57 8 101 18.5t73 30t45 52t18 88.5q2 43 3 132t1 190.5v193.5v141v105.5t-1 115t-2 111.5t-3 96q-2 55 -18 88t-46 52.5t-74 29.5t-101 19zM629 795q16 18 52 55t80 83t93 97t94 96t80 81t51 53q23 23 51.5 55.5t39 65t-10 57 t-96.5 30.5v19l332 -10l233 10v-19q-10 0 -28.5 -1t-39 -4t-41 -7t-34.5 -10q-47 -18 -113.5 -61.5t-132.5 -106.5q-23 -23 -80 -76t-120.5 -113.5t-122 -117t-82.5 -82.5q37 -49 91 -123t113.5 -152.5t117.5 -151.5t104 -120q61 -63 126.5 -126.5t135 -114t140.5 -81 t142 -30.5l4 -21q-54 -5 -105 -5q-69 0 -131 10q-108 16 -199 54t-167 92t-137 120q-39 39 -96.5 110.5t-121 152.5t-122.5 159.5t-100 132.5z" />
<glyph unicode="L" horiz-adv-x="1366" d="M115 0v16q61 8 107 18.5t77 30t47 52.5t19 88q2 43 2 132v188.5v191.5v141v105.5v115t-1 111.5t-4 96q-2 55 -18 88t-46 52.5t-74 29.5t-101 19v12q33 0 80 -1t97 -4t97 -5t82 -2q41 0 88 1t94.5 3t89.5 4t72 4v-14q-63 -6 -106 -17.5t-69.5 -32t-40 -53.5t-15.5 -82 q-2 -35 -3 -84t-1 -114l-2 -414q0 -25 1 -72t1 -103.5t1 -113.5t1 -104q0 -41 9 -77t33 -62q25 -28 66 -42q36 -13 88 -12h15q39 0 67.5 1t53 2t47 3t53.5 4q53 4 93 15.5t73 37t59.5 72.5t52.5 121l17 -8l-55 -264q-6 -28 -24 -52q-16 -22 -68 -22h-9q-129 4 -255 8t-259 4 q-135 0 -266 -4t-266 -8z" />
<glyph unicode="M" horiz-adv-x="2164" d="M16 0v14q53 8 96.5 24.5t76 49.5t55 84t37.5 131l147 858q-14 33 -27 64l-20 50t-16 38q-37 78 -93.5 113.5t-134.5 46.5v14q20 -2 50 -3t62 -2t60.5 -1h48.5q53 0 103.5 1t87.5 5q63 -139 126.5 -288.5t128 -300t128 -300t125.5 -287.5q70 137 141.5 284.5t142 298 t141 300t140.5 293.5q16 -2 40 -3t49.5 -2t49 -2t39.5 -1q55 0 99.5 2t80.5 6v-14q-63 -6 -104 -17.5t-66.5 -32t-38 -53.5t-14.5 -82q0 -8 1 -29.5t3 -33.5q10 -98 24.5 -213t28 -224.5t24.5 -200.5t17 -141q6 -59 13 -112q4 -45 9 -87t9 -59q8 -43 19.5 -72.5t38 -49 t71.5 -31.5t119 -19v-16q-43 2 -92 5t-97.5 5t-94.5 3t-83 1q-96 0 -180 -4t-170 -10v14q57 8 98 18.5t68 30t40 52t15 88.5v15q0 30 -5 94q-7 80 -17 177t-21.5 193t-17.5 156q-2 27 -7 68.5t-10.5 83.5t-9.5 77t-4 47h-8q-57 -123 -90 -196.5t-56.5 -129t-48 -108.5 t-64.5 -136t-103.5 -212t-165.5 -334h-15q-119 264 -245.5 523t-243.5 523h-6l-29 -200q-12 -86 -27.5 -189.5t-31.5 -195.5q-12 -74 -22.5 -145.5t-12.5 -106.5v-13q0 -30 7 -56q9 -32 35.5 -56.5t74 -41.5t120.5 -24v-16q-47 4 -137 8t-182 4q-90 0 -161 -4t-118 -8z" />
<glyph unicode="N" horiz-adv-x="1935" d="M88 1475v12q55 -4 91 -6t64.5 -2t54.5 1t60 1q12 0 35 1t47.5 2t46 2t33.5 1q283 -307 506 -551q94 -104 186.5 -203.5t165 -178.5t117.5 -129t49 -52h2q4 0 4 4q0 6 -1 57t-1 124t-1 155t-1 147q0 49 -1 105.5t-1 114v110.5t-2 96q-2 55 -18.5 88t-46 52.5t-73.5 29.5 t-101 19v12q33 0 73.5 -1t82.5 -4t83 -5t76 -2q82 0 155.5 4t133.5 8v-14q-63 -6 -106.5 -17.5t-70 -32t-40 -53.5t-15.5 -82q-2 -35 -3 -84t-1 -114l-2 -367l-8 -633q0 -16 -1 -36.5t-1 -39.5q-2 -23 -2 -43l-23 -6q-276 285 -512 533q-100 104 -202.5 211.5t-192.5 201 t-160.5 167t-109.5 114.5v-22.5v-12.5v-20.5v-46.5l-2 -367l2 -301v-133.5t4 -102.5q4 -43 16 -72.5t40 -49t75 -32t121 -18.5v-14q-66 4 -149 7t-161 3q-72 0 -158.5 -3t-152.5 -7v12q57 8 101.5 18.5t74 30t45 52t17.5 88.5q2 43 2 132v190.5v193.5v141v105.5v115 t-1 111.5t-3 96q-2 55 -18.5 88t-46.5 52.5t-74 29.5t-101 19z" />
<glyph unicode="O" horiz-adv-x="1867" d="M119 737q0 147 54 287.5t158.5 250t258 177.5t352.5 68q174 0 321.5 -53.5t255 -151.5t168 -237.5t60.5 -313.5q0 -172 -61.5 -319.5t-172 -255t-262 -168t-329.5 -60.5q-184 0 -333 63.5t-253.5 170t-160.5 248t-56 294.5zM403 780q0 -158 42 -294t117 -237.5 t181.5 -158.5t235.5 -57q88 0 175 40t154.5 123t110.5 213t43 310q0 154 -41 287t-115.5 231t-179 155.5t-229.5 57.5q-106 0 -196.5 -46t-157 -132t-103.5 -211t-37 -281z" />
<glyph unicode="P" horiz-adv-x="1386" d="M129 0v12q57 8 101 18.5t73 30t45.5 52t18.5 88.5q2 43 2 132v190.5v193.5v141v104.5v113t-1 109.5t-3 95q-2 55 -16.5 88t-43.5 53.5t-72 30.5t-100 18v17q25 -2 61.5 -3t80.5 -2t93.5 -2t96.5 -1l293 8q86 0 180 -16.5t173 -60.5t131 -122t52 -201q0 -115 -54 -209 t-140 -160q-86 -64 -194 -98q-91 -28 -181 -29q-16 0 -33 1v18q82 8 152.5 35t121 75t79 115.5t28.5 157.5q0 84 -26.5 162t-76.5 137.5t-122 97t-160 42.5q-24 2 -45 2t-39 -2l-14 -27v-465l-2 -217l2 -301v-133.5t4 -102.5q4 -43 16.5 -72.5t40 -49t74.5 -32t121 -18.5 v-14q-33 2 -79 4t-97.5 3t-100.5 2t-88 1q-37 0 -84 -1t-95 -3t-94 -3t-79 -3z" />
<glyph unicode="Q" horiz-adv-x="1869" d="M158 743q0 145 54 284.5t159.5 248t260 175.5t353.5 67q174 0 319.5 -55.5t252 -155t166 -236.5t59.5 -301q0 -117 -32 -217t-84 -183t-119.5 -148.5t-137.5 -110.5q109 -68 205 -127q41 -25 83 -50.5t81 -49t70.5 -41t54.5 -27.5q115 -57 212 -95t178 -60.5t147.5 -32 t119.5 -9.5q141 0 240.5 34t187.5 97q8 6 15.5 12.5t13.5 10.5l12 -13q-14 -14 -20 -18q-47 -43 -108.5 -87t-141.5 -80t-179.5 -57.5t-218.5 -21.5q-98 0 -187 15.5t-176 44t-175 72.5t-183 104q-33 20 -89 56t-116.5 76t-115.5 78t-86 60q-31 -10 -105.5 -19.5 t-154.5 -9.5q-158 0 -304.5 54.5t-260 155t-182 242.5t-68.5 318zM442 797q0 -102 27 -206t75 -197t117.5 -170t153.5 -125t181 -61q27 -4 55 -4q72 0 149 25q45 14 96.5 62.5t96.5 129.5t74.5 194.5t29.5 259.5h2q0 166 -44 303t-121 235t-180 152.5t-220 54.5 q-96 0 -185.5 -41t-157 -123t-108.5 -205t-41 -284z" />
<glyph unicode="R" horiz-adv-x="1570" d="M109 0v12q57 8 101 18.5t72.5 30t45 52t18.5 88.5q2 41 2 128v185q0 111 1 207t1 187t-1 181.5t-5 192.5q-2 55 -16.5 88t-43 52.5t-71.5 29.5t-100 18v15q131 0 214 -4t134 -4l237 6q98 0 199.5 -16.5t184.5 -57.5t136.5 -113.5t53.5 -185.5q0 -127 -77 -215t-191 -156 q20 -70 58 -154.5t90 -171.5t115.5 -171t134.5 -151.5t147.5 -113t156.5 -53.5v-18q-207 6 -353.5 71.5t-250 170t-175 235.5t-130.5 268q-18 -6 -45 -10t-58.5 -7t-64.5 -4t-60 1v-117v-214t4 -114q4 -43 16.5 -72.5t40 -49t75 -32t120.5 -18.5v-14q-33 2 -79 4t-97 3 t-100 2t-88 1q-37 0 -84 -1t-95.5 -3t-94.5 -3t-78 -3zM567 684q88 2 173 28.5t153 70.5t109.5 105.5t41.5 133.5q0 106 -39.5 183t-104 126t-147.5 72.5t-169 23.5l-15 -20v-313l-2 -326v-84z" />
<glyph unicode="S" horiz-adv-x="1224" d="M147 129q8 76 12.5 141.5t8.5 155.5h14q16 -193 121 -289t270 -96q61 0 112.5 22.5t88.5 59.5t56.5 85t19.5 101q0 49 -12.5 87t-39 73t-69.5 72t-102 80q-72 51 -146.5 101t-135 108.5t-98.5 132t-38 174.5q0 80 32.5 148.5t93 118.5t145.5 79.5t190 29.5q37 0 82 -4 t91 -13t89 -24.5t76 -35.5q-1 -21 -1 -41q0 -53 4 -105q5 -74 9 -145l-19 -6q-14 94 -50 156.5t-83 99.5t-99 52t-97 15q-53 0 -99.5 -20.5t-80 -54t-53 -80.5t-19.5 -99q0 -43 14.5 -77.5t43 -67.5t68.5 -65.5t93 -69.5q72 -53 148.5 -104.5t141 -112t105.5 -133t41 -166.5 q0 -111 -44 -194t-116.5 -137t-167 -81t-194.5 -27q-111 0 -215.5 42t-190.5 114z" />
<glyph unicode="T" horiz-adv-x="1460" d="M-4 1208q0 6 12 60.5t29 120.5q18 74 43 167l12 13q16 -31 45 -47.5t60.5 -25.5t65.5 -12t59 -3l407 -11l469 11q72 2 115 7t69.5 15t39 23.5t22.5 32.5l16 -9l-65 -374l-17 4q1 16 1 31q0 97 -45 136q-52 44 -169 46l-334 4l-2 -883v-92v-133.5t5 -102.5q4 -43 16 -72.5 t40 -49t75 -32t120 -18.5v-14q-33 2 -78.5 4t-97 3t-100.5 2t-88 1q-37 0 -84 -1t-95 -3t-94.5 -3t-78.5 -3v12q57 8 101 18.5t73.5 30t45 52t17.5 88.5q2 41 3 128t1 185v524q0 59 -1 123t-1 117v119l-332 -4q-61 0 -99 -10.5t-64.5 -34t-49 -60.5t-53.5 -90z" />
<glyph unicode="U" horiz-adv-x="1810" d="M61 1473v12q33 0 80 -1t97.5 -4t97.5 -5t82 -2q41 0 88 1t94 3t89 4t73 4v-15q-63 -6 -106.5 -17t-70 -31.5t-40 -53.5t-15.5 -82q-2 -35 -3 -84t-1 -115l4 -442q0 -86 11.5 -167t36 -149.5t63.5 -123.5t96 -90q61 -39 128 -54.5t136 -15.5q82 0 158 32t127 85 q37 39 62.5 93t41 118.5t21.5 135.5t6 142l-4 361q-2 74 -3 147.5t-3 126.5q-2 55 -18.5 88t-46 52.5t-73.5 29.5t-102 19v12h30q54 0 119 -5q83 -7 152 -7q82 0 162 4t139 8v-14q-63 -6 -106 -17.5t-69.5 -32t-40 -53.5t-15.5 -82q-2 -35 -3 -84t-1 -114v-148 q0 -27 -1 -60.5t-1 -67.5v-62.5v-44.5v-19q0 -8 1 -18.5t1 -18.5q0 -82 -8 -161.5t-32 -152.5t-62.5 -135.5t-100.5 -111.5q-90 -72 -190.5 -98.5t-210.5 -26.5q-61 0 -125 6t-124 22.5t-115.5 44.5t-100.5 68q-139 121 -154 357q-4 39 -5 89t-2 104.5t-1 106.5v95v105.5 v114v110.5t-2 96q-2 55 -18.5 88t-46 52.5t-73.5 29.5t-102 19z" />
<glyph unicode="V" horiz-adv-x="1792" d="M10 1470v19q35 -2 81 -5t94 -5t94.5 -3t80.5 -1h51.5t84.5 2t100 4t100 8v-16q-23 -6 -49 -10.5t-47.5 -13.5t-36 -25.5t-14.5 -47.5q0 -25 10 -60.5t33 -88.5q14 -37 37.5 -95.5t51.5 -128t59.5 -146.5t62.5 -150q72 -174 153 -375q0 2 2 2t5 2q14 39 49 116.5t81 180 t99 225.5t106 250q18 45 37 87t31 77q14 41 14 72q0 43 -26 69q-45 45 -162 62v12q22 1 45 1q45 0 93 -5q72 -8 143 -8q82 0 165.5 5t143.5 9v-14q-74 -8 -125 -32t-88 -63t-64.5 -89t-54.5 -109l-563 -1200h-19q-125 291 -227 524q-43 100 -86 197.5t-79 178.5t-60.5 136 t-30.5 72q-8 18 -29.5 60t-45 86t-45 82t-29.5 48q-47 53 -97.5 73.5t-128.5 30.5z" />
<glyph unicode="W" horiz-adv-x="2519" d="M10 1470v19q35 -2 81 -5t94 -5t94.5 -3t80.5 -1h51.5t84.5 2t100 4t100 8v-16q-23 -6 -49 -10.5t-47.5 -13.5t-36 -25.5t-14.5 -47.5q0 -25 12 -59.5t29 -89.5l262 -846q0 2 2 2t4 2l338 803q-23 47 -50.5 96t-58.5 82q-47 53 -96 73.5t-127 30.5v19q35 -2 81 -5t94 -5 t94.5 -3t80.5 -1h51.5t84.5 2t100 4t100 8v-16q-23 -6 -49 -10.5t-47.5 -13.5t-36 -25.5t-14.5 -47.5q0 -25 11 -60.5t32 -88.5l317 -846q0 2 2 2q4 0 4 2q25 63 53.5 145t58.5 167t58.5 167t51.5 148q14 47 22 72.5t14.5 49t15.5 53.5t30 85q16 45 16 79q0 38 -20 62 q-37 45 -154 62v12q22 1 45 1q46 0 96 -5q76 -8 146 -8q82 0 164.5 5t142.5 9v-14q-74 -8 -126 -32t-89 -60.5t-63.5 -88t-51.5 -112.5l-82 -215q-31 -78 -62.5 -162t-62 -169t-60.5 -166t-57 -155q-63 -172 -120 -335h-19q-72 166 -149 348q-66 156 -149 348t-167 389 q-33 -76 -69.5 -163t-74.5 -177t-76 -181t-70 -173q-82 -195 -160 -391h-21l-397 1110q-16 47 -37.5 93t-43 83t-40 63.5t-26.5 36.5q-47 53 -97.5 73.5t-128.5 30.5z" />
<glyph unicode="X" horiz-adv-x="1480" d="M-39 -6v14q117 10 196 64.5t136 128.5q14 20 38.5 53t53.5 73t61.5 85t63.5 88q74 102 158 219q-51 82 -101 164q-41 70 -89 146.5t-83 137.5q-10 18 -29.5 47t-40 60t-39 56.5t-26.5 35.5q-47 51 -102.5 72.5t-134.5 31.5v19q35 -2 81 -5t95 -5t95 -3t81 -1h47t80 2 t97 4t99 8v-16q-25 -6 -49 -10.5t-45.5 -13.5t-35 -25.5t-13.5 -47.5q0 -25 20.5 -63.5t49.5 -85.5q27 -45 54.5 -94.5t54 -94.5t47 -81.5t32.5 -57.5q8 12 31.5 48t54.5 83t64.5 99.5t58.5 95.5q49 84 59 123q8 33 -1 55t-29.5 36.5t-47 22.5t-53.5 13v12q22 1 42 1 q41 0 75 -5q51 -8 121 -8q84 0 167 5t142 9v-14q-57 -6 -101 -27t-81 -51.5t-69 -68.5t-64 -81q-31 -41 -83 -113.5t-104 -142.5q-59 -82 -125 -176q59 -96 115 -188q47 -78 99.5 -164t89.5 -148q10 -16 28.5 -45.5t39 -60.5t38.5 -57.5t29 -36.5q47 -51 102 -71.5 t133 -33.5v-16q-35 2 -81 5t-94 5t-94 3t-81 1h-49t-80 -2t-96 -4t-99 -8v16q23 6 48.5 10.5t47 13.5t35 25.5t13.5 46.5q0 25 -20.5 64t-49.5 86q-27 43 -59.5 99.5t-65.5 110.5t-58.5 98t-35.5 65q-8 -12 -38 -55.5t-67.5 -98.5t-76.5 -114.5t-64 -102.5 q-27 -43 -41 -73.5t-18 -49.5q-8 -33 1 -55.5t28.5 -36.5t46 -22.5t53.5 -12.5v-14h-29q-49 0 -88 5q-51 7 -121 7q-41 0 -89 -1t-96 -3t-91 -4t-74 -4z" />
<glyph unicode="Y" horiz-adv-x="1599" d="M4 1470v19q35 -2 81 -5t95 -5t95.5 -3t80.5 -1h47t80 2t97.5 4t99.5 8v-16q-25 -6 -49.5 -10.5t-46 -13.5t-34.5 -25.5t-13 -47.5q0 -25 20.5 -63.5t48.5 -85.5q16 -29 41 -73t52.5 -93t55 -100.5t51 -95.5t41 -76.5t25.5 -45.5q55 102 109 197q20 39 44 81t44.5 80 t37.5 69.5t28 54.5q23 45 39 74.5t20 48.5q8 33 -1 55t-29.5 36.5t-47 22.5t-53.5 13v12q33 2 59.5 0t51 -5t51 -5t61.5 -2q84 0 167 5t142 9v-14q-115 -12 -188.5 -75t-126.5 -153q-16 -25 -38.5 -63.5t-50.5 -85.5t-58.5 -98.5t-59.5 -100.5q-68 -117 -145 -248v-199.5 v-134t1 -84t3 -47.5q4 -43 16.5 -72.5t40 -49t74.5 -32t121 -18.5v-14q-33 2 -79 4t-97.5 3t-100.5 2t-88 1q-37 0 -84 -1t-95 -3t-94 -3t-79 -3v12q57 8 101 18.5t73 30t45 52t19 88.5q0 18 1 64t1 101.5v114v103.5q-70 121 -134 231q-27 47 -55.5 96.5t-56 96.5t-51 88 t-41.5 71q-10 18 -28.5 47t-37 60t-36 56.5t-25.5 35.5q-47 51 -102.5 72.5t-135.5 31.5z" />
<glyph unicode="Z" horiz-adv-x="1425" d="M68 20q2 -4 42 53.5t105.5 153t148 219t168.5 252.5q203 303 461 693l-258 6l-303 -4q-66 0 -105.5 -10.5t-67.5 -34t-51.5 -60.5t-53.5 -90l-15 10q0 6 12.5 60.5t28.5 120.5q18 74 43 167l13 13q16 -31 44.5 -47.5t60.5 -23.5t65.5 -9t58.5 -2l373 -4l479 4l12 -14 l-936 -1375q137 -4 247 -6q55 -1 100.5 -1t80.5 1l279 6q66 2 104.5 12.5t65 33t49 59.5t53.5 90l14 -10q0 -6 -14 -61.5t-29 -119.5q-20 -76 -43 -168l-12 -12q-16 31 -43.5 46.5t-59.5 23.5t-66 10t-58 2l-371 6q-57 2 -131 2t-155.5 -1t-164.5 -3t-159 -8z" />
<glyph unicode="[" horiz-adv-x="692" d="M199 -119v1682h397v-60h-248v-1562h248v-60h-397z" />
<glyph unicode="\" horiz-adv-x="907" d="M25 1499q-4 4 2 9t10 8l69 34q6 6 17 -12q2 -6 29.5 -61.5t71.5 -142.5t100.5 -199.5t118 -233.5t124 -242.5t116.5 -229t97 -191.5t68 -132q16 -33 29.5 -58t23.5 -44q11 -23 21 -37q4 -4 -1.5 -9t-9.5 -7l-71 -35q-6 -6 -17 12q-2 6 -18.5 38t-42.5 85q-25 47 -70 135 t-101 199t-119.5 237t-127.5 248q-147 291 -319 629z" />
<glyph unicode="]" horiz-adv-x="692" d="M121 -61h248v1564h-248v60h397v-1682h-397v58z" />
<glyph unicode="^" horiz-adv-x="1024" d="M33 311l393 680h119l391 -680l-96 -37l-355 613l-356 -613z" />
<glyph unicode="_" horiz-adv-x="1024" d="M0 -205h1024v-102h-1024v102z" />
<glyph unicode="`" horiz-adv-x="1548" d="M301 1927l156 47l311 -336l-27 -39l-413 238z" />
<glyph unicode="a" horiz-adv-x="1722" d="M20 0v14q68 12 113 30.5t78 48.5t57.5 75t50.5 111q12 31 41 101.5t69 165.5t86 206.5t93 224.5q109 262 240 577h16l543 -1284q43 -104 113.5 -174.5t181.5 -81.5v-14q-41 2 -90 6q-41 4 -94.5 6t-112.5 2q-47 0 -99.5 -2t-101.5 -5t-92 -5t-74 -2v14q111 16 145 58 q17 20 17 55q0 36 -18 86q-18 47 -40 108.5t-42 116.5q-23 66 -47 131l-246 4l-236 -4q-31 -80 -55 -147q-23 -57 -41 -108.5t-22 -67.5q-10 -33 -19.5 -63.5t-9.5 -51.5q0 -31 14.5 -52.5t37 -34.5t50 -20.5t54.5 -9.5v-14l-275 14q-4 0 -41 -2t-85 -5t-93 -5t-66 -2z M594 645l207 -6l227 6l-213 526q-2 4 -4 12.5t-6 8.5q-6 0 -6 -8z" />
<glyph unicode="b" horiz-adv-x="1409" d="M68 -18q76 16 124 41.5t75.5 63.5t37.5 89t10 119v563v105.5v113t-1 109.5t-3 96q-2 55 -17 88t-45 53.5t-74 30.5t-101 19v14q111 0 188.5 -7t136.5 -7q35 0 77 2t77 6l82 8q27 2 55 2q58 -1 120 -9q91 -12 167 -50.5t125 -107.5t49 -175q0 -78 -30.5 -134.5t-72.5 -95 t-83 -61t-62 -29.5v-10q74 -10 143.5 -36.5t125 -70.5t88 -108.5t32.5 -150.5q0 -90 -37.5 -172t-109.5 -145.5t-173.5 -100.5t-226.5 -37q-29 0 -65.5 4t-77.5 16.5t-85 35t-85 59.5q-109 -133 -360 -146zM532 1098q0 -166 4 -332q2 -106 2 -212q0 -61 -1 -122v-63.5t1 -57 t1 -44v-23.5q2 -45 12 -80t35.5 -58.5t67.5 -36t110 -12.5q45 0 96 19.5t94 61.5t71 108.5t28 161.5q0 82 -33 149.5t-88 116.5t-127 76.5t-148 27.5h-32v39h32q63 0 113.5 22.5t84.5 62.5t51.5 94.5t17.5 117.5q0 76 -23.5 133.5t-65.5 97t-96.5 60t-115.5 20.5 q-55 0 -73 -25.5t-18 -47.5v-254z" />
<glyph unicode="c" d="M109 754q0 182 79.5 323.5t205.5 238.5t283 148.5t310 51.5q27 0 75 -1.5t108.5 -9.5t127 -23.5t132.5 -41.5l63 -332l-25 -4q-18 74 -62 136.5t-107.5 108.5t-146.5 71.5t-179 25.5q-133 0 -240.5 -51.5t-185.5 -139.5t-120 -205.5t-42 -250.5q0 -182 59.5 -324.5 t154.5 -242t211 -151.5t230 -52q76 0 148 21.5t133 64.5t109.5 107.5t78.5 148.5l15 -17l-99 -323q-49 -23 -113.5 -35t-125 -18.5t-105.5 -8.5t-57 -2q-182 0 -347 49.5t-292 147.5t-201.5 245.5t-74.5 344.5z" />
<glyph unicode="d" horiz-adv-x="1873" d="M123 0v16q57 8 102 18.5t76 31t47.5 53.5t20.5 86q2 29 2 79t1 111.5t1 130t-1 131t-1 115.5v86v105.5v115t-1 111.5t-3 96q-2 49 -18.5 82t-45.5 53.5t-73 31.5t-101 20v14l348 -8h32q57 0 125 5q87 7 179 7q180 0 350 -38t301 -124t211 -226t80 -345 q0 -188 -69.5 -332.5t-188.5 -243t-277.5 -148.5t-334.5 -50l-410 22h-75t-97 -1t-99 -2t-81 -3zM588 388.5q0 -109.5 2 -161.5q12 -57 37.5 -92t64.5 -54.5t87 -26.5t104 -7q150 0 264.5 48t191 135t115.5 210t39 273q0 162 -64.5 294t-173 225t-249 144t-293.5 51 q-49 0 -85 -13t-36 -71q0 -90 -2 -213.5t-2 -263.5v-237v-240.5z" />
<glyph unicode="e" horiz-adv-x="1357" d="M125 1470v17q45 -4 110.5 -6t135 -4t135 -2h112.5l306 2h89t65.5 5t46 17t32.5 37l14 -10q-12 -47 -15 -96.5t-7 -71.5q-2 -23 -4 -50.5t-3 -56t-2 -54.5t-1 -42h-19q-10 115 -69.5 178.5t-182.5 67.5l-106 2h-180v-586h80t118 2q72 0 156 2q41 0 66.5 9.5t42 24.5 t26.5 36.5t21 50.5q4 0 8 -4l4 -4q-4 -20 -7 -46t-6.5 -52.5t-5.5 -50t-2 -37.5v-50.5t1 -54.5t1 -49.5v-34.5l-18 2q-2 27 -7 57.5t-20.5 56t-45 43t-79.5 17.5l-333 6v-178l2 -280q0 -55 10 -95.5t35.5 -67t70.5 -37.5q33 -8 81 -8q17 0 36 1q29 2 45.5 2t30.5 1t29.5 2 t42.5 5q45 6 82.5 19.5t69.5 42t60.5 76.5t55.5 122l16 -8l-71 -287q-8 -29 -19.5 -40t-40.5 -11l-614 10l-375 -10v16q57 8 99 18.5t70 30t42 52.5t16 88q2 43 2 132v188.5v191.5v141v105.5v113t-1 109.5t-3 96q-2 55 -16 88t-42 52.5t-71 29.5t-100 18z" />
<glyph unicode="f" horiz-adv-x="1216" d="M119 0v12q57 8 101 18.5t73 30t45 52t18 88.5q0 20 1 54t1 77v92v98v336v105.5v113t-1 109.5t-3 96q-2 55 -16 88t-42 52.5t-71 29.5t-100 18v17q45 -4 110.5 -6t135 -4t135 -2h112.5l295 2h94.5t66 4t44 17t27.5 38l16 -10q-12 -47 -15 -96.5t-7 -71.5q-2 -23 -4 -50.5 t-3.5 -56t-2.5 -54.5t-1 -42h-18q-10 115 -69.5 179.5t-182.5 66.5l-137 2h-139v-586h79t115 2q68 0 150 2q47 0 72.5 9.5t41 24.5t23.5 36.5t18 50.5q4 0 9 -4l4 -4q-4 -20 -7.5 -46t-6.5 -52.5t-5 -50t-2 -37.5v-50.5t1 -54.5t1 -49.5v-34.5l-18 2q-2 27 -7.5 57.5 t-20.5 56t-45 43t-79 17.5l-327 6v-102q0 -41 1 -76t1 -45v-96v-133.5t4 -102.5q4 -43 16 -72.5t40 -49t75 -32t121 -18.5v-14q-33 2 -79 4t-97.5 3t-100.5 2t-88 1q-37 0 -84 -1t-95 -3t-94 -3t-79 -3z" />
<glyph unicode="g" horiz-adv-x="1775" d="M117 754q0 180 75.5 321.5t199.5 239.5t281.5 149.5t319.5 51.5q27 0 78 -1.5t114.5 -9.5t133.5 -23.5t135 -41.5l64 -332l-25 -4q-18 74 -62.5 136.5t-107.5 108.5t-146 71.5t-180 25.5q-133 0 -242.5 -52.5t-188.5 -141.5t-123 -207.5t-44 -251.5q0 -131 42 -263.5 t128 -239t217.5 -173t309.5 -66.5q27 0 58.5 3t61 7.5t52 8.5t30.5 8q0 25 2 51q0 23 1.5 53.5t1.5 61.5v80v93t-3 83q-2 55 -18 89t-46 54.5t-74 31.5t-101 19v17q33 0 80 -1t97 -4.5t97 -5.5t82 -2q41 0 88 1t94.5 3.5t89.5 4.5t72 4v-17q-63 -6 -106 -17t-69.5 -32.5 t-40 -53.5t-15.5 -81q-2 -29 -2 -86v-107v-264q-14 -8 -47 -17t-72 -18.5t-78 -16.5t-65 -11q-51 -6 -115 -14.5t-141 -8.5q-166 0 -327 48t-287 145.5t-202.5 245t-76.5 348.5z" />
<glyph unicode="h" horiz-adv-x="1992" d="M135 1475v12q33 0 80 -1t97 -4t97.5 -5t82.5 -2q41 0 88 1t94 3t89 4t73 4v-14q-63 -6 -106.5 -17.5t-70 -32t-40 -53.5t-15.5 -82q0 -16 -1 -38.5t-2 -57.5t-2 -84t-1 -121v-166l379 -4l416 2v127v100.5v84t-1 75.5t-3 80q-2 55 -18.5 88t-46.5 52.5t-74 29.5t-101 19 v12q33 0 80 -1t97 -4t97 -5t82 -2q41 0 88 1t94.5 3t89.5 4t72 4v-14q-63 -6 -106 -17.5t-70.5 -32t-42 -53.5t-16.5 -82q-2 -35 -2 -84v-114v-367l2 -301v-133.5t4 -102.5q4 -43 16.5 -72.5t40 -49t74.5 -32t121 -18.5v-14q-33 2 -79 4t-97.5 3t-100.5 2t-88 1 q-37 0 -84 -1t-95 -3t-94 -3t-79 -3v12q57 8 101 18.5t73 30t45.5 52t18.5 88.5q2 31 2 95v142v160v150h-795v-95q0 -121 1 -201.5t1 -134t1 -84t3 -47.5q4 -43 16.5 -72.5t40 -49t74.5 -32t121 -18.5v-14q-33 2 -79 4t-97 3t-100.5 2t-87.5 1q-37 0 -84.5 -1t-95.5 -3 t-94 -3t-79 -3v12q57 8 101.5 18.5t73 30t45 52t18.5 88.5q2 43 2 132v190.5v193.5v141t-1 86t-1 81t-1 104.5t-1 156.5q0 55 -15.5 88t-46 52.5t-75.5 29.5t-103 19z" />
<glyph unicode="i" horiz-adv-x="956" d="M125 1475v12q33 0 80 -1t97 -4t97 -5t82 -2q41 0 88 1t94.5 3t89.5 4t72 4v-14q-63 -6 -106 -17.5t-69.5 -32t-40 -53.5t-15.5 -82q-2 -35 -3 -84t-1 -114v-668v-133.5t4 -102.5q4 -43 16.5 -72.5t40 -49t74.5 -32t121 -18.5v-14q-33 2 -79 4t-97.5 3t-100.5 2t-88 1 q-37 0 -84 -1t-95 -3t-94 -3t-79 -3v12q57 8 101 18.5t73 30t45.5 52t18.5 88.5q2 43 2 132v190.5v193.5v141t1 105.5t1 115v111.5t-2 96q-2 55 -19.5 88t-48.5 52.5t-75 29.5t-101 19z" />
<glyph unicode="j" horiz-adv-x="876" d="M25 -428q96 45 160.5 125t102.5 176t54 201.5t16 201.5v44t-1 87.5t-1 113t-1 124t-1 117.5v96v105.5v115v111.5t-2 96q-2 55 -18.5 88t-46 52.5t-73.5 29.5t-101 19v12q33 0 80 -1t97 -4t97 -5t82 -2q41 0 88 1t94 3t89 4t73 4v-14q-63 -6 -106 -17.5t-70 -32t-40 -53.5 t-15 -82q-2 -35 -3 -84t-1 -114q0 -158 -1.5 -261.5t-1.5 -166v-90v-33.5q0 -82 2.5 -159t2.5 -142q0 -131 -40 -243t-112 -199t-172 -148.5t-221 -93.5z" />
<glyph unicode="k" horiz-adv-x="1751" d="M117 1475v12q33 0 80 -1t97 -4t97 -5t82 -2q41 0 88 1t94 3t89 4t73 4v-14q-63 -6 -106 -17.5t-70 -32t-40 -53.5t-15 -82q-2 -35 -3 -84t-1 -114l-2 -367l2 -301q0 -66 -1 -134v-25q0 -49 3 -77q4 -43 16 -72.5t41 -49t76 -32t121 -18.5v-14q-33 2 -79 4t-97.5 3 t-100.5 2t-88 1q-37 0 -84 -1t-95 -3t-94 -3t-79 -3v12q57 8 101 18.5t74 30t45 52t17 88.5q2 43 2 132v190.5v193.5v141v105.5v115v111.5t-2 96q-2 55 -18 88t-46 52.5t-75 29.5t-102 19zM625 797q16 18 52 55t81 83t95 96l95 95l81 81t52 53q23 23 51.5 55.5t39 65t-10 57 t-96.5 30.5v19l332 -10l233 10v-19q-10 0 -28.5 -1t-39 -4t-41 -7t-34.5 -10q-47 -18 -113.5 -61.5t-132.5 -106.5q-23 -23 -80 -76t-120.5 -113.5t-122 -117t-82.5 -82.5q70 -104 156.5 -233.5t188 -261.5t216 -257t238.5 -222t257.5 -156.5t272.5 -59.5q96 0 179 20.5 t171 61.5l12 -14q-47 -43 -116.5 -76t-146.5 -54.5t-152.5 -32t-137.5 -10.5q-150 0 -285 57.5t-259.5 153t-236.5 219t-212 258t-189.5 267.5t-166.5 248z" />
<glyph unicode="l" horiz-adv-x="1366" d="M115 0v16q61 8 107 18.5t77 30t47 52.5t19 88q2 43 2 132v188.5v191.5v141v105.5v115t-1 111.5t-4 96q-2 55 -18 88t-46 52.5t-74 29.5t-101 19v12q33 0 80 -1t97 -4t97 -5t82 -2q41 0 88 1t94.5 3t89.5 4t72 4v-14q-63 -6 -106 -17.5t-69.5 -32t-40 -53.5t-15.5 -82 q-2 -35 -3 -84t-1 -114l-2 -414q0 -25 1 -72t1 -103.5t1 -113.5t1 -104q0 -41 9 -77t33 -62q25 -28 66 -42q36 -13 88 -12h15q39 0 67.5 1t53 2t47 3t53.5 4q53 4 93 15.5t73 37t59.5 72.5t52.5 121l17 -8l-55 -264q-6 -28 -24 -52q-16 -22 -68 -22h-9q-129 4 -255 8t-259 4 q-135 0 -266 -4t-266 -8z" />
<glyph unicode="m" horiz-adv-x="2164" d="M16 0v14q53 8 96.5 24.5t76 49.5t55 84t37.5 131l147 858q-14 33 -27 64l-20 50t-16 38q-37 78 -93.5 113.5t-134.5 46.5v14q20 -2 50 -3t62 -2t60.5 -1h48.5q53 0 103.5 1t87.5 5q63 -139 126.5 -288.5t128 -300t128 -300t125.5 -287.5q70 137 141.5 284.5t142 298 t141 300t140.5 293.5q16 -2 40 -3t49.5 -2t49 -2t39.5 -1q55 0 99.5 2t80.5 6v-14q-63 -6 -104 -17.5t-66.5 -32t-38 -53.5t-14.5 -82q0 -8 1 -29.5t3 -33.5q10 -98 24.5 -213t28 -224.5t24.5 -200.5t17 -141q6 -59 13 -112q4 -45 9 -87t9 -59q8 -43 19.5 -72.5t38 -49 t71.5 -31.5t119 -19v-16q-43 2 -92 5t-97.5 5t-94.5 3t-83 1q-96 0 -180 -4t-170 -10v14q57 8 98 18.5t68 30t40 52t15 88.5v15q0 30 -5 94q-7 80 -17 177t-21.5 193t-17.5 156q-2 27 -7 68.5t-10.5 83.5t-9.5 77t-4 47h-8q-57 -123 -90 -196.5t-56.5 -129t-48 -108.5 t-64.5 -136t-103.5 -212t-165.5 -334h-15q-119 264 -245.5 523t-243.5 523h-6l-29 -200q-12 -86 -27.5 -189.5t-31.5 -195.5q-12 -74 -22.5 -145.5t-12.5 -106.5v-13q0 -30 7 -56q9 -32 35.5 -56.5t74 -41.5t120.5 -24v-16q-47 4 -137 8t-182 4q-90 0 -161 -4t-118 -8z" />
<glyph unicode="n" horiz-adv-x="1921" d="M-723 1581q125 121 287 199t336 78q154 0 273.5 -55.5t230 -152t221 -230.5t245.5 -290q41 -47 93.5 -110.5t111 -134t119.5 -145t120.5 -146.5t113 -135.5t96.5 -112.5h2q4 0 4 4v61.5t-1 133.5t-2 164t-1 151v105.5v114t-1 110.5t-3 96q-2 55 -18.5 88t-46.5 52.5 t-74 29.5t-101 19v12q33 0 74 -1t83 -4t83 -5t75 -2q84 0 157 4t132 8v-14q-63 -6 -106 -17.5t-70 -32t-40 -53.5t-15 -82q-2 -35 -3 -84t-1 -114l-2 -367l-9 -674q0 -16 -1 -36.5t-1 -39.5v-43l-24 -6q-147 158 -297 335t-297.5 359.5t-293.5 361.5t-288 341q-2 -27 -2 -68 v-98l-2 -432l2 -301v-133.5t4 -102.5q4 -43 16.5 -72.5t40 -49t74.5 -32t121 -18.5v-14q-66 4 -148.5 7t-160.5 3q-72 0 -159 -3t-152 -7v12q57 8 101 18.5t73.5 30t45 52t17.5 88.5q2 43 3 142t1 213t-1 216t-1 152v113.5v146.5v146.5t-2 115.5q-88 84 -160.5 137t-139 83 t-131 40t-136.5 10q-117 0 -231.5 -39t-223.5 -104z" />
<glyph unicode="o" horiz-adv-x="1867" d="M119 737q0 147 54 287.5t158.5 250t258 177.5t352.5 68q174 0 321.5 -53.5t255 -151.5t168 -237.5t60.5 -313.5q0 -172 -61.5 -319.5t-172 -255t-262 -168t-329.5 -60.5q-184 0 -333 63.5t-253.5 170t-160.5 248t-56 294.5zM403 780q0 -158 42 -294t117 -237.5 t181.5 -158.5t235.5 -57q88 0 175 40t154.5 123t110.5 213t43 310q0 154 -41 287t-115.5 231t-179 155.5t-229.5 57.5q-106 0 -196.5 -46t-157 -132t-103.5 -211t-37 -281z" />
<glyph unicode="p" horiz-adv-x="1386" d="M129 0v12q57 8 101 18.5t73 30t45.5 52t18.5 88.5q2 43 2 132v190.5v193.5v141v104.5v113t-1 109.5t-3 95q-2 55 -16.5 88t-43.5 53.5t-72 30.5t-100 18v17q25 -2 61.5 -3t80.5 -2t93.5 -2t96.5 -1l293 8q86 0 180 -16.5t173 -60.5t131 -122t52 -201q0 -115 -54 -209 t-140 -159.5t-194 -98.5q-91 -29 -181 -29q-17 0 -33 1v18q82 8 152.5 35t121 75t79 115.5t28.5 157.5q0 84 -26.5 162t-76.5 137.5t-122 97t-160 42.5q-24 2 -45 2t-39 -2l-14 -27v-465l-2 -217l2 -301v-133.5t4 -102.5q4 -43 16.5 -72.5t40 -49t74.5 -32t121 -18.5v-14 q-33 2 -79 4t-97.5 3t-100.5 2t-88 1q-37 0 -84 -1t-95 -3t-94 -3t-79 -3z" />
<glyph unicode="q" horiz-adv-x="1904" d="M158 743q0 145 54 284.5t159.5 248t260 175.5t353.5 67q174 0 319.5 -55.5t252 -155t166 -236.5t59.5 -301q0 -117 -32 -217t-84 -183t-119.5 -148.5t-137.5 -110.5q109 -68 205 -127q41 -25 83 -50.5t81 -49t70.5 -41t54.5 -27.5q115 -57 212 -95t178 -60.5t147.5 -32 t119.5 -9.5q141 0 240.5 34t187.5 97q8 6 15.5 12.5t13.5 10.5l12 -13q-14 -14 -20 -18q-47 -43 -108.5 -87t-141.5 -80t-179.5 -57.5t-218.5 -21.5q-98 0 -187 15.5t-176 44t-175 72.5t-183 104q-33 20 -89 56t-116.5 76t-115.5 78t-86 60q-31 -10 -105.5 -19.5 t-154.5 -9.5q-158 0 -304.5 54.5t-260 155t-182 242.5t-68.5 318zM442 797q0 -102 27 -206t75 -197t117.5 -170t153.5 -125t181 -61q28 -4 55 -4q73 0 149 25q45 14 96.5 62.5t96.5 129.5t74.5 194.5t29.5 259.5q0 166 -43 303t-120 235t-180 152.5t-220 54.5 q-96 0 -185.5 -41t-157 -123t-108.5 -205t-41 -284z" />
<glyph unicode="r" horiz-adv-x="1589" d="M129 0v12q57 8 101 18.5t73 30t45.5 52t18.5 88.5q2 41 2 128v185v96.5t-1 98.5t-1 86v61v105.5v114v110.5t-2 96q-2 55 -16.5 88t-43.5 52.5t-72 29.5t-100 18v15q131 0 214 -4t134 -4l238 6q90 0 190.5 -16.5t185.5 -57.5t141 -113.5t56 -185.5q0 -63 -24.5 -121.5 t-66.5 -108t-97 -89t-117 -66.5q57 -104 125 -221t147.5 -231.5t173 -219t201 -184.5t229.5 -127t261 -47q70 0 136.5 14.5t131.5 36.5l12 -16q-41 -31 -100 -53.5t-123.5 -37t-128 -21.5t-113.5 -7q-152 0 -279.5 44t-236 119.5t-198.5 177t-169 216.5t-146.5 237.5 t-129.5 239.5q-29 -8 -82 -13q-29 -3 -60 -3q-24 0 -48 2v-117v-214t4 -114q4 -43 16.5 -72.5t40 -49t74.5 -32t121 -18.5v-14q-33 2 -79 4t-97.5 3t-100.5 2t-88 1q-37 0 -84 -1t-95 -3t-94 -3t-79 -3zM588 684q88 2 173 28.5t152.5 70.5t109.5 105.5t42 133.5 q0 106 -40 183t-104.5 126t-147.5 72.5t-169 23.5l-14 -20v-313l-2 -326v-84z" />
<glyph unicode="s" horiz-adv-x="1224" d="M147 129q8 76 12.5 141.5t8.5 155.5h14q16 -193 121 -289t270 -96q61 0 112.5 22.5t88.5 59.5t56.5 85t19.5 101q0 49 -12.5 87t-39 73t-69.5 72t-102 80q-72 51 -146.5 101t-135 108.5t-98.5 132t-38 174.5q0 80 32.5 148.5t93 118.5t145.5 79.5t190 29.5q37 0 82 -4 t91 -13t89 -24.5t76 -35.5q-1 -21 -1 -41q0 -53 4 -105q5 -74 9 -145l-19 -6q-14 94 -50 156.5t-83 99.5t-99 52t-97 15q-53 0 -99.5 -20.5t-80 -54t-53 -80.5t-19.5 -99q0 -43 14.5 -77.5t43 -67.5t68.5 -65.5t93 -69.5q72 -53 148.5 -104.5t141 -112t105.5 -133t41 -166.5 q0 -111 -44 -194t-116.5 -137t-167 -81t-194.5 -27q-111 0 -215.5 42t-190.5 114z" />
<glyph unicode="t" horiz-adv-x="1460" d="M-4 1208q0 6 12 60.5t29 120.5q18 74 43 167l12 13q16 -31 45 -47.5t60.5 -25.5t65.5 -12t59 -3l407 -11l469 11q72 2 115 7t69.5 15t39 23.5t22.5 32.5l16 -9l-65 -374l-17 4q1 16 1 31q0 97 -45 136q-52 44 -169 46l-334 4l-2 -883v-92v-133.5t5 -102.5q4 -43 16 -72.5 t40 -49t75 -32t120 -18.5v-14q-33 2 -78.5 4t-97 3t-100.5 2t-88 1q-37 0 -84 -1t-95 -3t-94.5 -3t-78.5 -3v12q57 8 101 18.5t73.5 30t45 52t17.5 88.5q2 41 3 128t1 185v524q0 59 -1 123t-1 117v119l-332 -4q-61 0 -99 -10.5t-64.5 -34t-49 -60.5t-53.5 -90z" />
<glyph unicode="u" horiz-adv-x="1810" d="M61 1473v12q33 0 80 -1t97.5 -4t97.5 -5t82 -2q41 0 88 1t94 3t89 4t73 4v-15q-63 -6 -106.5 -17t-70 -31.5t-40 -53.5t-15.5 -82q-2 -35 -3 -84t-1 -115l4 -442q0 -86 11.5 -167t36 -149.5t63.5 -123.5t96 -90q61 -39 128 -54.5t136 -15.5q82 0 158 32t127 85 q37 39 62.5 93t41 118.5t21.5 135.5t6 142l-4 361q-2 74 -3 147.5t-3 126.5q-2 55 -18.5 88t-46 52.5t-73.5 29.5t-102 19v12h30q54 0 119 -5q83 -7 152 -7q82 0 162 4t139 8v-14q-63 -6 -106 -17.5t-69.5 -32t-40 -53.5t-15.5 -82q-2 -35 -3 -84t-1 -114v-148 q0 -27 -1 -60.5t-1 -67.5v-62.5v-44.5v-19q0 -8 1 -18.5t1 -18.5q0 -82 -8 -161.5t-32 -152.5t-62.5 -135.5t-100.5 -111.5q-90 -72 -190.5 -98.5t-210.5 -26.5q-61 0 -125 6t-124 22.5t-115.5 44.5t-100.5 68q-139 121 -154 357q-4 39 -5 89t-2 104.5t-1 106.5v95v105.5 v114v110.5t-2 96q-2 55 -18.5 88t-46 52.5t-73.5 29.5t-102 19z" />
<glyph unicode="v" horiz-adv-x="1779" d="M4 1470v19q35 -2 81 -5t94 -5t94 -3t81 -1h51t84.5 2t100.5 4t100 8v-16q-23 -6 -49.5 -10.5t-48 -13.5t-35.5 -25.5t-14 -47.5q0 -25 10 -60.5t33 -88.5q14 -37 37.5 -95.5t51 -128t59.5 -146.5t63 -150q72 -174 153 -375q0 2 2 2t4 2q14 39 49 116.5t81.5 180 t99.5 225.5t106 250q18 45 37 87t31 77q14 41 14 72q0 43 -26 69q-45 45 -162 62v12q22 1 45 1q45 0 93 -5q72 -8 142 -8q82 0 166 5t144 9v-14q-74 -8 -125.5 -32t-88 -63t-64.5 -89t-54 -109l-563 -1200h-19q-125 291 -227 524q-43 100 -86 197.5t-79 178.5t-60.5 136 t-30.5 72q-8 18 -29.5 60t-45 86t-45 82t-30.5 48q-47 53 -97 73.5t-128 30.5z" />
<glyph unicode="w" horiz-adv-x="2506" d="M4 1470v19q35 -2 81 -5t94 -5t94 -3t81 -1h51t84.5 2t100.5 4t100 8v-16q-23 -6 -49.5 -10.5t-48 -13.5t-35.5 -25.5t-14 -47.5q0 -25 12 -59.5t29 -89.5l262 -846q0 2 2 2t4 2l338 803q-23 47 -50.5 96t-58.5 82q-47 53 -96 73.5t-127 30.5v19q35 -2 81 -5t94 -5 t94.5 -3t80.5 -1h51t84.5 2t100.5 4t100 8v-16q-23 -6 -49.5 -10.5t-48 -13.5t-35.5 -25.5t-14 -47.5q0 -25 11 -60.5t32 -88.5l317 -846q0 2 2 2q4 0 4 2q25 63 53.5 145t58.5 167t58.5 167t51.5 148q12 41 22 69q6 14 10 27q10 35 19 66l16 54t14 44q16 45 16 79 q0 38 -20 62q-37 45 -153 62v12q22 1 45 1q46 0 96 -5q76 -8 145 -8q82 0 165 5t143 9v-14q-74 -8 -126.5 -32t-89 -60.5t-63 -88t-51.5 -112.5l-82 -215q-31 -78 -62.5 -162t-62.5 -169t-60.5 -166t-56.5 -155q-63 -172 -120 -335h-19q-72 166 -149 348q-66 156 -149 348 t-167 389q-33 -76 -69.5 -163t-74.5 -177t-76 -181t-71 -173q-82 -195 -159 -391h-21l-397 1110q-16 47 -38 93t-43.5 83t-39.5 63.5t-27 36.5q-47 53 -97 73.5t-128 30.5z" />
<glyph unicode="x" horiz-adv-x="1480" d="M-39 -6v14q117 10 196 64.5t136 128.5q14 20 38.5 53t53.5 73t61.5 85t63.5 88q74 102 158 219q-51 82 -101 164q-41 70 -89 146.5t-83 137.5q-10 18 -29.5 47t-40 60t-39 56.5t-26.5 35.5q-47 51 -102.5 72.5t-134.5 31.5v19q35 -2 81 -5t95 -5t95 -3t81 -1h47t80 2 t97 4t99 8v-16q-25 -6 -49 -10.5t-45.5 -13.5t-35 -25.5t-13.5 -47.5q0 -25 20.5 -63.5t49.5 -85.5q27 -45 54.5 -94.5t54 -94.5t47 -81.5t32.5 -57.5q8 12 31.5 48t54.5 83t64.5 99.5t58.5 95.5q49 84 59 123q8 33 -1 55t-29.5 36.5t-47 22.5t-53.5 13v12q22 1 42 1 q41 0 75 -5q51 -8 121 -8q84 0 167 5t142 9v-14q-57 -6 -101 -27t-81 -51.5t-69 -68.5t-64 -81q-31 -41 -83 -113.5t-104 -142.5q-59 -82 -125 -176q59 -96 115 -188q47 -78 99.5 -164t89.5 -148q10 -16 28.5 -45.5t39 -60.5t38.5 -57.5t29 -36.5q47 -51 102 -71.5 t133 -33.5v-16q-35 2 -81 5t-94 5t-94 3t-81 1h-49t-80 -2t-96 -4t-99 -8v16q23 6 48.5 10.5t47 13.5t35 25.5t13.5 46.5q0 25 -20.5 64t-49.5 86q-27 43 -59.5 99.5t-65.5 110.5t-58.5 98t-35.5 65q-8 -12 -38 -55.5t-67.5 -98.5t-76.5 -114.5t-64 -102.5 q-27 -43 -41 -73.5t-18 -49.5q-8 -33 1 -55.5t28.5 -36.5t46 -22.5t53.5 -12.5v-14h-29q-49 0 -88 5q-51 7 -121 7q-41 0 -89 -1t-96 -3t-91 -4t-74 -4z" />
<glyph unicode="y" horiz-adv-x="1679" d="M-10 1491v14q79 11 150 11q104 0 191 -23q148 -39 256.5 -128t181.5 -219t114 -284q31 115 89 238t151.5 220t229.5 152q99 41 225 41q47 0 99 -6v-14q-29 3 -57 3q-99 0 -180 -34q-105 -43 -185.5 -122.5t-138 -189.5t-93.5 -230.5t-53.5 -243.5t-17.5 -230 q0 -66 -2 -130v-32q0 -48 4 -98q4 -43 16.5 -72.5t41 -49t76 -32t120.5 -18.5v-14q-33 2 -79 4t-97 3t-100 2t-88 1q-37 0 -84 -1t-96.5 -3t-94.5 -3t-77 -3v12q57 8 101 18.5t73.5 30t45 52t19.5 88.5q3 55 3 99q0 22 -1 41q-2 58 -2 118q-2 88 -20.5 199.5t-57.5 228.5 t-98 227.5t-141 196.5t-188 136q-94 45 -208 45q-14 0 -28 -1z" />
<glyph unicode="z" horiz-adv-x="1425" d="M68 20q2 -4 42 53.5t105.5 153t148 219t168.5 252.5q203 303 461 693l-258 6l-303 -4q-66 0 -105.5 -10.5t-67.5 -34t-51.5 -60.5t-53.5 -90l-15 10q0 6 12.5 60.5t28.5 120.5q18 74 43 167l13 13q16 -31 44.5 -47.5t60.5 -23.5t65.5 -9t58.5 -2l373 -4l479 4l12 -14 l-936 -1375q137 -4 247 -6q55 -1 100.5 -1t80.5 1l279 6q66 2 104.5 12.5t65 33t49 59.5t53.5 90l14 -10q0 -6 -14 -61.5t-29 -119.5q-20 -76 -43 -168l-12 -12q-16 31 -43.5 46.5t-59.5 22.5t-66 8t-58 1l-375 8q-57 2 -131 3q-37 0 -75 1q-38 0 -78 -1q-80 -1 -163 -3 t-159 -8z" />
<glyph unicode="{" horiz-adv-x="741" d="M92 729v45q137 16 182 94t35 201q0 10 -2 40t-4 60.5t-3 56t-1 29.5q0 154 84 238q84 80 254 92l2 -41q-66 -14 -113 -48t-63 -81q-14 -43 -13 -96t6 -107.5t9 -106.5t-4 -95q-16 -86 -69.5 -160t-139.5 -96v-2q57 -18 96 -48t63.5 -70t37 -88t16.5 -102q8 -76 -3 -159.5 t-11 -157.5q0 -59 9 -100t36 -66q25 -25 59.5 -39t87.5 -20v-37q-72 8 -139.5 23.5t-120.5 68.5q-84 84 -84 236l20 311q0 115 -60 165t-167 60z" />
<glyph unicode="|" horiz-adv-x="907" d="M387 -150l2 1764q0 4 6 6t11 2h79q6 0 7 -18v-1762q0 -6 -6.5 -7t-10.5 -3h-78q-10 0 -10 18z" />
<glyph unicode="}" horiz-adv-x="741" d="M109 -98q53 6 87.5 20.5t59.5 38.5q27 25 36 66t9 100q0 74 -11 158t-3 159q4 53 16 101.5t37 88.5t62.5 69.5t97.5 48.5v2q-86 23 -139.5 96.5t-69.5 159.5q-8 43 -4 95t9 106.5t6 107.5t-13 96q-16 47 -63.5 81t-112.5 48l2 41q170 -12 254 -92q84 -84 84 -238 q0 -4 -1 -29.5t-3.5 -56t-4.5 -60.5t-2 -40q-10 -123 35 -200.5t182 -94.5v-45q-109 -10 -168 -60.5t-59 -164.5l21 -311q0 -152 -84 -236q-53 -53 -121 -68.5t-139 -23.5v37z" />
<glyph unicode="~" horiz-adv-x="1439" d="M248 803q8 31 28.5 67.5t61.5 68.5t103.5 54.5t154.5 22.5q45 0 98.5 -12.5t104.5 -26.5t94 -26.5t70 -12.5q47 0 94 17.5t63 66.5h90q-8 -66 -45 -107t-86 -64.5t-100 -32.5t-88 -9q-84 0 -137.5 12.5t-95.5 27.5t-85 27.5t-104 12.5q-59 0 -88 -25.5t-39 -60.5h-94z " />
<glyph unicode="&#xa1;" horiz-adv-x="686" d="M225 55l131 1106h17l125 -1044l-197 -131zM244 1409q0 53 33.5 92t93.5 39q66 0 94.5 -41t28.5 -84q0 -18 -7.5 -40.5t-22.5 -41t-39 -31t-56 -12.5q-53 0 -89 33t-36 86z" />
<glyph unicode="&#xa2;" d="M109 754q0 182 79.5 323.5t205.5 238.5t283 148.5t310 51.5h31q16 98 27.5 156.5t11.5 62.5q0 23 8 14l55 -8q4 0 8.5 -4t4.5 -8l-41 -218q72 -4 160.5 -19t177.5 -52l63 -332l-25 -4q-35 125 -136 216t-255 118q-27 -141 -60.5 -322.5t-68.5 -369t-67.5 -363.5 t-57.5 -307q111 -47 217 -47q76 0 148 21.5t133 64.5t109.5 107.5t78.5 148.5l15 -17l-99 -323q-49 -23 -113.5 -35t-125 -18.5t-105.5 -8.5t-57 -2q-113 0 -217 19q-10 -49 -16.5 -84t-10.5 -56q-6 -41 -11 -66.5t-5 -27.5q-2 -16 -8 -16l-58 10q-4 2 -8 5t-4 7q2 12 6 29 q4 14 8.5 34.5t8.5 47.5q4 18 10 52t14 79q-133 33 -246.5 96.5t-197.5 157.5t-132 219t-48 281zM385 799q0 -125 28.5 -232.5t79 -194.5t118 -153.5t143.5 -109.5q16 88 36.5 195.5t43 226t45 241.5t45 242t43 228.5t37.5 201.5l-31 2q-133 0 -240.5 -51.5t-185.5 -139.5 t-120 -205.5t-42 -250.5z" />
<glyph unicode="&#xa3;" horiz-adv-x="1234" d="M117 -10q0 2 5 13t21 28q61 68 101.5 128t64 127.5t32.5 151.5t9 203v59h-211l13 84h198q-2 18 -1 34t1 24q0 285 131 469q37 53 85 89t99.5 58.5t103.5 31.5t99 9q53 0 123 -20.5t127 -79.5q8 -10 9 -27.5t-3 -38t-12 -41t-14 -35.5q-6 -12 -21.5 -32.5t-34.5 -20.5 q-14 0 -22 21q-16 31 -45 61.5t-62.5 54t-70.5 39t-74 15.5q-84 0 -122 -56.5t-52 -135.5t-11 -163t3 -141v-115h461l-13 -84h-448v-45q0 -82 -18.5 -161.5t-51.5 -150.5t-79 -127t-99 -93q59 23 99 32t85 9q43 0 92.5 -3t126.5 -9q156 -12 224 -13q43 0 78.5 20.5 t63.5 50.5t47.5 62.5t31.5 57.5l16 -8q-29 -59 -61.5 -133t-57.5 -132q-16 -39 -34.5 -51t-59.5 -12q-16 0 -75.5 4t-141.5 12t-154.5 12.5t-136.5 4.5q-104 0 -192 -14.5t-129 -43.5q-10 -8 -17 -8q-27 0 -26 29z" />
<glyph unicode="&#xa5;" horiz-adv-x="1519" d="M-20 1470v19q35 -2 80.5 -5t95 -5t95.5 -3t81 -1h47t80 2t97 4t99 8v-16q-25 -6 -49 -10.5t-45.5 -13.5t-35 -25.5t-13.5 -47.5q0 -25 20.5 -63.5t49.5 -85.5q16 -29 40.5 -73t52 -93t55.5 -99.5t51.5 -94.5t41 -77.5t25.5 -46.5q55 102 108 197q20 39 44 81t44.5 80 t38 69.5t27.5 54.5q23 45 39 74.5t20 48.5q8 33 -1 55t-29.5 36.5t-47 22.5t-53.5 13v12q33 2 59.5 0t51.5 -5t51.5 -5t61.5 -2q84 0 166.5 5t142.5 9v-14q-115 -12 -188.5 -75t-127.5 -153q-18 -29 -45.5 -77t-61.5 -104t-70 -116.5t-68 -115.5h331l-12 -70h-358l-68 -113 v-84h438l-12 -69h-426v-76v-133.5t4 -102.5q4 -43 16.5 -72.5t40 -49t74.5 -32t121 -18.5v-14q-33 2 -79 4t-97 3t-100 2t-88 1q-37 0 -84 -1t-95.5 -3t-94.5 -3t-79 -3v12q57 8 101.5 18.5t73 30t45 52t18.5 88.5q0 14 1 46t1 72.5v88v90.5h-438l12 69h426v17 q-14 23 -31 51q-14 25 -31.5 57.5t-39.5 71.5h-336l12 70h283q-53 92 -106.5 183t-88.5 150q-10 16 -27.5 46t-37 60t-37 56.5t-25.5 36.5q-47 51 -102.5 72.5t-134.5 31.5z" />
<glyph unicode="&#xa7;" horiz-adv-x="1026" d="M152 846q0 41 14 84t36.5 83t51.5 75.5t57 62.5q-18 37 -29.5 65.5t-15.5 59.5q-25 168 109 285q129 113 297 75q29 -6 54.5 -15t35.5 -30q2 -4 -5 -24.5t-18.5 -43t-26 -40t-26.5 -17.5q-8 0 -18.5 3.5t-38.5 19.5q-35 12 -75 25.5t-69 13.5q-39 0 -60.5 -17.5 t-30.5 -43t-8 -57.5t11 -58q20 -57 85 -127t151 -168q35 -37 53 -60q47 -55 90 -116.5t69.5 -129t29 -139t-32.5 -145.5q-16 -35 -54 -74t-79 -71q31 -47 51 -100.5t20 -110.5q0 -68 -31.5 -132.5t-86.5 -117.5q-53 -53 -117 -83t-129 -30q-59 0 -126 21.5t-106 66.5 q-6 6 5.5 27.5t27.5 44t33.5 40t23.5 17.5q25 -4 48.5 -29.5t46.5 -37.5q55 -33 83.5 -35t57.5 -2q72 0 98.5 39t26.5 104q0 66 -41 149t-154 205q-8 8 -11 11.5t-4 5.5t-5 5t-12 11q-74 78 -123 141.5t-79 118t-42 101.5t-12 94zM266 961q0 -80 75 -187.5t212 -261.5 q57 -63 84 -95t43 -52q14 12 25.5 26.5t19.5 30.5q14 31 14 78q0 39 -15 84t-52 104.5t-97.5 137t-148.5 184.5q-23 29 -44.5 53t-39.5 47q-35 -31 -55.5 -66.5t-20.5 -82.5z" />
<glyph unicode="&#xa8;" horiz-adv-x="1548" d="M426 1704q0 43 31.5 73.5t74.5 30.5t75 -30.5t32 -73.5q0 -45 -30.5 -76t-76.5 -31q-45 0 -75.5 31t-30.5 76zM778 1702q0 45 32 75.5t75 30.5q45 0 74.5 -30.5t29.5 -75.5q0 -43 -29.5 -75t-74.5 -32q-43 0 -75 32t-32 75z" />
<glyph unicode="&#xa9;" horiz-adv-x="1609" d="M98 678q0 147 56.5 276t152.5 224.5t225.5 150.5t274.5 55q147 0 275 -56t223.5 -152.5t150.5 -225.5t55 -272q0 -147 -56 -276.5t-152.5 -224.5t-224.5 -150.5t-273 -55.5q-147 0 -276.5 56.5t-224.5 152.5t-150.5 224t-55.5 274zM186 678q0 -129 49.5 -241.5 t133.5 -197.5t196.5 -133.5t239.5 -48.5q129 0 241.5 49.5t196.5 134.5t132 197.5t48 239.5q0 129 -49 242.5t-133 197.5t-195.5 133t-238.5 49q-129 0 -242.5 -50t-197.5 -135t-132.5 -197.5t-48.5 -239.5zM381 659q0 100 39 178t104.5 130.5t149.5 79t176 26.5 q72 0 120 -9t70 -13q23 -2 40.5 -1t33.5 7l19 -8l-15 -205l-28 2q-10 49 -34 82t-56.5 52t-73.5 27.5t-84 8.5q-70 0 -124 -31t-92 -79t-58.5 -106.5t-20.5 -113.5q0 -98 29.5 -170t76.5 -120t105.5 -70.5t118.5 -22.5q61 0 104 11.5t76 43.5q20 20 32.5 46t22.5 55l29 -13 l-56 -172q-29 -12 -63.5 -19t-67 -11t-56.5 -5t-30 -1q-98 0 -186 26.5t-154.5 78.5t-106.5 131t-40 185z" />
<glyph unicode="&#xaa;" horiz-adv-x="929" d="M-76 610v8q41 6 68.5 19.5t47 34t33 47t27.5 61.5l316 697h26l324 -701q12 -27 27.5 -53.5t37 -49t49 -37.5t60.5 -18l2 -8l-190 8q-33 0 -67 -1t-67 -3q-25 -2 -53 -3t-43 -1v8q59 10 81 40t5 75q-10 25 -22.5 56.5t-24.5 60.5q-14 33 -29 68l-133 2l-131 2 q-16 -41 -28 -76q-10 -29 -20.5 -56.5t-14.5 -35.5q-6 -16 -11.5 -34t-5.5 -26q0 -25 30 -48t61 -28v-8q-4 0 -34 1t-57 3t-51 3t-33 1h-10t-20 -2q-16 0 -39 -1t-44.5 -2t-40 -2t-26.5 -1zM297 985l98 -2l115 2l-113 250q-27 -66 -49 -125t-51 -125z" />
<glyph unicode="&#xab;" horiz-adv-x="1024" d="M121 385l391 375l57 -47l-221 -330l199 -317l-51 -54zM469 385l391 375l58 -47l-222 -330l201 -317l-53 -54z" />
<glyph unicode="&#xac;" horiz-adv-x="1024" d="M0 631v123h1004v-531h-125v408h-879z" />
<glyph unicode="&#xad;" horiz-adv-x="772" d="M86 565v152l598 2v-154h-598z" />
<glyph unicode="&#xae;" horiz-adv-x="1609" d="M98 678q0 147 56.5 276t152.5 224.5t225.5 150.5t274.5 55q147 0 275 -56t223.5 -152.5t150.5 -225.5t55 -272q0 -147 -56 -276.5t-152.5 -224.5t-224.5 -150.5t-273 -55.5q-147 0 -276.5 56.5t-224.5 152.5t-150.5 224t-55.5 274zM186 678q0 -129 49.5 -241.5 t133.5 -197.5t196.5 -133.5t239.5 -48.5q129 0 241.5 49.5t196.5 134.5t132 197.5t48 239.5q0 129 -49 242.5t-133 197.5t-195.5 133t-238.5 49q-129 0 -242.5 -50t-197.5 -135t-132.5 -197.5t-48.5 -239.5zM465 1053v30h240q51 0 112.5 -4t114.5 -23.5t89 -58.5t36 -108 q0 -63 -38 -107.5t-93 -79.5q16 -51 53 -115.5t85 -121.5t102.5 -98t105.5 -48v-32q-106 2 -181 34.5t-128.5 84t-89 115.5t-64.5 132q-18 -4 -44 -7t-50 -1v-96v-62.5t2 -44.5q2 -18 6 -31.5t17.5 -22.5t36 -15t61.5 -8v-33h-371v30q63 10 87 24.5t26 64.5q0 20 1 62t1 90 v92v69v103.5t-2 97.5q-2 49 -27 63t-88 25zM713 688q41 2 78.5 15.5t66.5 34t46.5 48t17.5 60.5q0 49 -17.5 84t-46.5 55.5t-65.5 30.5t-75.5 10l-2 -4v-154l-2 -147v-33z" />
<glyph unicode="&#xaf;" horiz-adv-x="1548" d="M397 1628l21 123h614l-20 -123h-615z" />
<glyph unicode="&#xb0;" horiz-adv-x="1013" d="M199 1358q0 61 22.5 115.5t62.5 94.5t94 62.5t116 22.5q61 0 115.5 -21.5t94 -61.5t62 -94.5t22.5 -117.5q0 -61 -22.5 -115.5t-62 -94.5t-93 -62.5t-114.5 -22.5h-2q-61 0 -115.5 22.5t-94.5 62.5t-62.5 94t-22.5 116zM319 1350q2 -72 52.5 -120t122.5 -48q41 0 73.5 16 t56 41t36 56.5t12.5 62.5q0 74 -51.5 126t-124.5 52q-78 -2 -129.5 -54t-47.5 -132z" />
<glyph unicode="&#xb1;" horiz-adv-x="1439" d="M285 10v146l835 6v-148zM285 627v139h352v379h139v-379h348v-139h-348v-377h-139v377h-352z" />
<glyph unicode="&#xb4;" horiz-adv-x="1548" d="M672 1620l305 352l156 -47l-27 -90l-414 -238z" />
<glyph unicode="&#xb5;" horiz-adv-x="2164" d="M16 0v14q53 8 96.5 24.5t76 49.5t55 84t37.5 131l147 858q-14 33 -27 64l-20 50t-16 38q-37 78 -93.5 113.5t-134.5 46.5v14q20 -2 50 -3t62 -2t60.5 -1h48.5q53 0 103.5 1t87.5 5q63 -139 126.5 -288.5t128 -300t128 -300t125.5 -287.5q70 137 141.5 284.5t142 298 t141 300t140.5 293.5q16 -2 40 -3t49.5 -2t49 -2t39.5 -1q55 0 99.5 2t80.5 6v-14q-63 -6 -104 -17.5t-66.5 -32t-38 -53.5t-14.5 -82q0 -8 1 -29.5t3 -33.5q10 -98 24.5 -213t28 -224.5t24.5 -200.5t17 -141q6 -59 13 -112q4 -45 9 -87t9 -59q8 -43 19.5 -72.5t38 -49 t71.5 -31.5t119 -19v-16q-43 2 -92 5t-97.5 5t-94.5 3t-83 1q-96 0 -180 -4t-170 -10v14q57 8 98 18.5t68 30t40 52t15 88.5q2 29 -5 109.5t-17 177t-21.5 192.5t-17.5 156q-2 27 -7 68.5t-10.5 83.5t-9.5 77t-4 47h-8q-57 -123 -90 -196.5t-56.5 -129t-48 -108.5 t-64.5 -136t-103.5 -212t-165.5 -334h-15q-119 264 -245.5 523t-243.5 523h-6l-29 -200q-12 -86 -27.5 -189.5t-31.5 -195.5q-12 -74 -22.5 -145.5t-12.5 -106.5q-2 -37 7 -69t35.5 -56.5t74 -41.5t120.5 -24v-16q-47 4 -137 8t-182 4q-90 0 -161 -4t-118 -8z" />
<glyph unicode="&#xb6;" horiz-adv-x="1386" d="M319 973q0 145 53.5 242.5t141.5 156t204 83t243 24.5q47 0 96 1t93 2t81 2t61 3v-17q-59 -8 -101 -18t-70.5 -30.5t-43 -53.5t-16.5 -88q-2 -43 -3 -95t-1 -109.5v-113v-104.5v-412q0 -131 -40 -251.5t-111.5 -220t-172 -170t-221.5 -103.5l-10 18q195 92 278.5 267.5 t83.5 423.5v137q-96 0 -193.5 27.5t-175 82t-127 134t-49.5 182.5z" />
<glyph unicode="&#xb7;" horiz-adv-x="559" d="M143 938q0 18 7.5 40.5t22.5 41t39 31t56 12.5q53 0 89 -33t36 -86t-33.5 -92t-93.5 -39q-66 0 -94.5 41t-28.5 84z" />
<glyph unicode="&#xb8;" d="M813 -367l16 35q31 -20 83.5 -37.5t105.5 -17.5q31 0 50 10t31.5 25.5t16.5 34t4 32.5q0 51 -49 74t-108 12l-2 193h63v-105q10 2 22.5 3.5t24.5 1.5q35 0 65.5 -12.5t53 -34t36 -51t13.5 -62.5q0 -70 -58.5 -120t-150.5 -50q-66 0 -115 19.5t-102 49.5z" />
<glyph unicode="&#xba;" horiz-adv-x="1058" d="M37 1051q0 82 32.5 160.5t95 140t156 98.5t214.5 37q104 0 194 -30t154.5 -85t101.5 -133t37 -174t-38 -178t-104.5 -141.5t-157.5 -93.5t-200 -34q-111 0 -201 35t-152.5 94.5t-97 138.5t-34.5 165zM231 1075q0 -82 24 -153.5t67 -124t102 -82t133 -29.5q49 0 97 20.5 t86 63.5t61.5 110.5t23.5 159.5q0 80 -23.5 150t-64.5 120t-100 79.5t-129 29.5q-119 0 -198 -90t-79 -254z" />
<glyph unicode="&#xbb;" horiz-adv-x="1024" d="M96 713l56 47l393 -375l-377 -373l-51 54l198 317zM444 713l56 47l393 -375l-377 -373l-51 54l199 317z" />
<glyph unicode="&#x401;" horiz-adv-x="1345" d="M125 1470v17q45 -4 110.5 -6t135 -4t135 -2h112.5l306 2h89t65.5 5t46 17t32.5 37l14 -10q-12 -47 -15 -96.5t-7 -71.5q-2 -23 -4 -50.5t-3 -56t-2 -54.5t-1 -42h-19q-10 115 -69.5 178.5t-182.5 67.5l-106 2h-180v-586h80t118 2q72 0 156 2q41 0 66.5 9.5t42 24.5 t26.5 36.5t21 50.5q4 0 8 -4l4 -4q-4 -20 -7 -46t-6.5 -52.5t-5.5 -50t-2 -37.5v-50.5t1 -54.5t1 -49.5v-34.5l-18 2q-2 27 -7 57.5t-20.5 56t-45 43t-79.5 17.5l-333 6v-178l2 -280q0 -55 10 -95.5t35.5 -66t70.5 -36.5t117 -9q31 0 47.5 1t30.5 2t28.5 2t41.5 5 q45 6 82.5 19.5t69.5 42t60.5 76.5t55.5 122l16 -8l-71 -287q-8 -29 -19.5 -40t-40.5 -11q-111 2 -225.5 6t-265.5 4q-98 0 -232.5 -4t-265.5 -6v16q57 8 99 18.5t70 30t42 52.5t16 88q2 43 2 132v188.5v191.5v141v105.5v113t-1 109.5t-3 96q-2 55 -16 88t-42 52.5t-71 29.5 t-100 18zM393 1704q0 43 32 73.5t75 30.5t74.5 -30.5t31.5 -73.5q0 -45 -30.5 -76t-75.5 -31t-76 31t-31 76zM745 1702q0 45 32 75.5t75 30.5q45 0 74.5 -30.5t29.5 -75.5q0 -43 -29.5 -75t-74.5 -32q-43 0 -75 32t-32 75z" />
<glyph unicode="&#x402;" horiz-adv-x="1857" d="M23 1208q0 6 12 60.5t28 120.5q18 74 43 167l17 9q16 -31 44 -47.5t59.5 -24.5t64.5 -10t57 -2l408 -11l469 11q72 2 114.5 7t69.5 15t39 23.5t22 32.5l17 -9l-66 -374l-16 4q8 123 -44 167t-169 46l-361 4q-2 -80 -2 -166v-352q100 53 215 84.5t226 31.5q94 0 178 -25.5 t147.5 -84t101.5 -151.5t38 -226q0 -106 -32 -214t-95.5 -208t-155.5 -190.5t-211 -159.5l-10 18q86 76 136 176.5t74.5 198.5t32 182t7.5 127q0 125 -25.5 210t-71 137.5t-106.5 75t-131 22.5q-72 0 -152 -19.5t-166 -52.5v-389v-133.5t5 -102.5q4 -43 16 -72.5t40 -49 t75 -32t120 -18.5v-14q-33 2 -78.5 4t-97 3t-100.5 2t-88 1q-37 0 -84 -1t-95 -3t-94.5 -3t-78.5 -3v12q57 8 101 18.5t73.5 30t45 52t17.5 88.5q2 41 3 128t1 185v524q0 59 -1 123t-1 117v119l-305 -4q-61 0 -99 -10.5t-64.5 -34t-49 -60.5t-53.5 -90z" />
<glyph unicode="&#x403;" horiz-adv-x="1335" d="M119 0v12q57 8 101 18.5t73 30t45 52t18 88.5q0 20 1 54t1 77v92v98v336v105.5v113t-1 109.5t-3 96q-2 55 -16 88t-42 52.5t-71 29.5t-100 18v17q45 -4 110.5 -6t135 -4t135 -2h112.5l295 2h94.5t66 4t44 17t27.5 38l16 -10q-12 -47 -15 -96.5t-7 -71.5q-2 -23 -4 -50.5 t-3.5 -56t-2.5 -54.5t-1 -42h-18q-10 115 -69.5 179.5t-182.5 66.5l-137 2h-139q0 -137 -1 -230.5t-1 -156v-100v-65.5v-52.5v-59v-87v-134.5v-96v-133.5t4 -102.5q4 -43 16 -72.5t40 -49t75 -32t121 -18.5v-14q-33 2 -79 4t-97.5 3t-100.5 2t-88 1q-37 0 -84 -1t-95 -3 t-94 -3t-79 -3zM547 1610l305 352l156 -47l-27 -90l-414 -238z" />
<glyph unicode="&#x404;" d="M109 754q0 182 79.5 323.5t205.5 238.5t283 148.5t310 51.5q27 0 75 -1.5t108.5 -9.5t127 -23.5t132.5 -41.5l63 -332l-25 -4q-18 74 -62 136.5t-107.5 108.5t-146.5 71.5t-179 25.5q-129 0 -236.5 -49t-184.5 -135t-121 -201t-46 -244h112.5t159.5 2q96 0 207 2 q41 0 66.5 9.5t42 24.5t27 36.5t20.5 50.5q4 0 8 -4l4 -4q-4 -20 -7 -46t-6 -52.5t-5 -50t-2 -37.5v-50.5t1 -54.5t1 -49.5v-34.5l-19 2q-2 27 -7 57.5t-20.5 56t-45 43t-78.5 17.5l-457 6q10 -168 72.5 -300t155 -224t205 -140t220.5 -48q76 0 148 21.5t133 64.5 t109.5 107.5t78.5 148.5l15 -17l-99 -323q-49 -23 -113.5 -35t-125 -18.5t-105.5 -8.5t-57 -2q-182 0 -347 49.5t-292 147.5t-201.5 245.5t-74.5 344.5z" />
<glyph unicode="&#x405;" horiz-adv-x="1224" d="M147 129q8 76 12.5 141.5t8.5 155.5h14q16 -193 121 -289t270 -96q61 0 112.5 22.5t88.5 59.5t56.5 85t19.5 101q0 49 -12.5 87t-39 73t-69.5 72t-102 80q-72 51 -146.5 101t-135 108.5t-98.5 132t-38 174.5q0 80 32.5 148.5t93 118.5t145.5 79.5t190 29.5q37 0 82 -4 t91 -13t89 -24.5t76 -35.5q-2 -72 3 -145.5t9 -145.5l-19 -6q-14 94 -50 156.5t-83 99.5t-99 52t-97 15q-53 0 -99.5 -20.5t-80 -54t-53 -80.5t-19.5 -99q0 -43 14.5 -77.5t43 -67.5t68.5 -65.5t93 -69.5q72 -53 148.5 -104.5t141 -112t105.5 -133t41 -166.5 q0 -111 -44 -194t-116.5 -137t-167 -81t-194.5 -27q-111 0 -215.5 42t-190.5 114z" />
<glyph unicode="&#x406;" horiz-adv-x="956" d="M125 1475v12q33 0 80 -1t97 -4t97 -5t82 -2q41 0 88 1t94.5 3t89.5 4t72 4v-14q-63 -6 -106 -17.5t-69.5 -32t-40 -53.5t-15.5 -82q-2 -35 -3 -84t-1 -114l-2 -367l2 -301v-133.5t4 -102.5q4 -43 16.5 -72.5t40 -49t74.5 -32t121 -18.5v-14q-33 2 -79 4t-97.5 3t-100.5 2 t-88 1q-37 0 -84 -1t-95 -3t-94 -3t-79 -3v12q57 8 101 18.5t73 30t45.5 52t18.5 88.5q2 43 2 132v190.5v193.5v141v105.5v115t-1 111.5t-3 96q-2 55 -18.5 88t-46.5 52.5t-74 29.5t-101 19z" />
<glyph unicode="&#x407;" horiz-adv-x="956" d="M125 1475v12q33 0 80 -1t97 -4t97 -5t82 -2q41 0 88 1t94.5 3t89.5 4t72 4v-14q-63 -6 -106 -17.5t-69.5 -32t-40 -53.5t-15.5 -82q-2 -35 -3 -84t-1 -114l-2 -367l2 -301v-133.5t4 -102.5q4 -43 16.5 -72.5t40 -49t74.5 -32t121 -18.5v-14q-33 2 -79 4t-97.5 3t-100.5 2 t-88 1q-37 0 -84 -1t-95 -3t-94 -3t-79 -3v12q57 8 101 18.5t73 30t45.5 52t18.5 88.5q2 43 2 132v190.5v193.5v141v105.5v115t-1 111.5t-3 96q-2 55 -18.5 88t-46.5 52.5t-74 29.5t-101 19zM199 1716q0 43 31.5 74t74.5 31t75 -31t32 -74q0 -45 -31 -75.5t-76 -30.5 t-75.5 30.5t-30.5 75.5zM551 1714q0 45 31.5 76t74.5 31q45 0 75 -31t30 -76q0 -43 -30 -74.5t-75 -31.5q-43 0 -74.5 31.5t-31.5 74.5z" />
<glyph unicode="&#x408;" horiz-adv-x="876" d="M25 -428q96 45 160.5 125t102.5 176t54 201.5t16 201.5v44t-1 87.5t-1 113t-1 124t-1 117.5v96v105.5v115v111.5t-2 96q-2 55 -18.5 88t-46 52.5t-73.5 29.5t-101 19v12q33 0 80 -1t97 -4t97 -5t82 -2q41 0 88 1t94 3t89 4t73 4v-14q-63 -6 -106 -17.5t-70 -32t-40 -53.5 t-15 -82q-2 -35 -3 -84t-1 -114l-3 -388v-37.5v-51v-47v-27.5q0 -82 2.5 -159t2.5 -142q0 -131 -40 -243t-112 -199t-172 -148.5t-221 -93.5z" />
<glyph unicode="&#x409;" horiz-adv-x="2244" d="M66 100q0 18 6 43t21.5 46.5t44 37t71.5 15.5q51 0 82 -23.5t55.5 -46t47 -32t59.5 19.5q51 39 85.5 111.5t58.5 168t39 208t28 233.5q10 98 19 207.5t5 195.5q-2 55 -19.5 88t-49 51.5t-77.5 28.5t-104 18v17q39 -4 72 -7t61.5 -5t58 -3.5t64.5 -1.5l312 3l272 4 q41 0 91 3t100.5 6t95.5 6l75 5v-14q-63 -6 -106 -17.5t-70.5 -32t-41 -53t-15.5 -82.5q0 -14 -1 -56t-1 -104.5v-142.5v-170q47 2 98 5.5t101 7.5q98 6 196 -16.5t177 -74t127 -130t48 -185.5q0 -121 -49 -211t-133 -145.5t-195.5 -74.5t-238.5 -3q-61 8 -125.5 10 t-112.5 2q-37 0 -84 -1t-95 -3t-94 -3t-79 -3v12q57 8 101.5 18.5t73 30t45 52t18.5 88.5q2 43 2 132v190.5v193.5v141v201.5t-4 189.5q-4 68 -41 111t-135 43q-104 0 -155.5 -47t-59.5 -142l-35 -391q-18 -176 -53 -332.5t-94.5 -275.5t-147.5 -188.5t-215 -69.5 q-33 0 -66 8t-58.5 25.5t-40.5 45t-15 64.5zM1405 723l2 -301v-133.5t4 -102.5q6 -76 43 -117.5t143 -43.5q76 -2 136.5 29.5t101.5 86t63.5 125t22.5 146.5q0 82 -26.5 150.5t-78 118.5t-123 77.5t-161.5 27.5h-127v-63z" />
<glyph unicode="&#x40a;" horiz-adv-x="2357" d="M135 1475v12q33 0 80 -1t97 -4t97.5 -5t82.5 -2q41 0 88 1t94 3t89 4t73 4v-14q-63 -6 -106.5 -17.5t-70 -32t-40 -53.5t-15.5 -82q-2 -35 -3 -84t-1 -114l-2 -269q186 -10 370.5 -11t370.5 9v39v105.5v115t-1 111.5t-3 96q-2 55 -18.5 88t-46 52.5t-73.5 29.5t-101 19 v12q33 0 80 -1t97 -4t97 -5t82 -2q41 0 88 1t94 3t89 4t73 4v-14q-63 -6 -106 -17.5t-70 -32t-40 -53.5t-15 -82q-2 -35 -3 -84t-1 -114l-2 -265q47 2 98 5.5t100 7.5q98 6 196.5 -16.5t177.5 -74t127 -130t48 -185.5q0 -121 -49 -211t-133 -145.5t-195.5 -74.5t-238.5 -3 q-61 8 -126 10t-112 2q-37 0 -84 -1t-95 -3t-94 -3t-79 -3v12q57 8 101 18.5t73 30t45 52t18 88.5q0 35 1 101.5t1 144v157.5v146q-186 10 -369.5 4t-371.5 -6v-95l2 -231v-133.5t4 -102.5q4 -43 16.5 -72.5t40 -49t74.5 -32t121 -18.5v-14q-33 2 -79 4t-97 3t-100.5 2 t-87.5 1q-37 0 -84.5 -1t-95.5 -3t-94 -3t-79 -3v12q57 8 101.5 18.5t73 30t45 52t18.5 88.5q2 43 2 132v190.5v193.5v141v105.5v115t-1 111.5t-3 96q-2 55 -18.5 88t-46 52.5t-73.5 29.5t-102 19zM1559 723l2 -301v-133.5t4 -102.5q6 -76 43 -117.5t143 -43.5 q76 -2 136.5 29.5t101.5 86t63.5 125t22.5 146.5q0 82 -27 149.5t-78 114.5t-122.5 73.5t-161.5 26.5l-127 -10v-43z" />
<glyph unicode="&#x40b;" horiz-adv-x="1929" d="M25 1208q0 6 12 60.5t29 120.5q18 74 43 167l12 13q16 -31 45 -47.5t60.5 -25.5t65.5 -12t58 -3l400 -11l477 11q72 2 114.5 7t69.5 15t39 23.5t23 32.5l16 -9l-66 -374l-16 4q8 123 -44 167t-169 46l-363 4q-2 -84 -2 -174v-361q111 66 233 101.5t238 35.5q80 0 150 -19 t122 -62.5t83 -109t31 -157.5v-446q0 -47 9 -81t34.5 -55.5t70.5 -35t119 -19.5v-14q-66 4 -145.5 7t-157.5 3q-37 0 -86 -1t-101.5 -3t-100.5 -3t-81 -3v12q57 8 99.5 19.5t68 31t37.5 53.5t12 89v424q0 68 -23.5 115t-63.5 76.5t-93 41.5t-110 12q-94 0 -188.5 -28.5 t-156.5 -71.5v-352v-133.5t5 -102.5q4 -43 10 -72.5t26.5 -49t60.5 -32t113 -18.5v-14q-66 4 -155.5 7t-167.5 3q-37 0 -84 -1t-95 -3t-94.5 -3t-78.5 -3v12q57 8 101 18.5t73.5 30t45 52t17.5 88.5q2 41 3 128t1 185v524q0 59 -1 123t-1 117v119l-303 -4q-61 0 -99 -10.5 t-64.5 -34t-49 -60.5t-53.5 -90z" />
<glyph unicode="&#x40c;" horiz-adv-x="1751" d="M117 1475v12q33 0 80 -1t97 -4t97 -5t82 -2q41 0 88 1t94 3t89 4t73 4v-14q-63 -6 -106 -17.5t-70 -32t-40 -53.5t-15 -82q-2 -35 -3 -84t-1 -114l-2 -367l2 -301v-133.5t4 -102.5q4 -43 16 -72.5t40 -49t75 -32t121 -18.5v-14q-33 2 -79 4t-97.5 3t-100.5 2t-88 1 q-37 0 -84 -1t-95 -3t-94 -3t-79 -3v12q57 8 101 18.5t73 30t45 52t18 88.5q2 43 2 132v190.5v193.5v141v105.5v115t-1 111.5t-3 96q-2 55 -18 88t-46 52.5t-74 29.5t-101 19zM629 795q16 18 52 55t80 83t93 97t94 96t80 81t51 53q23 23 51.5 55.5t39 65t-10 57t-96.5 30.5 v19l332 -10l233 10v-19q-10 0 -28.5 -1t-39 -4t-41 -7t-34.5 -10q-47 -18 -113.5 -61.5t-132.5 -106.5q-23 -23 -80 -76t-120.5 -113.5t-122 -117t-82.5 -82.5q37 -49 91 -123t113.5 -152.5t117.5 -151.5t104 -120q61 -63 126.5 -126.5t135 -114t140.5 -81t142 -30.5l4 -21 q-129 -12 -236.5 4.5t-198.5 54.5t-167 92t-137 120q-39 39 -96.5 110.5t-121 152.5t-122.5 159.5t-100 132.5zM811 1620l305 352l156 -47l-27 -90l-414 -238z" />
<glyph unicode="&#x40e;" horiz-adv-x="1570" d="M27 1470v19q35 -2 81 -5t95 -5t95 -3t81 -1h47t80 2t97 4t99 8v-16q-23 -4 -47 -8.5t-46.5 -12.5t-37 -21.5t-14.5 -35.5q0 -12 2 -19q16 -78 55 -177t85 -203.5t95.5 -207t86.5 -186.5l241 596q29 72 43.5 117t14.5 61q0 25 -12.5 41.5t-32 28.5t-43 18t-48.5 11v12 l238 -12q84 0 167 5t142 9v-14q-117 -12 -190.5 -64.5t-116.5 -150.5l-422 -977q-53 -123 -104 -198t-103.5 -116t-106.5 -54t-112 -13q-61 0 -106 19.5t-75 50t-43 69.5t-11 78q0 14 6 37.5t20.5 47t41 41t67.5 17.5q35 0 57.5 -10t35.5 -24.5t18.5 -32t5.5 -29.5 q2 -14 -7.5 -35.5t-15.5 -36.5q-14 -33 3.5 -65.5t64.5 -32.5q43 0 85 36t77.5 86t63.5 104t42 91q-23 49 -57.5 128t-78.5 174.5t-92.5 201t-96.5 205.5t-94 190.5t-83 153.5q-35 57 -96.5 75.5t-140.5 28.5zM596 1923h31q16 -55 44.5 -92t63.5 -59.5t72 -31.5t70 -9 t69.5 9t72.5 31.5t65.5 59.5t45.5 92h31q0 -39 -20.5 -95t-57 -108.5t-89 -88.5t-115.5 -36q-68 0 -120 37t-88 89.5t-55.5 107.5t-19.5 94z" />
<glyph unicode="&#x40f;" horiz-adv-x="1959" d="M127 -2v12q57 8 101 18.5t74 30t46.5 52t18.5 88.5q2 43 3 98t1 114.5v118v107.5v141v193.5v190.5t-2 132q-2 55 -18.5 88t-45.5 52.5t-73 30t-101 18.5v12q33 -2 79 -4t94 -3t95 -2t84 -1q39 0 88.5 1t100.5 2t97 3t79 4v-14q-74 -6 -121 -18.5t-74.5 -33t-40 -49 t-16.5 -71.5q-4 -35 -4 -102.5v-133.5l-2 -231v-94l2 -312q0 -66 1 -95.5t3 -61.5q2 -49 15.5 -83t40 -56.5t69.5 -34t106 -11.5q92 -2 168 -4t164 2q117 2 176.5 41t63.5 148q4 86 4 199.5v211.5v58v147.5v159.5v142.5t-2 94.5q-2 55 -18.5 88t-45 52.5t-72.5 30t-102 18.5 v12q33 -2 79 -4t94 -3t95.5 -2t84.5 -1q39 0 88 1t100 2t97 3t79 4v-14q-74 -6 -121 -18.5t-74.5 -33t-40 -49t-16.5 -71.5q-4 -35 -4 -102.5v-133.5l-2 -301l2 -377q0 -66 1 -115t3 -83q2 -49 15.5 -82t40 -53.5t69.5 -32t107 -17.5v-14q-31 2 -73 4t-89 4t-94.5 3t-87.5 1 h-132.5t-138.5 -2q-84 -2 -128 -36.5t-64.5 -93t-26.5 -133.5t-12 -157h-23q-2 92 -11 169t-37 132.5t-79 86t-137 32.5q-70 2 -127 2h-117q-70 0 -161 -4t-195 -8z" />
<glyph unicode="&#x410;" horiz-adv-x="1656" d="M-12 0v14q68 12 112.5 30.5t77.5 48.5t57.5 75t51.5 111q12 31 40.5 101.5t68.5 165.5t86 206.5t93 224.5q109 262 240 577h16l543 -1284q43 -104 114 -174.5t181 -81.5v-14q-41 2 -90 6q-41 4 -94 6t-113 2q-47 0 -99 -2t-101.5 -5t-92.5 -5t-73 -2v14 q111 16 144.5 57.5t-1.5 141.5q-18 47 -40 108.5t-42 116.5q-23 66 -47 131l-246 4l-235 -4q-31 -80 -56 -147q-23 -57 -41 -108.5t-22 -67.5q-10 -33 -19.5 -63.5t-9.5 -51.5q0 -31 14.5 -52.5t37 -34.5t50 -20.5t54.5 -9.5v-14l-275 14q-4 0 -40.5 -2t-85 -5t-93.5 -5 t-65 -2zM561 645l207 -6l227 6l-213 526q-2 4 -4 12.5t-6 8.5q-6 0 -6 -8z" />
<glyph unicode="&#x411;" horiz-adv-x="1386" d="M125 1475v12q33 0 78 -1t93 -4t94 -5t81 -2t98.5 1t132 3t131 2h95.5h94t65.5 4t44 17.5t27.5 37.5l17 -10q-12 -47 -15.5 -96.5t-7.5 -71.5q-2 -23 -4 -50.5t-3 -56t-2 -54t-1 -42.5h-19q-4 57 -22.5 107.5t-50 87.5t-77.5 58.5t-108 21.5q-113 0 -189.5 -36t-80.5 -114 q-2 -35 -4 -82t-2 -112l-2 -265q47 2 98 5.5t100 7.5q98 6 196.5 -16.5t177.5 -74t127 -130t48 -185.5q0 -121 -49 -211t-133 -145.5t-195.5 -74.5t-238.5 -3q-61 8 -126 10t-112 2q-37 0 -84 -1t-95 -3t-94 -3t-79 -3v12q57 8 101 18.5t73 30t45.5 52t18.5 88.5q2 43 2 132 v190.5v193.5v141v105.5v115t-1 111.5t-3 96q-2 55 -18.5 88t-46.5 52.5t-74 29.5t-101 19zM588 723l2 -301v-133.5t4 -102.5q6 -76 43 -117.5t143 -43.5q76 -2 136.5 29.5t101.5 86t63.5 125t22.5 146.5q0 82 -26.5 150.5t-78 118.5t-123 77.5t-161.5 27.5h-127v-63z" />
<glyph unicode="&#x412;" horiz-adv-x="1409" d="M70 0v14q59 6 103 16.5t75 32t47 55.5t18 89q2 43 2 131v188.5v191.5v140v105.5v113t-1 109.5t-3 96q-2 55 -17 88t-45 53.5t-74 30.5t-101 19v14q111 0 188.5 -6t136.5 -6q35 0 77 1t77 5l82 8q84 6 175 -7.5t167 -51t125 -106.5t49 -175q0 -78 -30.5 -134.5t-72.5 -95 t-83 -61t-62 -29.5v-10q74 -10 143.5 -36.5t125 -70.5t88 -108.5t32.5 -150.5q0 -90 -37.5 -172t-109.5 -145.5t-173.5 -100.5t-226.5 -37l-309 14zM532 853q0 -54 1.5 -101t1.5 -83v-48v-72.5t1 -121.5t2 -119t1 -64q2 -45 12 -80t35.5 -58.5t67.5 -36t110 -12.5 q45 0 96 19.5t94 61.5t71 109t28 161q0 82 -33 149.5t-88 116.5t-127 76.5t-148 27.5h-32v39h32q63 0 113.5 22.5t84.5 62.5t51.5 94.5t17.5 117.5q0 76 -23.5 133.5t-65.5 97t-96.5 60t-115.5 20.5q-55 0 -73 -25.5t-18 -47.5v-103v-151v-54v-87.5v-103.5z" />
<glyph unicode="&#x413;" horiz-adv-x="1216" d="M119 0v12q57 8 101 18.5t73 30t45 52t18 88.5q0 20 1 54t1 77v92v98v336v105.5v113t-1 109.5t-3 96q-2 55 -16 88t-42 52.5t-71 29.5t-100 18v17q45 -4 110.5 -6t135 -4t135 -2h112.5l295 2h94.5t66 4t44 17t27.5 38l16 -10q-12 -47 -15 -96.5t-7 -71.5q-2 -23 -4 -50.5 t-3.5 -56t-2.5 -54.5t-1 -42h-18q-10 115 -69.5 179.5t-182.5 66.5l-137 2h-139q0 -137 -1 -230.5t-1 -156v-100v-65.5v-52.5v-59v-87v-134.5v-96v-133.5t4 -102.5q4 -43 16 -72.5t40 -49t75 -32t121 -18.5v-14q-33 2 -79 4t-97.5 3t-100.5 2t-88 1q-37 0 -84 -1t-95 -3 t-94 -3t-79 -3z" />
<glyph unicode="&#x414;" horiz-adv-x="1761" d="M31 39q109 2 188.5 44t139 110.5t99.5 156.5t65.5 180.5t42 181.5t26.5 162q6 47 13 102.5t11.5 110t7.5 106.5t1 93q-2 55 -19.5 89t-50.5 54.5t-81 30.5t-109 21v18q78 -8 147.5 -11t138.5 -3q82 0 151.5 -1t129.5 1l371 6q41 0 90 2l98 4t92 4t74 4v-16 q-63 -6 -106.5 -17.5t-70 -32t-40 -53t-15.5 -81.5q-2 -35 -3 -84.5t-1 -114.5l-2 -377l2 -319v-127.5t4 -96.5q4 -43 16.5 -68.5t41 -42t76 -25.5t120.5 -15q-8 -41 -11 -94.5t-5 -107.5t-2 -101t-2 -74h-19q-4 55 -14 113.5t-38.5 106.5t-81 81t-142.5 37q-43 2 -122 3 t-162 2t-157.5 1h-107.5h-76.5t-70.5 -1t-105.5 -3t-181.5 -6q-82 -4 -138.5 -25.5t-92 -64.5t-56 -106.5t-28.5 -149.5h-19q-2 25 -2 75t-1 108t-4 114.5t-9 95.5zM365 68l417 4q43 0 74 1t59.5 1t59.5 2t74 6q72 6 111.5 40t39.5 116v514v262t-4 207q-2 55 -10 91 t-32 57.5t-67 30.5t-114 9q-84 0 -134.5 -18.5t-78 -51t-37.5 -76.5t-16 -96l-37 -295q-14 -121 -40 -237.5t-65 -221t-89 -192.5t-111 -153z" />
<glyph unicode="&#x415;" horiz-adv-x="1357" d="M125 1470v17q45 -4 110.5 -6t135 -4t135 -2h112.5l306 2h89t65.5 5t46 17t32.5 37l14 -10q-12 -47 -15 -96.5t-7 -71.5q-2 -23 -4 -50.5t-3 -56t-2 -54.5t-1 -42h-19q-10 115 -69.5 178.5t-182.5 67.5l-106 2h-180v-586h80t118 2q72 0 156 2q41 0 66.5 9.5t42 24.5 t26.5 36.5t21 50.5q4 0 8 -4l4 -4q-4 -20 -7 -46t-6.5 -52.5t-5.5 -50t-2 -37.5v-50.5t1 -54.5t1 -49.5v-34.5l-18 2q-2 27 -7 57.5t-20.5 56t-45 43t-79.5 17.5l-333 6v-178l2 -280q0 -55 10 -95.5t35.5 -66t70.5 -36.5t117 -9q31 0 47.5 1t30.5 2t28.5 2t41.5 5 q45 6 82.5 19.5t69.5 42t60.5 76.5t55.5 122l16 -8l-71 -287q-8 -29 -19.5 -40t-40.5 -11q-111 2 -225.5 6t-265.5 4q-98 0 -232.5 -4t-265.5 -6v16q57 8 99 18.5t70 30t42 52.5t16 88q2 43 2 132v188.5v191.5v141v105.5v113t-1 109.5t-3 96q-2 55 -16 88t-42 52.5t-71 29.5 t-100 18z" />
<glyph unicode="&#x416;" horiz-adv-x="2557" d="M8 -31l4 21q72 0 142.5 30.5t140.5 81t135.5 114t126.5 126.5q45 47 98.5 116.5t107.5 143.5t104.5 143.5t86.5 118.5q-25 27 -79 86.5t-112 125t-110.5 122.5t-74.5 80q-66 63 -132.5 106t-113.5 62q-14 6 -35 10t-41 7t-38.5 4t-29.5 1v19l234 -10l332 10v-19 q-76 -6 -96.5 -30.5t-10.5 -57t39 -65.5t51 -55q16 -16 47 -52.5t69 -81.5t79 -96t79 -97t68.5 -83t46.5 -55q-41 -53 -95 -132t-109.5 -160t-107.5 -152.5t-91 -110.5q-61 -66 -133 -120t-158 -92t-190.5 -54.5t-233.5 -4.5zM924 1475v12q33 0 80 -1t97 -4t97 -5t82 -2 q41 0 88 1t94 3t89 4t73 4v-14q-63 -6 -106 -17.5t-70 -32t-40 -53.5t-15 -82q-2 -35 -3 -84t-1 -114l-3 -367l3 -301v-133.5t4 -102.5q4 -43 16 -72.5t40 -49t75 -32t121 -18.5v-14q-33 2 -79 4t-97.5 3t-100.5 2t-88 1q-37 0 -84 -1t-95 -3t-94 -3t-79 -3v12 q57 8 101 18.5t72.5 30t45 52t18.5 88.5q2 43 2 132v190.5v193.5v141v105.5v115t-1 111.5t-3 96q-2 55 -18.5 88t-46 52.5t-73.5 29.5t-101 19zM1432 795q33 39 87 103.5t110.5 132t106.5 125.5t74 87q20 23 50 58.5t42.5 71.5t-5 62.5t-93.5 32.5v19l332 -10l234 10v-19 q-10 0 -29 -1t-39.5 -4t-40.5 -7t-35 -10q-47 -18 -113.5 -61.5t-132.5 -106.5q-23 -23 -75 -80t-110 -122.5t-112.5 -125t-78.5 -86.5q37 -49 87 -118.5t103 -143.5t107.5 -143.5t99.5 -116.5q61 -63 126.5 -126.5t135.5 -114t140.5 -81t142.5 -30.5l4 -21 q-129 -12 -233.5 4.5t-190.5 54.5t-158 92t-133 120q-39 39 -91 110.5t-107.5 152.5t-109.5 159.5t-95 132.5z" />
<glyph unicode="&#x417;" horiz-adv-x="1247" d="M20 360l19 15q33 -90 82 -153.5t110.5 -104.5t130 -60.5t140.5 -19.5q88 0 153.5 27.5t108.5 78t64.5 120t21.5 153.5q0 104 -38 172.5t-100.5 109.5t-144.5 57.5t-168 16.5l-20 45q68 14 139.5 43t130 76t96 115.5t37.5 165.5q0 47 -10 90t-34.5 75.5t-65.5 52 t-103 19.5q-143 0 -258.5 -80t-175.5 -250h-24l63 340q102 31 207.5 47.5t187.5 16.5q129 0 220.5 -27.5t149.5 -73t85 -103.5t27 -120q0 -68 -29 -126t-76 -105t-108.5 -80t-126.5 -47q88 -10 163.5 -42t131 -84t87 -123t31.5 -159q0 -102 -43 -188t-123.5 -148.5 t-196.5 -97.5t-261 -35q-86 0 -183.5 16.5t-197.5 51.5z" />
<glyph unicode="&#x418;" horiz-adv-x="1935" d="M90 1475v12q33 0 80 -1t97 -4t97.5 -5t81.5 -2q41 0 88.5 1t94.5 3t89 4t73 4v-14q-63 -6 -106.5 -17.5t-70 -32t-40 -53.5t-15.5 -82q-2 -35 -3 -84t-1 -114l-2 -367v-358q225 215 447.5 443t441.5 447v31q-2 55 -18.5 88t-46 52.5t-73.5 29.5t-102 19v12q33 0 80 -1 t97.5 -4t97.5 -5t82 -2q41 0 88 1t94 3t89 4t73 4v-14q-63 -6 -106.5 -17.5t-70 -32t-40 -53.5t-15.5 -82q-2 -35 -3 -84t-1 -114l-2 -367l2 -301v-133.5t4 -102.5q4 -43 16.5 -72.5t40 -49t74.5 -32t121 -18.5v-14q-33 2 -79 4t-97 3t-100.5 2t-87.5 1q-37 0 -84.5 -1 t-95.5 -3t-94 -3t-79 -3v12q57 8 101.5 18.5t73 30t45 52t18.5 88.5q2 43 2 132v190.5v193.5v141v250q-264 -248 -478 -471t-413 -408v-16v-6t1 -6t1 -15q2 -43 15.5 -72.5t41 -49t75.5 -32t122 -18.5v-14q-33 2 -79 4t-97 3t-100.5 2t-88.5 1q-37 0 -84 -1t-95 -3t-94 -3 t-79 -3v12q57 8 101.5 18.5t73 30t45 52t18.5 88.5q2 43 2 132v190.5v193.5v141v105.5v115t-1 111.5t-3 96q-2 55 -18.5 88t-46 52.5t-74 29.5t-101.5 19z" />
<glyph unicode="&#x419;" horiz-adv-x="1935" d="M90 1475v12q33 0 80 -1t97 -4t97.5 -5t81.5 -2q41 0 88.5 1t94.5 3t89 4t73 4v-14q-63 -6 -106.5 -17.5t-70 -32t-40 -53.5t-15.5 -82q-2 -35 -3 -84t-1 -114l-2 -367v-358q225 215 447.5 443t441.5 447v31q-2 55 -18.5 88t-46 52.5t-73.5 29.5t-102 19v12q33 0 80 -1 t97.5 -4t97.5 -5t82 -2q41 0 88 1t94 3t89 4t73 4v-14q-63 -6 -106.5 -17.5t-70 -32t-40 -53.5t-15.5 -82q-2 -35 -3 -84t-1 -114l-2 -367l2 -301v-133.5t4 -102.5q4 -43 16.5 -72.5t40 -49t74.5 -32t121 -18.5v-14q-33 2 -79 4t-97 3t-100.5 2t-87.5 1q-37 0 -84.5 -1 t-95.5 -3t-94 -3t-79 -3v12q57 8 101.5 18.5t73 30t45 52t18.5 88.5q2 43 2 132v190.5v193.5v141v250q-264 -248 -478 -471t-413 -408v-16v-6t1 -6t1 -15q2 -43 15.5 -72.5t41 -49t75.5 -32t122 -18.5v-14q-33 2 -79 4t-97 3t-100.5 2t-88.5 1q-37 0 -84 -1t-95 -3t-94 -3 t-79 -3v12q57 8 101.5 18.5t73 30t45 52t18.5 88.5q2 43 2 132v190.5v193.5v141v105.5v115t-1 111.5t-3 96q-2 55 -18.5 88t-46 52.5t-74 29.5t-101.5 19zM745 1927h31q16 -55 45 -92t64 -59.5t71.5 -31.5t69.5 -9t70 9t72.5 31.5t65.5 59.5t46 92h31q0 -39 -20.5 -95 t-57.5 -108.5t-89 -88.5t-116 -36q-68 0 -120 37t-88 89.5t-55.5 107.5t-19.5 94z" />
<glyph unicode="&#x41a;" horiz-adv-x="1751" d="M117 1475v12q33 0 80 -1t97 -4t97 -5t82 -2q41 0 88 1t94 3t89 4t73 4v-14q-63 -6 -106 -17.5t-70 -32t-40 -53.5t-15 -82q-2 -35 -3 -84t-1 -114l-2 -367l2 -301v-133.5t4 -102.5q4 -43 16 -72.5t40 -49t75 -32t121 -18.5v-14q-33 2 -79 4t-97.5 3t-100.5 2t-88 1 q-37 0 -84 -1t-95 -3t-94 -3t-79 -3v12q57 8 101 18.5t73 30t45 52t18 88.5q2 43 2 132v190.5v193.5v141v105.5v115t-1 111.5t-3 96q-2 55 -18 88t-46 52.5t-74 29.5t-101 19zM629 795q16 18 52 55t80 83t93 97t94 96t80 81t51 53q23 23 51.5 55.5t39 65t-10 57t-96.5 30.5 v19l332 -10l233 10v-19q-10 0 -28.5 -1t-39 -4t-41 -7t-34.5 -10q-47 -18 -113.5 -61.5t-132.5 -106.5q-23 -23 -80 -76t-120.5 -113.5t-122 -117t-82.5 -82.5q37 -49 91 -123t113.5 -152.5t117.5 -151.5t104 -120q61 -63 126.5 -126.5t135 -114t140.5 -81t142 -30.5l4 -21 q-129 -12 -236.5 4.5t-198.5 54.5t-167 92t-137 120q-39 39 -96.5 110.5t-121 152.5t-122.5 159.5t-100 132.5z" />
<glyph unicode="&#x41b;" horiz-adv-x="1773" d="M55 100q0 18 6.5 43t21.5 46.5t44 37t72 15.5q51 0 81.5 -23.5t55 -46t47.5 -32t59 19.5q51 39 86 111.5t58.5 168t39 208t27.5 233.5q10 98 19.5 207.5t5.5 195.5q-2 55 -19.5 88t-49 51.5t-78 28.5t-103.5 18v17q39 -4 71.5 -7t61.5 -5t58.5 -3.5t64.5 -1.5l311 3 l273 4q41 0 91 3l100 6t95 6t76 5v-14q-63 -6 -106 -17.5t-70 -32t-40 -53t-15 -82.5q-2 -35 -3 -84t-1 -114l-2 -377l2 -301v-68v-67.5t1 -59t3 -43.5q4 -43 16 -72.5t40 -49t75 -32t121 -18.5v-14q-33 2 -79 4t-97.5 3t-100.5 2t-88 1q-37 0 -84 -1t-95 -3t-94 -3t-79 -3 v12q57 8 101 18.5t73 30t45 52t18 88.5q2 31 2.5 95t0.5 143v161v147v58v108.5v121v117.5t-3 99q-4 68 -40.5 111t-135.5 43q-104 0 -154 -47t-61 -142l-35 -391q-18 -176 -53 -332.5t-94 -275.5t-147.5 -188.5t-214.5 -69.5q-33 0 -66 8t-58.5 25.5t-41 45t-15.5 64.5z" />
<glyph unicode="&#x41c;" horiz-adv-x="2164" d="M16 0v14q53 8 96.5 24.5t76 49.5t55 84t37.5 131l147 858q-14 33 -27 64l-20 50t-16 38q-37 78 -93.5 113.5t-134.5 46.5v14q20 -2 50 -3t62 -2t60.5 -1h48.5q53 0 103.5 1t87.5 5q63 -139 126.5 -288.5t128 -300t128 -300t125.5 -287.5q70 137 141.5 284.5t142 298 t141 300t140.5 293.5q16 -2 40 -3t49.5 -2t49 -2t39.5 -1q55 0 99.5 2t80.5 6v-14q-63 -6 -104 -17.5t-66.5 -32t-38 -53.5t-14.5 -82q0 -8 1 -29.5t3 -33.5q10 -98 24.5 -213t28 -224.5t24.5 -200.5t17 -141q6 -59 13 -112q4 -45 9 -87t9 -59q8 -43 19.5 -72.5t38 -49 t71.5 -31.5t119 -19v-16q-43 2 -92 5t-97.5 5t-94.5 3t-83 1q-96 0 -180 -4t-170 -10v14q57 8 98 18.5t68 30t40 52t15 88.5q2 29 -5 109.5t-17 177t-21.5 192.5t-17.5 156q-2 27 -7 68.5t-10.5 83.5t-9.5 77t-4 47h-8q-57 -123 -90 -196.5t-56.5 -129t-48 -108.5 t-64.5 -136t-103.5 -212t-165.5 -334h-15q-119 264 -245.5 523t-243.5 523h-6l-29 -200q-12 -86 -27.5 -189.5t-31.5 -195.5q-12 -74 -22.5 -145.5t-12.5 -106.5q-2 -37 7 -69t35.5 -56.5t74 -41.5t120.5 -24v-16q-47 4 -137 8t-182 4q-90 0 -161 -4t-118 -8z" />
<glyph unicode="&#x41d;" horiz-adv-x="1992" d="M135 1475v12q33 0 80 -1t97 -4t97.5 -5t82.5 -2q41 0 88 1t94 3t89 4t73 4v-14q-63 -6 -106.5 -17.5t-70 -32t-40 -53.5t-15.5 -82q0 -16 -1 -38.5t-2 -57.5t-2 -84t-1 -121v-166l379 -4l416 2v127v100.5v84t-1 75.5t-3 80q-2 55 -18.5 88t-46.5 52.5t-74 29.5t-101 19 v12q33 0 80 -1t97 -4t97 -5t82 -2q41 0 88 1t94.5 3t89.5 4t72 4v-14q-63 -6 -106 -17.5t-70.5 -32t-41 -53.5t-15.5 -82q-2 -35 -3 -84t-1 -114v-367l2 -301v-133.5t4 -102.5q4 -43 16.5 -72.5t40 -49t74.5 -32t121 -18.5v-14q-33 2 -79 4t-97.5 3t-100.5 2t-88 1 q-37 0 -84 -1t-95 -3t-94 -3t-79 -3v12q57 8 101 18.5t73 30t45.5 52t18.5 88.5q2 31 2 95v142v160v150h-795v-95q0 -121 1 -201.5t1 -134t1 -84t3 -47.5q4 -43 16.5 -72.5t40 -49t74.5 -32t121 -18.5v-14q-33 2 -79 4t-97 3t-100.5 2t-87.5 1q-37 0 -84.5 -1t-95.5 -3 t-94 -3t-79 -3v12q57 8 101.5 18.5t73 30t45 52t18.5 88.5q2 43 2 132v190.5v193.5v141t-1 86t-1 81t-1 104.5t-1 156.5q0 55 -15.5 88t-46 52.5t-75.5 29.5t-103 19z" />
<glyph unicode="&#x41e;" horiz-adv-x="1867" d="M119 737q0 147 54 287.5t158.5 250t258 177.5t352.5 68q174 0 321.5 -53.5t255 -151.5t168 -237.5t60.5 -313.5q0 -172 -61.5 -319.5t-172 -255t-262 -168t-329.5 -60.5q-184 0 -333 63.5t-253.5 170t-160.5 248t-56 294.5zM403 780q0 -158 42 -294t117 -237.5 t181.5 -158.5t235.5 -57q88 0 175 40t154.5 123t110.5 213t43 310q0 154 -41 287t-115.5 231t-179 155.5t-229.5 57.5q-106 0 -196.5 -46t-157 -132t-103.5 -211t-37 -281z" />
<glyph unicode="&#x41f;" horiz-adv-x="1959" d="M127 1485v12q33 0 80 -1t97 -4t97.5 -5t81.5 -2l447 -4l586 4q41 0 88 1t94 3t89 4t73 4v-14q-63 -6 -106.5 -17.5t-70 -32t-40 -53t-15.5 -82.5q-2 -35 -3 -84t-1 -114l-2 -377l2 -301v-133.5t4 -102.5q4 -43 16.5 -72.5t40 -49t74.5 -32t121 -18.5v-14q-33 2 -79 4 t-97 3t-100.5 2t-87.5 1q-37 0 -84.5 -1t-95.5 -3t-94 -3t-79 -3v12q57 8 101.5 18.5t73 30t45 52t18.5 88.5q2 31 2 95v142v160v147v58v211.5t-4 199.5q-2 55 -18.5 90t-46 56.5t-73.5 31t-102 11.5l-182 4l-150 -6q-63 -2 -106 -13.5t-69.5 -33t-40 -55t-15.5 -82.5 q0 -16 -1 -31t-2 -32t-1 -39.5v-55.5l-2 -311v-95l2 -231v-133.5t4 -102.5q4 -43 16.5 -72.5t40 -49t74.5 -32t121 -18.5v-14q-33 2 -79 4t-97 3t-100.5 2t-88.5 1q-37 0 -84 -1t-95 -3t-94 -3t-79 -3v12q57 8 101 18.5t73 30t45.5 52t18.5 88.5q2 43 2 132v190.5v193.5v141 v107.5v118t-1 114.5t-3 98q-2 55 -18.5 88t-46.5 52.5t-74 30t-101 18.5z" />
<glyph unicode="&#x420;" horiz-adv-x="1386" d="M129 0v12q57 8 101 18.5t73 30t45.5 52t18.5 88.5q2 43 2 132v190.5v193.5v141v104.5v113t-1 109.5t-3 95q-2 55 -16.5 88t-43.5 53.5t-72 30.5t-100 18v17q25 -2 61.5 -3t80.5 -2t93.5 -2t96.5 -1l293 8q86 0 180 -16.5t173 -60.5t131 -122t52 -201q0 -115 -54 -209 t-140 -159.5t-193.5 -99t-214.5 -27.5v18q82 8 152.5 35t121 75t79 115.5t28.5 157.5q0 84 -26.5 162t-76.5 137.5t-122 97t-160 42.5q-47 4 -84 0l-14 -27v-465l-2 -217l2 -301v-133.5t4 -102.5q4 -43 16.5 -72.5t40 -49t74.5 -32t121 -18.5v-14q-33 2 -79 4t-97.5 3 t-100.5 2t-88 1q-37 0 -84 -1t-95 -3t-94 -3t-79 -3z" />
<glyph unicode="&#x421;" d="M109 754q0 182 79.5 323.5t205.5 238.5t283 148.5t310 51.5q27 0 75 -1.5t108.5 -9.5t127 -23.5t132.5 -41.5l63 -332l-25 -4q-18 74 -62 136.5t-107.5 108.5t-146.5 71.5t-179 25.5q-133 0 -240.5 -51.5t-185.5 -139.5t-120 -205.5t-42 -250.5q0 -182 59.5 -324.5 t154.5 -242t211 -151.5t230 -52q76 0 148 21.5t133 64.5t109.5 107.5t78.5 148.5l15 -17l-99 -323q-49 -23 -113.5 -35t-125 -18.5t-105.5 -8.5t-57 -2q-182 0 -347 49.5t-292 147.5t-201.5 245.5t-74.5 344.5z" />
<glyph unicode="&#x422;" horiz-adv-x="1460" d="M-4 1208q0 6 12 60.5t29 120.5q18 74 43 167l12 13q16 -31 45 -47.5t60.5 -25.5t65.5 -12t59 -3l407 -11l469 11q72 2 115 7t69.5 15t39 23.5t22.5 32.5l16 -9l-65 -374l-17 4q8 123 -44 167t-169 46l-334 4l-2 -883v-92v-133.5t5 -102.5q4 -43 16 -72.5t40 -49t75 -32 t120 -18.5v-14q-33 2 -78.5 4t-97 3t-100.5 2t-88 1q-37 0 -84 -1t-95 -3t-94.5 -3t-78.5 -3v12q57 8 101 18.5t73.5 30t45 52t17.5 88.5q2 41 3 128t1 185v524q0 59 -1 123t-1 117v119l-332 -4q-61 0 -99 -10.5t-64.5 -34t-49 -60.5t-53.5 -90z" />
<glyph unicode="&#x423;" horiz-adv-x="1570" d="M27 1470v19q35 -2 81 -5t95 -5t95 -3t81 -1h47t80 2t97 4t99 8v-16q-23 -4 -47 -8.5t-46.5 -12.5t-37 -21.5t-14.5 -35.5q0 -12 2 -19q16 -78 55 -177t85 -203.5t95.5 -207t86.5 -186.5l241 596q29 72 43.5 117t14.5 61q0 25 -12.5 41.5t-32 28.5t-43 18t-48.5 11v12 l238 -12q84 0 167 5t142 9v-14q-117 -12 -190.5 -64.5t-116.5 -150.5l-422 -977q-53 -123 -104 -198t-103.5 -116t-106.5 -54t-112 -13q-61 0 -106 19.5t-75 50t-43 69.5t-11 78q0 14 6 37.5t20.5 47t41 41t67.5 17.5q35 0 57.5 -10t35.5 -24.5t18.5 -32t5.5 -29.5 q2 -14 -7.5 -35.5t-15.5 -36.5q-14 -33 3.5 -65.5t64.5 -32.5q43 0 85 36t77.5 86t63.5 104t42 91q-23 49 -57.5 128t-78.5 174.5t-92.5 201t-96.5 205.5t-94 190.5t-83 153.5q-35 57 -96.5 75.5t-140.5 28.5z" />
<glyph unicode="&#x424;" horiz-adv-x="1761" d="M92 745q0 135 57.5 240t149.5 180.5t210 121.5t241 63q-20 66 -77 88t-153 37v12q33 0 80 -1t97.5 -4t97.5 -5t82 -2q41 0 88 2l94 4t89 4t73 2v-14q-102 -10 -152.5 -35t-69.5 -82q119 -10 241 -52t218 -116t157.5 -180.5t61.5 -247.5t-58 -251t-154.5 -186.5 t-218.5 -121.5t-247 -60h-2q14 -59 66.5 -87.5t177.5 -39.5v-14q-33 2 -79 3t-97 3t-100.5 3t-87.5 1q-37 0 -84.5 -1t-95.5 -3t-94 -4t-79 -2v12q98 14 154.5 37t75.5 92q-125 14 -244 59.5t-212 120t-149.5 180t-56.5 244.5zM369 764q0 -109 30.5 -201t85 -163.5t125 -121 t150.5 -69.5v82q2 55 2 115.5v125.5q2 98 1 187.5t-1 138.5l2 209v86t-2 141q-96 -18 -170 -68t-123 -123t-74.5 -160t-25.5 -179zM983 705.5q0 -35.5 1 -101t1 -182.5v-128t4 -101q92 14 167 63t128 123t83 169.5t30 199.5q0 98 -31 186t-84 159.5t-129 122t-164 70.5 q-2 -35 -3 -84t-1 -112l-2 -312v-23.5v-49z" />
<glyph unicode="&#x425;" horiz-adv-x="1480" d="M-39 -6v14q117 10 196 64.5t136 128.5q14 20 38.5 53t53.5 73t61.5 85t63.5 88q74 102 158 219q-51 82 -101 164q-41 70 -89 146.5t-83 137.5q-10 18 -29.5 47t-40 60t-39 56.5t-26.5 35.5q-47 51 -102.5 72.5t-134.5 31.5v19q35 -2 81 -5t95 -5t95 -3t81 -1h47t80 2 t97 4t99 8v-16q-25 -6 -49 -10.5t-45.5 -13.5t-35 -25.5t-13.5 -47.5q0 -25 20.5 -63.5t49.5 -85.5q27 -45 54.5 -94.5t54 -94.5t47 -81.5t32.5 -57.5q8 12 31.5 48t54.5 83t64.5 99.5t58.5 95.5q49 84 59 123q8 33 -1 55t-29.5 36.5t-47 22.5t-53.5 13v12q66 4 117 -4 t121 -8q84 0 167 5t142 9v-14q-57 -6 -101 -27t-81 -51.5t-69 -68.5t-64 -81q-31 -41 -83 -113.5t-104 -142.5q-59 -82 -125 -176q59 -96 115 -188q47 -78 99.5 -164t89.5 -148q10 -16 28.5 -45.5t39 -60.5t38.5 -57.5t29 -36.5q47 -51 102 -71.5t133 -33.5v-16q-35 2 -81 5 t-94 5t-94 3t-81 1h-49t-80 -2t-96 -4t-99 -8v16q23 6 48.5 10.5t47 13.5t35 25.5t13.5 46.5q0 25 -20.5 64t-49.5 86q-27 43 -59.5 99.5t-65.5 110.5t-58.5 98t-35.5 65q-8 -12 -38 -55.5t-67.5 -98.5t-76.5 -114.5t-64 -102.5q-27 -43 -41 -73.5t-18 -49.5q-8 -33 1 -55.5 t28.5 -36.5t46 -22.5t53.5 -12.5v-14q-66 -2 -117 5t-121 7q-41 0 -89 -1t-96 -3t-91 -4t-74 -4z" />
<glyph unicode="&#x426;" horiz-adv-x="1959" d="M127 -2q57 8 101 18.5t74 30t46.5 52t18.5 87.5q2 43 3 98.5t1 115v117.5v108v143v197.5v194.5t-2 134q-2 55 -18.5 88t-45.5 52.5t-73 30t-101 18.5v12q33 -2 79 -4t94 -3t95 -2t84 -1q39 0 88.5 1t100.5 2t97 3t79 4v-14q-74 -6 -121 -18.5t-74.5 -33t-40 -49 t-16.5 -71.5q-4 -35 -4 -102.5v-133.5l-2 -338l2 -311q0 -66 1 -95.5t3 -62.5q2 -49 15.5 -82.5t40 -55.5t69.5 -33t106 -13q51 -2 99.5 -3t95.5 -1h67.5t46 -1t47 0t68.5 5q72 6 112 40t40 116v499v150v163.5v146.5t-2 97q-2 55 -18.5 88t-45 52.5t-72.5 30t-102 18.5v12 q33 -2 79 -4t94 -3t95.5 -2t84.5 -1q39 0 88 1t100 2t97 3t79 4v-14q-74 -6 -121 -18.5t-74.5 -33t-40 -49t-16.5 -71.5q-4 -35 -4 -102.5v-133.5l-2 -344l2 -319v-127.5t4 -96.5q4 -43 16.5 -68.5t41 -42t75.5 -25.5t121 -15q-8 -41 -11 -94.5t-5 -107.5t-2 -101t-2 -74 h-19q-4 55 -14 113.5t-39 106.5t-81 81t-142 37q-43 2 -124 3t-167 2t-163 1h-109l-521 -4q-35 0 -82 -2t-97 -5t-97 -4t-80 -1v12z" />
<glyph unicode="&#x427;" horiz-adv-x="1685" d="M10 1466v15q33 -2 78 -4t93 -3t96.5 -2.5t87.5 -1.5q37 0 78.5 1.5t84.5 2.5t84 3t74 4v-13q-45 -6 -81 -16t-61.5 -29.5t-40 -53.5t-16.5 -89q-2 -31 -2 -80t1 -98t2 -91t4 -61q10 -109 34.5 -178.5t102.5 -109.5q31 -16 90 -23.5t127.5 -8.5t137.5 4t118 13v76l-2 217 l-2 342q0 49 -11.5 81t-39 52.5t-72.5 31.5t-109 19v15q33 -2 76 -4t90 -3t93 -2.5t85 -1.5q37 0 84 1.5t95.5 2.5t94.5 3t79 4v-13q-57 -8 -101.5 -18t-73 -29.5t-45 -52.5t-18.5 -88q-2 -43 -3 -95t-1 -109.5v-113v-104.5v-141v-193.5v-190.5t2 -132q2 -55 18.5 -88 t45 -52.5t72.5 -30t102 -18.5v-12q-33 2 -79 3t-94.5 3t-95.5 3t-84 1q-39 0 -88 -1t-100 -2t-97 -3t-79 -4v14q74 6 121 18.5t74.5 32t40 49t16.5 72.5q4 35 4 102.5v133.5v186q-47 -8 -108.5 -14t-128 -9t-130 -2t-112.5 9q-82 14 -146.5 42t-111 74t-72 115.5 t-29.5 171.5q0 16 -1 48t-1 72t-2 82t-6 79q-4 43 -15.5 74.5t-37 55.5t-70.5 39t-119 21z" />
<glyph unicode="&#x428;" horiz-adv-x="2529" d="M127 -2q57 8 101 18.5t74 30t46.5 52t18.5 87.5q2 43 3 98.5t1 115v117.5v108v143v197.5v194.5t-2 134q-2 55 -18.5 88t-45.5 52.5t-73 30t-101 18.5v12q33 -2 79 -4t94 -3t95 -2t84 -1q39 0 85 1t93.5 2t90.5 3t75 4v-14q-74 -6 -117.5 -18.5t-67.5 -33t-33 -49 t-13 -71.5q-4 -35 -4 -102.5v-133.5l-2 -244v-94l2 -311q0 -66 1 -95.5t3 -62.5q2 -49 16.5 -85t47 -59.5t87 -34.5t138.5 -11q70 0 119 6t81.5 24.5t48 50t17.5 83.5q2 43 2 124.5v172v175.5v134v107.5v119t-1 115.5t-3 98q-2 55 -15.5 88t-39 52.5t-66.5 29.5t-98 19v12 q33 0 77 -1t90 -4t90 -5t79 -2q41 0 85 1t87 3t82 4t69 4v-14q-63 -6 -103 -17.5t-62.5 -32t-33 -53.5t-12.5 -82q-2 -35 -3 -84t-1 -114l-2 -379l2 -301v-108t4 -77q6 -78 72 -113.5t229 -37.5q57 0 103.5 5t78 21.5t48 48t16.5 89.5v499v150v163.5v146.5t-2 97 q-2 55 -18.5 88t-45 52.5t-72.5 30t-101 18.5v12q33 -2 78.5 -4t94 -3t95.5 -2t84 -1q39 0 88 1t100 2t97.5 3t78.5 4v-14q-74 -6 -121 -18.5t-74.5 -33t-40 -49t-16.5 -71.5q-4 -35 -4 -102.5v-133.5l-2 -344l2 -319v-127.5t4 -96.5q2 -49 15.5 -81.5t40 -53t69.5 -32 t107 -17.5v-14q-51 4 -133 7t-160 5q-43 2 -103.5 2h-122t-116.5 -1t-88 -1q-102 2 -201.5 3t-202.5 1l-772 -6q-35 0 -82 -2t-97 -5t-97 -4t-80 -1v12z" />
<glyph unicode="&#x429;" horiz-adv-x="2529" d="M127 -2q57 8 101 18.5t74 30t46.5 52t18.5 87.5q2 43 3 98.5t1 115v117.5v108v143v197.5v194.5t-2 134q-2 55 -18.5 88t-45.5 52.5t-73 30t-101 18.5v12q33 -2 79 -4t94 -3t95 -2t84 -1q39 0 85 1t93.5 2t90.5 3t75 4v-14q-74 -6 -117.5 -18.5t-67.5 -33t-33 -49 t-13 -71.5q-4 -35 -4 -102.5v-133.5l-2 -244v-94l2 -311q0 -66 1 -95.5t3 -62.5q2 -49 16.5 -85t47 -59.5t87 -34.5t138.5 -11q70 0 119 6t81.5 24.5t48 50t17.5 83.5q2 43 2 124.5v172v175.5v134v107.5v119t-1 115.5t-3 98q-2 55 -15.5 88t-39 52.5t-66.5 29.5t-98 19v12 q33 0 77 -1t90 -4t90 -5t79 -2q41 0 85 1t87 3t82 4t69 4v-14q-63 -6 -103 -17.5t-62.5 -32t-33 -53.5t-12.5 -82q-2 -35 -3 -84t-1 -114l-2 -379l2 -301v-108t4 -77q6 -78 71.5 -113.5t229.5 -37.5q57 0 103.5 5t78 21.5t48 48t16.5 89.5v499v150v163.5v146.5t-2 97 q-2 55 -18.5 88t-45 52.5t-72.5 30t-101 18.5v12q33 -2 78.5 -4t94 -3t95.5 -2t84 -1q39 0 88 1t100 2t97.5 3t78.5 4v-14q-74 -6 -121 -18.5t-74.5 -33t-40 -49t-16.5 -71.5q-4 -35 -4 -102.5v-133.5l-2 -344l2 -319v-127.5t4 -96.5q4 -43 16.5 -68.5t41 -42t76 -25.5 t120.5 -15q-8 -41 -11 -94.5t-5 -107.5t-2 -101t-2 -74h-19q-4 55 -14 113.5t-38.5 106.5t-81 81t-142.5 37q-43 2 -103.5 3t-122 1h-116.5h-88q-102 2 -201.5 3t-202.5 1l-772 -6q-35 0 -82 -2t-97 -5t-97 -4t-80 -1v12z" />
<glyph unicode="&#x42a;" horiz-adv-x="1605" d="M6 1538l19 10q14 -25 34.5 -39t50 -21t69.5 -9t95 -4q33 -2 90.5 -2h121t122 1t92.5 1q41 0 88.5 1t94.5 3t89 4t72 4v-14q-63 -6 -106 -17.5t-69.5 -32t-40 -53.5t-15.5 -82q-2 -35 -3 -84t-1 -114l-2 -265q47 2 98.5 5.5t100.5 7.5q98 6 196 -16.5t177 -74t127 -130 t48 -185.5q0 -121 -49 -210t-133 -144t-195.5 -75.5t-238.5 -4.5q-61 8 -125.5 10t-112.5 2q-37 0 -84 -1t-95 -3t-94 -3t-79 -3v12q57 8 101.5 18.5t73 30t45 52t18.5 88.5q2 43 2 132v190.5v193.5v141v203.5t-4 191.5q-2 55 -24.5 88t-59.5 51.5t-88.5 24.5t-108.5 6 q-121 -2 -186.5 -72.5t-81.5 -185.5l-19 2q2 55 4.5 99.5t1 87.5t-4.5 87t-11 97zM807 723l2 -301v-133.5t4 -102.5q6 -76 43 -118.5t143 -42.5q76 0 136.5 31.5t101.5 86t63.5 124t22.5 145.5q0 82 -26.5 150.5t-78 118.5t-123 77.5t-161.5 27.5h-127v-63z" />
<glyph unicode="&#x42b;" horiz-adv-x="2183" d="M125 1475v12q33 0 80 -1t97 -4t97 -5t82 -2q41 0 88 1t94.5 3t89.5 4t72 4v-14q-63 -6 -106 -17.5t-69.5 -32t-40 -53.5t-15.5 -82q-2 -35 -3 -84t-1 -114l-2 -265q47 2 98 5.5t100 7.5q98 6 196.5 -16.5t177.5 -74t127 -130t48 -185.5q0 -121 -49 -211t-133 -145.5 t-195.5 -74.5t-238.5 -3q-61 8 -126 10t-112 2q-37 0 -84 -1t-95 -3t-94 -3t-79 -3v12q57 8 101 18.5t73 30t45.5 52t18.5 88.5q2 43 2 132v190.5v193.5v141v105.5v115t-1 111.5t-3 96q-2 55 -18.5 88t-46.5 52.5t-74 29.5t-101 19zM588 723l2 -301v-133.5t4 -102.5 q6 -76 43 -117.5t143 -43.5q76 -2 136.5 29.5t101.5 86t63.5 125t22.5 146.5q0 82 -26.5 150.5t-78 118.5t-123 77.5t-161.5 27.5h-127v-63zM1350 1475v12q33 0 80 -1t97 -4t97 -5t82 -2q41 0 88 1t94 3t89 4t73 4v-14q-63 -6 -106 -17.5t-70 -32t-40 -53.5t-15 -82 q-2 -35 -3 -84t-1 -114l-3 -367l3 -301v-133.5t4 -102.5q4 -43 16 -72.5t40 -49t75 -32t121 -18.5v-14q-33 2 -79 4t-97.5 3t-100.5 2t-88 1q-37 0 -84 -1t-95 -3t-94.5 -3t-78.5 -3v12q57 8 101 18.5t72.5 30t45 52t18.5 88.5q2 43 2 132v190.5v193.5v141v105.5v115 t-1 111.5t-3 96q-2 55 -18.5 88t-46 52.5t-73.5 29.5t-101 19z" />
<glyph unicode="&#x42c;" horiz-adv-x="1386" d="M125 1475v12q33 0 80 -1t97 -4t97 -5t82 -2q41 0 88 1t94.5 3t89.5 4t72 4v-14q-63 -6 -106 -17.5t-69.5 -32t-40 -53.5t-15.5 -82q-2 -35 -3 -84t-1 -114l-2 -265q47 2 98 5.5t100 7.5q98 6 196.5 -16.5t177.5 -74t127 -130t48 -185.5q0 -121 -49 -211t-133 -145.5 t-195.5 -74.5t-238.5 -3q-61 8 -126 10t-112 2q-37 0 -84 -1t-95 -3t-94 -3t-79 -3v12q57 8 101 18.5t73 30t45.5 52t18.5 88.5q2 43 2 132v190.5v193.5v141v105.5v115t-1 111.5t-3 96q-2 55 -18.5 88t-46.5 52.5t-74 29.5t-101 19zM588 723l2 -301v-133.5t4 -102.5 q6 -76 43 -117.5t143 -43.5q76 -2 136.5 29.5t101.5 86t63.5 125t22.5 146.5q0 82 -26.5 150.5t-78 118.5t-123 77.5t-161.5 27.5h-127v-63z" />
<glyph unicode="&#x42d;" d="M131 354l14 17q31 -84 83.5 -148.5t120 -107.5t143 -64.5t153.5 -21.5q109 0 213.5 48t187 140t137 224t64.5 300l-456 -4q-49 0 -81 -18.5t-50.5 -46t-25.5 -59t-9 -58.5l-17 2q2 14 5 37.5t5.5 49.5t3.5 53.5t1 50.5q0 14 -2.5 37.5t-5.5 50t-6 52t-7 46.5l4 4q4 4 8 4 q10 -29 20.5 -50.5t27 -36.5t42 -24.5t66.5 -9.5q109 -2 205 -2q82 -2 160.5 -2h113.5q-4 129 -50 245t-128 203t-192.5 138t-239.5 51q-305 0 -426 -342h-25l64 340q51 14 108.5 26.5t110.5 20.5t100 12.5t76 4.5q166 0 323.5 -43t281.5 -134.5t199 -231.5t75 -337 t-67.5 -347.5t-184.5 -251.5t-274.5 -152.5t-337.5 -51.5q-12 0 -62.5 2t-116 8.5t-135 18.5t-119.5 35z" />
<glyph unicode="&#x42e;" horiz-adv-x="2748" d="M135 1475v12q33 0 80 -1t97 -4t97.5 -5t82.5 -2q41 0 88 1t94 3t89 4t73 4v-14q-63 -6 -106.5 -17.5t-70 -32t-40 -53.5t-15.5 -82q-2 -35 -3 -84t-1 -114l-2 -269l379 -4h27q14 135 74.5 262t164 225.5t249.5 157t331 58.5q174 0 321.5 -53.5t255 -151.5t168 -237.5 t60.5 -313.5q0 -172 -61.5 -319.5t-172 -255t-262.5 -168t-330 -60.5q-184 0 -332.5 63.5t-253 170t-161 248t-56.5 294.5v11h-401v-95l2 -231v-133.5t4 -102.5q4 -43 16.5 -72.5t40 -49t74.5 -32t121 -18.5v-14q-33 2 -79 4t-97 3t-100.5 2t-87.5 1q-37 0 -84.5 -1 t-95.5 -3t-94 -3t-79 -3v12q57 8 101.5 18.5t73 30t45 52t18.5 88.5q2 43 2 132v190.5v193.5v141v105.5v115t-1 111.5t-3 96q-2 55 -18.5 88t-46 52.5t-73.5 29.5t-102 19zM1284 780q0 -158 42 -294t117 -237.5t181.5 -158.5t235.5 -57q88 0 175 40t154.5 123t109.5 213 t42 310h2q0 154 -41 287t-116 231t-179 155.5t-229 57.5q-106 0 -196.5 -46t-157 -132t-103.5 -211t-37 -281z" />
<glyph unicode="&#x42f;" horiz-adv-x="1570" d="M29 -2q96 12 188 82t172 168t142.5 209.5t99.5 206.5q-156 45 -252 139t-96 237q0 109 52 192t135 138t184.5 84t199.5 29l238 -6q51 0 134 4t214 4v-15q-59 -8 -101.5 -18t-71 -29.5t-43 -52.5t-16.5 -88q-2 -43 -2 -96v-110.5v-114v-105.5v-61.5t-1 -85.5t-1 -98.5 v-96.5v-185t2 -128q2 -55 18.5 -88t45 -52.5t72.5 -30t102 -18.5v-12q-33 2 -79 3t-94 3t-95.5 3t-83.5 1q-39 0 -88.5 -1t-100.5 -2t-97 -3t-79 -4v14q74 6 121 18.5t74.5 32t40 49t16.5 72.5q4 35 4 102.5v133.5v209q-35 -4 -71.5 -3t-73.5 3q-53 -121 -117 -235.5 t-157 -206t-222 -147.5t-313 -60v16zM508 1028q0 -80 43 -141.5t112.5 -105.5t153.5 -68.5t168 -28.5v84l-2 326v313q-2 14 -14 20q-86 0 -169 -24.5t-147.5 -73.5t-104.5 -124t-40 -177z" />
<glyph unicode="&#x430;" horiz-adv-x="1656" d="M-12 0v14q68 12 112.5 30.5t77.5 48.5t57.5 75t51.5 111q12 31 40.5 101.5t68.5 165.5t86 206.5t93 224.5q109 262 240 577h16l543 -1284q43 -104 114 -174.5t181 -81.5v-14q-41 2 -90 6q-41 4 -94 6t-113 2q-47 0 -99 -2t-101.5 -5t-92.5 -5t-73 -2v14 q111 16 144.5 57.5t-1.5 141.5q-18 47 -40 108.5t-42 116.5q-23 66 -47 131l-246 4l-235 -4q-31 -80 -56 -147q-23 -57 -41 -108.5t-22 -67.5q-10 -33 -19.5 -63.5t-9.5 -51.5q0 -31 14.5 -52.5t37 -34.5t50 -20.5t54.5 -9.5v-14l-275 14q-4 0 -40.5 -2t-85 -5t-93.5 -5 t-65 -2zM561 645l207 -6l227 6l-213 526q-2 4 -4 12.5t-6 8.5q-6 0 -6 -8z" />
<glyph unicode="&#x431;" horiz-adv-x="1386" d="M125 1475v12q33 0 78 -1t93 -4t94 -5t81 -2t98.5 1t132 3t131 2h95.5h94t65.5 4t44 17.5t27.5 37.5l17 -10q-12 -47 -15.5 -96.5t-7.5 -71.5q-2 -23 -4 -50.5t-3 -56t-2 -54t-1 -42.5h-19q-4 57 -22.5 107.5t-50 87.5t-77.5 58.5t-108 21.5q-113 0 -189.5 -36t-80.5 -114 q-2 -35 -4 -82t-2 -112l-2 -265q47 2 98 5.5t100 7.5q98 6 196.5 -16.5t177.5 -74t127 -130t48 -185.5q0 -121 -49 -211t-133 -145.5t-195.5 -74.5t-238.5 -3q-61 8 -126 10t-112 2q-37 0 -84 -1t-95 -3t-94 -3t-79 -3v12q57 8 101 18.5t73 30t45.5 52t18.5 88.5q2 43 2 132 v190.5v193.5v141v105.5v115t-1 111.5t-3 96q-2 55 -18.5 88t-46.5 52.5t-74 29.5t-101 19zM588 723l2 -301v-133.5t4 -102.5q6 -76 43 -117.5t143 -43.5q76 -2 136.5 29.5t101.5 86t63.5 125t22.5 146.5q0 82 -26.5 150.5t-78 118.5t-123 77.5t-161.5 27.5h-127v-63z" />
<glyph unicode="&#x432;" horiz-adv-x="1409" d="M68 -18q76 16 124 41.5t75.5 63.5t37.5 89t10 119v563v105.5v113t-1 109.5t-3 96q-2 55 -17 88t-45 53.5t-74 30.5t-101 19v14q111 0 188.5 -7t136.5 -7q35 0 77 2t77 6l82 8q84 6 175 -6.5t167 -51t125 -107.5t49 -175q0 -78 -30.5 -135.5t-72.5 -95t-83 -60t-62 -29.5 v-10q74 -10 143.5 -36.5t125 -70.5t88 -108.5t32.5 -150.5q0 -90 -37.5 -172t-109.5 -145.5t-173.5 -100.5t-226.5 -37q-29 0 -65.5 4t-77.5 16.5t-85 35t-85 59.5q-109 -133 -360 -146zM532 1098q0 -166 3.5 -332t1.5 -334v-63.5t1 -57t1 -44v-23.5q2 -45 12 -80 t35.5 -58.5t67.5 -36t110 -12.5q45 0 96 19.5t94 61.5t71 108.5t28 161.5q0 82 -33 149.5t-88 116.5t-127 76.5t-148 27.5h-32v39h32q63 0 113.5 22.5t84.5 62.5t51.5 94.5t17.5 117.5q0 76 -23.5 133.5t-65.5 97t-96.5 60t-115.5 20.5q-55 0 -73 -25.5t-18 -47.5v-254z" />
<glyph unicode="&#x433;" horiz-adv-x="1216" d="M119 0v12q57 8 101 18.5t73 30t45 52t18 88.5q0 20 1 54t1 77v92v98v336v105.5v113t-1 109.5t-3 96q-2 55 -16 88t-42 52.5t-71 29.5t-100 18v17q45 -4 110.5 -6t135 -4t135 -2h112.5l295 2h94.5t66 4t44 17t27.5 38l16 -10q-12 -47 -15 -96.5t-7 -71.5q-2 -23 -4 -50.5 t-3.5 -56t-2.5 -54.5t-1 -42h-18q-10 115 -69.5 179.5t-182.5 66.5l-137 2h-139q0 -137 -1 -230.5t-1 -156v-100v-65.5v-52.5v-59v-87v-134.5v-96v-133.5t4 -102.5q4 -43 16 -72.5t40 -49t75 -32t121 -18.5v-14q-33 2 -79 4t-97.5 3t-100.5 2t-88 1q-37 0 -84 -1t-95 -3 t-94 -3t-79 -3z" />
<glyph unicode="&#x434;" horiz-adv-x="1761" d="M31 39q109 2 188.5 44t139 110.5t99.5 156.5t65.5 180.5t42 181.5t26.5 162q6 47 13 102.5t11.5 110t7.5 106.5t1 93q-2 55 -19.5 89t-50.5 54.5t-81 30.5t-109 21v18q78 -8 147.5 -11t138.5 -3q82 0 151.5 -1t129.5 1l371 6q41 0 90 2l98 4t92 4t74 4v-16 q-63 -6 -106.5 -17.5t-70 -32t-40 -53t-15.5 -81.5q-2 -35 -3 -84.5t-1 -114.5l-2 -377l2 -319v-127.5t4 -96.5q4 -43 16.5 -68.5t41 -42t76 -25.5t120.5 -15q-8 -41 -11 -94.5t-5 -107.5t-2 -101t-2 -74h-19q-4 55 -14 113.5t-38.5 106.5t-81 81t-142.5 37q-43 2 -122 3 t-162 2t-157.5 1h-107.5h-76.5t-70.5 -1t-105.5 -3t-181.5 -6q-82 -4 -138.5 -25.5t-92 -64.5t-56 -106.5t-28.5 -149.5h-19q-2 25 -2 75t-1 108t-4 114.5t-9 95.5zM365 68l417 4q43 0 74 1t59.5 1t59.5 2t74 6q72 6 111.5 40t39.5 116v514v262t-4 207q-2 55 -10 91 t-32 57.5t-67 30.5t-114 9q-84 0 -134.5 -18.5t-78 -51t-37.5 -76.5t-16 -96l-37 -295q-14 -121 -40 -237.5t-65 -221t-89 -192.5t-111 -153z" />
<glyph unicode="&#x435;" horiz-adv-x="1357" d="M125 1470v17q45 -4 110.5 -6t135 -4t135 -2h112.5l306 2h89t65.5 5t46 17t32.5 37l14 -10q-12 -47 -15 -96.5t-7 -71.5q-2 -23 -4 -50.5t-3 -56t-2 -54.5t-1 -42h-19q-10 115 -69.5 178.5t-182.5 67.5l-106 2h-180v-586h80t118 2q72 0 156 2q41 0 66.5 9.5t42 24.5 t26.5 36.5t21 50.5q4 0 8 -4l4 -4q-4 -20 -7 -46t-6.5 -52.5t-5.5 -50t-2 -37.5v-50.5t1 -54.5t1 -49.5v-34.5l-18 2q-2 27 -7 57.5t-20.5 56t-45 43t-79.5 17.5l-333 6v-178l2 -280q0 -55 10 -95.5t35.5 -67t70.5 -37.5t117 -7q29 2 45.5 2t30.5 1t29.5 2t42.5 5 q45 6 82.5 19.5t69.5 42t60.5 76.5t55.5 122l16 -8l-71 -287q-8 -29 -19.5 -40t-40.5 -11l-614 10l-375 -10v16q57 8 99 18.5t70 30t42 52.5t16 88q2 43 2 132v188.5v191.5v141v105.5v113t-1 109.5t-3 96q-2 55 -16 88t-42 52.5t-71 29.5t-100 18z" />
<glyph unicode="&#x436;" horiz-adv-x="2557" d="M8 -31l4 21q88 0 178.5 46t176.5 116.5t161.5 156.5t137.5 166q39 49 78.5 103.5t77.5 105.5t72 98t60 82q-16 18 -49 51t-73.5 75t-86 86t-85 84t-72.5 72t-47 46q-66 63 -124.5 102t-121.5 66q-14 6 -34.5 10t-41 7t-39 4t-28.5 1v19l233 -10l332 10v-19 q-66 -4 -82.5 -26.5t-7 -52t35 -62.5t44.5 -57q16 -23 48.5 -61t73.5 -85t86.5 -97t86 -95t74.5 -82t50 -55q-41 -53 -95 -132t-109.5 -160t-107.5 -152.5t-91 -110.5q-61 -66 -133 -120t-158 -92t-190.5 -54.5t-233.5 -4.5zM924 1475v12q33 0 80 -1t97 -4t97 -5t82 -2 q41 0 88 1t94 3t89 4t73 4v-14q-63 -6 -106 -17.5t-70 -32t-40 -53.5t-15 -82q-2 -35 -3 -84t-1 -114l-3 -367l3 -301v-133.5t4 -102.5q4 -43 16 -72.5t40 -49t75 -32t121 -18.5v-14q-33 2 -79 4t-97.5 3t-100.5 2t-88 1q-37 0 -84 -1t-95 -3t-94 -3t-79 -3v12 q57 8 101 18.5t72.5 30t45 52t18.5 88.5q2 43 2 132v190.5v193.5v141v105.5v115t-1 111.5t-3 96q-2 55 -18.5 88t-46 52.5t-73.5 29.5t-101 19zM1427 799q16 18 49 54t74 81t85 94t85 95t74 82t51 57q20 25 46 58.5t35 65t-10.5 56t-86.5 28.5v19l332 -10l233 10v-19 q-10 0 -28.5 -1t-39 -4t-41 -7t-34.5 -10q-47 -18 -113.5 -61.5t-132.5 -106.5q-23 -23 -77 -79t-115.5 -119.5t-118 -122t-80.5 -85.5q70 -104 157 -233t189 -260t217 -256t240 -221.5t258 -154.5t272 -58q96 0 189.5 25.5t181.5 66.5l12 -14q-70 -53 -141.5 -87 t-143 -52.5t-139 -25.5t-129.5 -7q-150 0 -285 57t-260 152.5t-236.5 219.5t-212 258t-189.5 267t-167 248z" />
<glyph unicode="&#x437;" horiz-adv-x="1247" d="M20 360l19 15q33 -90 82 -153.5t110.5 -104.5t130 -60.5t140.5 -19.5q88 0 153.5 27.5t108.5 78t64.5 120t21.5 153.5q0 104 -38 172.5t-100.5 109.5t-144.5 57.5t-168 16.5l-20 45q68 14 139.5 43t130 76t96 115.5t37.5 165.5q0 47 -10 90t-34.5 75.5t-65.5 52 t-103 19.5q-143 0 -258.5 -80t-175.5 -250h-24l63 340q102 31 207.5 47.5t187.5 16.5q129 0 220.5 -27.5t149.5 -73t85 -103.5t27 -120q0 -68 -29 -126t-76 -105t-108.5 -80t-126.5 -47q88 -10 163.5 -42t131 -84t87 -123t31.5 -159q0 -102 -43 -188t-123.5 -148.5 t-196.5 -97.5t-261 -35q-86 0 -183.5 16.5t-197.5 51.5z" />
<glyph unicode="&#x438;" horiz-adv-x="1935" d="M90 1475v12q33 0 80 -1t97 -4t97.5 -5t81.5 -2q41 0 88.5 1t94.5 3t89 4t73 4v-14q-63 -6 -106.5 -17.5t-70 -32t-40 -53.5t-15.5 -82q-2 -35 -3 -84t-1 -114l-2 -367v-358q225 215 447.5 443t441.5 447v31q-2 55 -18.5 88t-46 52.5t-73.5 29.5t-102 19v12q33 0 80 -1 t97.5 -4t97.5 -5t82 -2q41 0 88 1t94 3t89 4t73 4v-14q-63 -6 -106.5 -17.5t-70 -32t-40 -53.5t-15.5 -82q-2 -35 -3 -84t-1 -114l-2 -367l2 -301v-133.5t4 -102.5q4 -43 16.5 -72.5t40 -49t74.5 -32t121 -18.5v-14q-33 2 -79 4t-97 3t-100.5 2t-87.5 1q-37 0 -84.5 -1 t-95.5 -3t-94 -3t-79 -3v12q57 8 101.5 18.5t73 30t45 52t18.5 88.5q2 43 2 132v190.5v193.5v141v250q-264 -248 -478 -471t-413 -408v-16v-6t1 -6t1 -15q2 -43 15.5 -72.5t41 -49t75.5 -32t122 -18.5v-14q-33 2 -79 4t-97 3t-100.5 2t-88.5 1q-37 0 -84 -1t-95 -3t-94 -3 t-79 -3v12q57 8 101.5 18.5t73 30t45 52t18.5 88.5q2 43 2 132v190.5v193.5v141v105.5v115t-1 111.5t-3 96q-2 55 -18.5 88t-46 52.5t-74 29.5t-101.5 19z" />
<glyph unicode="&#x439;" horiz-adv-x="1935" d="M90 1475v12q33 0 80 -1t97 -4t97.5 -5t81.5 -2q41 0 88.5 1t94.5 3t89 4t73 4v-14q-63 -6 -106.5 -17.5t-70 -32t-40 -53.5t-15.5 -82q-2 -35 -3 -84t-1 -114l-2 -367v-358q225 215 447.5 443t441.5 447v31q-2 55 -18.5 88t-46 52.5t-73.5 29.5t-102 19v12q33 0 80 -1 t97.5 -4t97.5 -5t82 -2q41 0 88 1t94 3t89 4t73 4v-14q-63 -6 -106.5 -17.5t-70 -32t-40 -53.5t-15.5 -82q-2 -35 -3 -84t-1 -114l-2 -367l2 -301v-133.5t4 -102.5q4 -43 16.5 -72.5t40 -49t74.5 -32t121 -18.5v-14q-33 2 -79 4t-97 3t-100.5 2t-87.5 1q-37 0 -84.5 -1 t-95.5 -3t-94 -3t-79 -3v12q57 8 101.5 18.5t73 30t45 52t18.5 88.5q2 43 2 132v190.5v193.5v141v250q-264 -248 -478 -471t-413 -408v-16v-6t1 -6t1 -15q2 -43 15.5 -72.5t41 -49t75.5 -32t122 -18.5v-14q-33 2 -79 4t-97 3t-100.5 2t-88.5 1q-37 0 -84 -1t-95 -3t-94 -3 t-79 -3v12q57 8 101.5 18.5t73 30t45 52t18.5 88.5q2 43 2 132v190.5v193.5v141v105.5v115t-1 111.5t-3 96q-2 55 -18.5 88t-46 52.5t-74 29.5t-101.5 19zM741 1927h31q16 -55 45 -92t63.5 -59.5t71.5 -31.5t70 -9t69.5 9t72.5 31.5t66 59.5t46 92h31q0 -39 -20.5 -95 t-57.5 -108.5t-89.5 -88.5t-115.5 -36q-68 0 -120 37t-88 89.5t-55.5 107.5t-19.5 94z" />
<glyph unicode="&#x43a;" horiz-adv-x="1751" d="M117 1475v12q33 0 80 -1t97 -4t97 -5t82 -2q41 0 88 1t94 3t89 4t73 4v-14q-63 -6 -106 -17.5t-70 -32t-40 -53.5t-15 -82q-2 -35 -3 -84t-1 -114l-2 -367l2 -301v-133.5t4 -102.5q4 -43 16 -72.5t40 -49t75 -32t121 -18.5v-14q-33 2 -79 4t-97.5 3t-100.5 2t-88 1 q-37 0 -84 -1t-95 -3t-94 -3t-79 -3v12q57 8 101 18.5t74 30t45 52t17 88.5q2 43 2 132v190.5v193.5v141v105.5v115t-1 111.5t-3 96q-2 55 -18 88t-46 52.5t-74 29.5t-101 19zM625 797q16 18 52 55t81 83t95 96l95 95l81 81t52 53q23 23 51.5 55.5t39 65t-10 57t-96.5 30.5 v19l332 -10l233 10v-19q-10 0 -28.5 -1t-39 -4t-41 -7t-34.5 -10q-47 -18 -113.5 -61.5t-132.5 -106.5q-23 -23 -80 -76t-120.5 -113.5t-122 -117t-82.5 -82.5q70 -104 156.5 -233.5t188 -261.5t216 -257t238.5 -222t257.5 -156.5t272.5 -59.5q96 0 179 20.5t171 61.5 l12 -14q-47 -43 -116.5 -76t-146.5 -54.5t-152.5 -32t-137.5 -10.5q-150 0 -285 57.5t-259.5 153t-236.5 219t-212 258t-189.5 267.5t-166.5 248z" />
<glyph unicode="&#x43b;" horiz-adv-x="1773" d="M55 100q0 18 6.5 43t21.5 46.5t44 37t72 15.5q51 0 81.5 -23.5t55 -46t47.5 -32t59 19.5q51 39 86 111.5t58.5 168t39 208t27.5 233.5q10 98 19.5 207.5t5.5 195.5q-2 55 -19.5 88t-49 51.5t-78 28.5t-103.5 18v17q39 -4 71.5 -7t61.5 -5t58.5 -3.5t64.5 -1.5l311 3 l273 4q41 0 91 3l100 6t95 6t76 5v-14q-63 -6 -106 -17.5t-70 -32t-40 -53t-15 -82.5q-2 -35 -3 -84t-1 -114l-2 -377l2 -301v-68v-67.5t1 -59t3 -43.5q4 -43 16 -72.5t40 -49t75 -32t121 -18.5v-14q-33 2 -79 4t-97.5 3t-100.5 2t-88 1q-37 0 -84 -1t-95 -3t-94 -3t-79 -3 v12q57 8 101 18.5t73 30t45 52t18 88.5q2 31 2.5 95t0.5 143v161v147v58v108.5v121v117.5t-3 99q-4 68 -40.5 111t-135.5 43q-104 0 -154 -47t-61 -142l-35 -391q-18 -176 -53 -332.5t-94 -275.5t-147.5 -188.5t-214.5 -69.5q-33 0 -66 8t-58.5 25.5t-41 45t-15.5 64.5z" />
<glyph unicode="&#x43c;" horiz-adv-x="2164" d="M16 0v14q53 8 96.5 24.5t76 49.5t55 84t37.5 131l147 858q-14 33 -27 64l-20 50t-16 38q-37 78 -93.5 113.5t-134.5 46.5v14q20 -2 50 -3t62 -2t60.5 -1h48.5q53 0 103.5 1t87.5 5q63 -139 126.5 -288.5t128 -300t128 -300t125.5 -287.5q70 137 141.5 284.5t142 298 t141 300t140.5 293.5q16 -2 40 -3t49.5 -2t49 -2t39.5 -1q55 0 99.5 2t80.5 6v-14q-63 -6 -104 -17.5t-66.5 -32t-38 -53.5t-14.5 -82q0 -8 1 -29.5t3 -33.5q10 -98 24.5 -213t28 -224.5t24.5 -200.5t17 -141q6 -59 13 -112q4 -45 9 -87t9 -59q8 -43 19.5 -72.5t38 -49 t71.5 -31.5t119 -19v-16q-43 2 -92 5t-97.5 5t-94.5 3t-83 1q-96 0 -180 -4t-170 -10v14q57 8 98 18.5t68 30t40 52t15 88.5q2 29 -5 109.5t-17 177t-21.5 192.5t-17.5 156q-2 27 -7 68.5t-10.5 83.5t-9.5 77t-4 47h-8q-57 -123 -90 -196.5t-56.5 -129t-48 -108.5 t-64.5 -136t-103.5 -212t-165.5 -334h-15q-119 264 -245.5 523t-243.5 523h-6l-29 -200q-12 -86 -27.5 -189.5t-31.5 -195.5q-12 -74 -22.5 -145.5t-12.5 -106.5q-2 -37 7 -69t35.5 -56.5t74 -41.5t120.5 -24v-16q-47 4 -137 8t-182 4q-90 0 -161 -4t-118 -8z" />
<glyph unicode="&#x43d;" horiz-adv-x="1992" d="M135 1475v12q33 0 80 -1t97 -4t97.5 -5t82.5 -2q41 0 88 1t94 3t89 4t73 4v-14q-63 -6 -106.5 -17.5t-70 -32t-40 -53.5t-15.5 -82q-2 -35 -3 -84t-1 -114l-2 -269l379 -4l416 2v25v108.5v118.5t-1 115.5t-3 99.5q-2 55 -18.5 88t-46.5 52.5t-74 29.5t-101 19v12 q33 0 80 -1t97 -4t97 -5t82 -2q41 0 88 1t94.5 3t89.5 4t72 4v-14q-63 -6 -106 -17.5t-69.5 -32t-40 -53.5t-15.5 -82q-2 -35 -3 -84t-1 -114l-2 -367l2 -301v-133.5t4 -102.5q4 -43 16.5 -72.5t40 -49t74.5 -32t121 -18.5v-14q-33 2 -79 4t-97.5 3t-100.5 2t-88 1 q-37 0 -84 -1t-95 -3t-94 -3t-79 -3v12q57 8 101 18.5t73 30t45.5 52t18.5 88.5q2 31 2 95v142v160v150h-795v-95l2 -231v-133.5t4 -102.5q4 -43 16.5 -72.5t40 -49t74.5 -32t121 -18.5v-14q-33 2 -79 4t-97 3t-100.5 2t-87.5 1q-37 0 -84.5 -1t-95.5 -3t-94 -3t-79 -3v12 q57 8 101.5 18.5t73 30t45 52t18.5 88.5q2 43 2 132v190.5v193.5v141v105.5v115t-1 111.5t-3 96q-2 55 -18.5 88t-46 52.5t-73.5 29.5t-102 19z" />
<glyph unicode="&#x43e;" horiz-adv-x="1867" d="M119 737q0 147 54 287.5t158.5 250t258 177.5t352.5 68q174 0 321.5 -53.5t255 -151.5t168 -237.5t60.5 -313.5q0 -172 -61.5 -319.5t-172 -255t-262 -168t-329.5 -60.5q-184 0 -333 63.5t-253.5 170t-160.5 248t-56 294.5zM403 780q0 -158 42 -294t117 -237.5 t181.5 -158.5t235.5 -57q88 0 175 40t154.5 123t110.5 213t43 310q0 154 -41 287t-115.5 231t-179 155.5t-229.5 57.5q-106 0 -196.5 -46t-157 -132t-103.5 -211t-37 -281z" />
<glyph unicode="&#x43f;" horiz-adv-x="1959" d="M127 1485v12q33 0 80 -1t97 -4t97.5 -5t81.5 -2l447 -4l586 4q41 0 88 1t94 3t89 4t73 4v-14q-63 -6 -106.5 -17.5t-70 -32t-40 -53t-15.5 -82.5q-2 -35 -3 -84t-1 -114l-2 -377l2 -301v-133.5t4 -102.5q4 -43 16.5 -72.5t40 -49t74.5 -32t121 -18.5v-14q-33 2 -79 4 t-97 3t-100.5 2t-87.5 1q-37 0 -84.5 -1t-95.5 -3t-94 -3t-79 -3v12q57 8 101.5 18.5t73 30t45 52t18.5 88.5q2 31 2 95v142v160v147v58v211.5t-4 199.5q-2 55 -18.5 90t-46 56.5t-73.5 31t-102 11.5q-47 2 -87 3t-89 1q-37 0 -78 -2t-78 -4q-63 -4 -106 -14.5t-69.5 -32 t-40 -55t-15.5 -82.5q0 -16 -1 -31t-2 -32t-1 -39.5v-55.5l-2 -311v-95l2 -231v-133.5t4 -102.5q4 -43 16.5 -72.5t40 -49t74.5 -32t121 -18.5v-14q-33 2 -79 4t-97 3t-100.5 2t-88.5 1q-37 0 -84 -1t-95 -3t-94 -3t-79 -3v12q57 8 101 18.5t73 30t45.5 52t18.5 88.5 q2 43 2 132v190.5v193.5v141v107.5v118t-1 114.5t-3 98q-2 55 -18.5 88t-46.5 52.5t-74 30t-101 18.5z" />
<glyph unicode="&#x440;" horiz-adv-x="1386" d="M129 0v12q57 8 101 18.5t73 30t45.5 52t18.5 88.5q2 43 2 132v190.5v193.5v141v104.5v113t-1 109.5t-3 95q-2 55 -16.5 88t-43.5 53.5t-72 30.5t-100 18v17q25 -2 61.5 -3t80.5 -2t93.5 -2t96.5 -1l293 8q86 0 180 -16.5t173 -60.5t131 -122t52 -201q0 -115 -54 -209 t-140 -159.5t-193.5 -99t-214.5 -27.5v18q82 8 152.5 35t121 75t79 115.5t28.5 157.5q0 84 -26.5 162t-76.5 137.5t-122 97t-160 42.5q-47 4 -84 0l-14 -27v-465l-2 -217l2 -301v-133.5t4 -102.5q4 -43 16.5 -72.5t40 -49t74.5 -32t121 -18.5v-14q-33 2 -79 4t-97.5 3 t-100.5 2t-88 1q-37 0 -84 -1t-95 -3t-94 -3t-79 -3z" />
<glyph unicode="&#x441;" d="M109 754q0 182 79.5 323.5t205.5 238.5t283 148.5t310 51.5q27 0 75 -1.5t108.5 -9.5t127 -23.5t132.5 -41.5l63 -332l-25 -4q-18 74 -62 136.5t-107.5 108.5t-146.5 71.5t-179 25.5q-133 0 -240.5 -51.5t-185.5 -139.5t-120 -205.5t-42 -250.5q0 -182 59.5 -324.5 t154.5 -242t211 -151.5t230 -52q76 0 148 21.5t133 64.5t109.5 107.5t78.5 148.5l15 -17l-99 -323q-49 -23 -113.5 -35t-125 -18.5t-105.5 -8.5t-57 -2q-182 0 -347 49.5t-292 147.5t-201.5 245.5t-74.5 344.5z" />
<glyph unicode="&#x442;" horiz-adv-x="1460" d="M-4 1208q0 6 12 60.5t29 120.5q18 74 43 167l12 13q16 -31 45 -47.5t60.5 -25.5t65.5 -12t59 -3l407 -11l469 11q72 2 115 7t69.5 15t39 23.5t22.5 32.5l16 -9l-65 -374l-17 4q8 123 -44 167t-169 46l-334 4l-2 -883v-92v-133.5t5 -102.5q4 -43 16 -72.5t40 -49t75 -32 t120 -18.5v-14q-33 2 -78.5 4t-97 3t-100.5 2t-88 1q-37 0 -84 -1t-95 -3t-94.5 -3t-78.5 -3v12q57 8 101 18.5t73.5 30t45 52t17.5 88.5q2 41 3 128t1 185v524q0 59 -1 123t-1 117v119l-332 -4q-61 0 -99 -10.5t-64.5 -34t-49 -60.5t-53.5 -90z" />
<glyph unicode="&#x443;" horiz-adv-x="1570" d="M27 1470v19q35 -2 81 -5t95 -5t95 -3t81 -1h47t80 2t97 4t99 8v-16q-23 -4 -47 -8.5t-46.5 -12.5t-37 -21.5t-14.5 -35.5q0 -12 2 -19q16 -78 55 -177t85 -203.5t95.5 -207t86.5 -186.5l241 596q29 72 43.5 117t14.5 61q0 25 -12.5 41.5t-32 28.5t-43 18t-48.5 11v12 l238 -12q84 0 167 5t142 9v-14q-117 -12 -190.5 -64.5t-116.5 -150.5l-422 -977q-51 -117 -102 -191t-104.5 -116t-107.5 -58t-112 -16q-61 0 -106 19.5t-75 50t-43 69.5t-11 78q0 14 6 37.5t20.5 47t41 41t67.5 17.5q35 0 57.5 -10t35.5 -24.5t18.5 -32t5.5 -29.5 q2 -14 -7.5 -35.5t-15.5 -36.5q-14 -33 3.5 -65.5t64.5 -32.5q43 0 85 36t77.5 86t63.5 104t42 91q-23 49 -57.5 128t-78.5 174.5t-92.5 201t-96.5 205.5t-94 190.5t-83 153.5q-35 57 -96.5 75.5t-140.5 28.5z" />
<glyph unicode="&#x444;" horiz-adv-x="1761" d="M92 745q0 135 57.5 240t149.5 180.5t210 121.5t241 63q-20 66 -77 88t-153 37v12q33 0 80 -1t97.5 -4t97.5 -5t82 -2q41 0 88 2l94 4t89 4t73 2v-14q-102 -10 -152.5 -35t-69.5 -82q119 -10 241 -52t218 -116t157.5 -180.5t61.5 -247.5t-58 -251t-154.5 -186.5 t-218.5 -121.5t-247 -60h-2q14 -59 66.5 -87.5t177.5 -39.5v-14q-33 2 -79 3t-97 3t-100.5 3t-87.5 1q-37 0 -84.5 -1t-95.5 -3t-94 -4t-79 -2v12q98 14 154.5 37t75.5 92q-125 14 -244 59.5t-212 120t-149.5 180t-56.5 244.5zM369 764q0 -109 30.5 -201t85 -163.5t125 -121 t150.5 -69.5v82q2 55 2 115.5v125.5q2 98 1 187.5t-1 138.5l2 209v86t-2 141q-96 -18 -170 -68t-123 -123t-74.5 -160t-25.5 -179zM983 705.5q0 -35.5 1 -101t1 -182.5v-128t4 -101q92 14 167 63t128 123t83 169.5t30 199.5q0 98 -31 186t-84 159.5t-129 122t-164 70.5 q-2 -35 -3 -84t-1 -112l-2 -312v-23.5v-49z" />
<glyph unicode="&#x445;" horiz-adv-x="1480" d="M-39 -6v14q117 10 196 64.5t136 128.5q14 20 38.5 53t53.5 73t61.5 85t63.5 88q74 102 158 219q-51 82 -101 164q-41 70 -89 146.5t-83 137.5q-10 18 -29.5 47t-40 60t-39 56.5t-26.5 35.5q-47 51 -102.5 72.5t-134.5 31.5v19q35 -2 81 -5t95 -5t95 -3t81 -1h47t80 2 t97 4t99 8v-16q-25 -6 -49 -10.5t-45.5 -13.5t-35 -25.5t-13.5 -47.5q0 -25 20.5 -63.5t49.5 -85.5q27 -45 54.5 -94.5t54 -94.5t47 -81.5t32.5 -57.5q8 12 31.5 48t54.5 83t64.5 99.5t58.5 95.5q49 84 59 123q8 33 -1 55t-29.5 36.5t-47 22.5t-53.5 13v12q66 4 117 -4 t121 -8q84 0 167 5t142 9v-14q-57 -6 -101 -27t-81 -51.5t-69 -68.5t-64 -81q-31 -41 -83 -113.5t-104 -142.5q-59 -82 -125 -176q59 -96 115 -188q47 -78 99.5 -164t89.5 -148q10 -16 28.5 -45.5t39 -60.5t38.5 -57.5t29 -36.5q47 -51 102 -71.5t133 -33.5v-16q-35 2 -81 5 t-94 5t-94 3t-81 1h-49t-80 -2t-96 -4t-99 -8v16q23 6 48.5 10.5t47 13.5t35 25.5t13.5 46.5q0 25 -20.5 64t-49.5 86q-27 43 -59.5 99.5t-65.5 110.5t-58.5 98t-35.5 65q-8 -12 -38 -55.5t-67.5 -98.5t-76.5 -114.5t-64 -102.5q-27 -43 -41 -73.5t-18 -49.5q-8 -33 1 -55.5 t28.5 -36.5t46 -22.5t53.5 -12.5v-14q-66 -2 -117 5t-121 7q-41 0 -89 -1t-96 -3t-91 -4t-74 -4z" />
<glyph unicode="&#x446;" horiz-adv-x="1959" d="M127 -2q57 8 101 18.5t74 30t46.5 52t18.5 87.5q2 43 3 98.5t1 115v117.5v108v143v197.5v194.5t-2 134q-2 55 -18.5 88t-45.5 52.5t-73 30t-101 18.5v12q33 -2 79 -4t94 -3t95 -2t84 -1q39 0 88.5 1t100.5 2t97 3t79 4v-14q-74 -6 -121 -18.5t-74.5 -33t-40 -49 t-16.5 -71.5q-4 -35 -4 -102.5v-133.5l-2 -338l2 -311q0 -66 1 -95.5t3 -62.5q2 -49 15.5 -82.5t40 -55.5t69.5 -33t106 -13q51 -2 99.5 -3t95.5 -1h67.5t46 -1t47 0t68.5 5q72 6 112 40t40 116v499v150v163.5v146.5t-2 97q-2 55 -18.5 88t-45 52.5t-72.5 30t-102 18.5v12 q33 -2 79 -4t94 -3t95.5 -2t84.5 -1q39 0 88 1t100 2t97 3t79 4v-14q-74 -6 -121 -18.5t-74.5 -33t-40 -49t-16.5 -71.5q-4 -35 -4 -102.5v-133.5l-2 -344l2 -319v-127.5t4 -96.5q4 -43 16.5 -68.5t41 -42t75.5 -25.5t121 -15q-8 -41 -11 -94.5t-5 -107.5t-2 -101t-2 -74 h-19q-4 55 -14 113.5t-39 106.5t-81 81t-142 37q-43 2 -124 3t-167 2t-163 1h-109l-521 -4q-35 0 -82 -2t-97 -5t-97 -4t-80 -1v12z" />
<glyph unicode="&#x447;" horiz-adv-x="1685" d="M10 1466v15q33 -2 78 -4t95 -3t98.5 -2.5t87.5 -1.5q72 0 162 3.5t155 7.5v-13q-45 -6 -81 -16t-61.5 -29.5t-40 -53.5t-16.5 -89q-2 -31 -2 -80t1 -98t2 -91t4 -61q10 -109 34.5 -178.5t102.5 -109.5q31 -16 90 -23.5t127.5 -8.5t137.5 4t118 13v76l-2 217l-2 342 q0 49 -11.5 81t-39 52.5t-72.5 31.5t-109 19v15q33 -2 76 -4t90 -3t93 -2.5t85 -1.5q37 0 84 1.5t95.5 2.5t94.5 3t79 4v-13q-57 -8 -101.5 -18t-73 -29.5t-45 -52.5t-18.5 -88q-2 -43 -3 -95t-1 -109.5v-113v-104.5v-141v-193.5v-190.5t2 -132q2 -55 18.5 -88t45 -52.5 t72.5 -30t102 -18.5v-12q-33 2 -79 3t-94.5 3t-95.5 3t-84 1q-39 0 -88 -1t-100 -2t-97 -3t-79 -4v14q74 6 121 18.5t74.5 32t40 49t16.5 72.5q4 35 4 102.5v133.5v186q-47 -8 -108.5 -14t-128 -9t-130 -2t-112.5 9q-82 14 -146.5 42t-110 74t-70 115.5t-28.5 171.5 q0 16 -1 48t-2 72t-3 82t-4 79q-4 43 -15.5 74.5t-38 55.5t-72.5 39t-120 21z" />
<glyph unicode="&#x448;" horiz-adv-x="2529" d="M127 -2q57 8 101 18.5t74 30t46.5 52t18.5 87.5q2 43 3 98.5t1 115v117.5v108v143v197.5v194.5t-2 134q-2 55 -18.5 88t-45.5 52.5t-73 30t-101 18.5v12q33 -2 79 -4t94 -3t95 -2t84 -1q39 0 85 1t93.5 2t90.5 3t75 4v-14q-74 -6 -117.5 -18.5t-67.5 -33t-33 -49 t-13 -71.5q-4 -35 -4 -102.5v-133.5l-2 -244v-94l2 -311q0 -66 1 -95.5t3 -62.5q2 -49 16.5 -85t47 -59.5t87 -34.5t138.5 -11q70 0 119 6t81.5 24.5t48 50t17.5 83.5q2 43 2 124.5v172v175.5v134v107.5v119t-1 115.5t-3 98q-2 55 -15.5 88t-39 52.5t-66.5 29.5t-98 19v12 q33 0 77 -1t90 -4t90 -5t79 -2q41 0 85 1t87 3t82 4t69 4v-14q-63 -6 -103 -17.5t-62.5 -32t-33 -53.5t-12.5 -82q-2 -35 -3 -84t-1 -114l-2 -379l2 -301v-108t4 -77q6 -78 72 -113.5t229 -37.5q57 0 103.5 5t78 21.5t48 48t16.5 89.5v499v150v163.5v146.5t-2 97 q-2 55 -18.5 88t-45 52.5t-72.5 30t-101 18.5v12q33 -2 78.5 -4t94 -3t95.5 -2t84 -1q39 0 88 1t100 2t97.5 3t78.5 4v-14q-74 -6 -121 -18.5t-74.5 -33t-40 -49t-16.5 -71.5q-4 -35 -4 -102.5v-133.5l-2 -344l2 -319v-127.5t4 -96.5q2 -49 15.5 -81.5t40 -53t69.5 -32 t107 -17.5v-14q-51 4 -133 7t-160 5q-43 2 -103.5 2h-122t-116.5 -1t-88 -1q-102 2 -201.5 3t-202.5 1l-772 -6q-35 0 -82 -2t-97 -5t-97 -4t-80 -1v12z" />
<glyph unicode="&#x449;" horiz-adv-x="2529" d="M127 -2q57 8 101 18.5t74 30t46.5 52t18.5 87.5q2 43 3 98.5t1 115v117.5v108v143v197.5v194.5t-2 134q-2 55 -18.5 88t-45.5 52.5t-73 30t-101 18.5v12q33 -2 79 -4t94 -3t95 -2t84 -1q39 0 85 1t93.5 2t90.5 3t75 4v-14q-74 -6 -117.5 -18.5t-67.5 -33t-33 -49 t-13 -71.5q-4 -35 -4 -102.5v-133.5l-2 -244v-94l2 -311q0 -66 1 -95.5t3 -62.5q2 -49 16.5 -85t47 -59.5t87 -34.5t138.5 -11q70 0 119 6t81.5 24.5t48 50t17.5 83.5q2 43 2 124.5v172v175.5v134v107.5v119t-1 115.5t-3 98q-2 55 -15.5 88t-39 52.5t-66.5 29.5t-98 19v12 q33 0 77 -1t90 -4t90 -5t79 -2q41 0 85 1t87 3t82 4t69 4v-14q-63 -6 -103 -17.5t-62.5 -32t-33 -53.5t-12.5 -82q-2 -35 -3 -84t-1 -114l-2 -379l2 -301v-108t4 -77q6 -78 71.5 -113.5t229.5 -37.5q57 0 103.5 5t78 21.5t48 48t16.5 89.5v499v150v163.5v146.5t-2 97 q-2 55 -18.5 88t-45 52.5t-72.5 30t-101 18.5v12q33 -2 78.5 -4t94 -3t95.5 -2t84 -1q39 0 88 1t100 2t97.5 3t78.5 4v-14q-74 -6 -121 -18.5t-74.5 -33t-40 -49t-16.5 -71.5q-4 -35 -4 -102.5v-133.5l-2 -344l2 -319v-127.5t4 -96.5q4 -43 16.5 -68.5t41 -42t76 -25.5 t120.5 -15q-8 -41 -11 -94.5t-5 -107.5t-2 -101t-2 -74h-19q-4 55 -14 113.5t-38.5 106.5t-81 81t-142.5 37q-43 2 -103.5 3t-122 1h-116.5h-88q-102 2 -201.5 3t-202.5 1l-772 -6q-35 0 -82 -2t-97 -5t-97 -4t-80 -1v12z" />
<glyph unicode="&#x44a;" horiz-adv-x="1605" d="M6 1538l19 10q14 -25 34.5 -39t50 -21t69.5 -9t95 -4q33 -2 90.5 -2h121t122 1t92.5 1q41 0 88.5 1t94.5 3t89 4t72 4v-14q-63 -6 -106 -17.5t-69.5 -32t-40 -53.5t-15.5 -82q-2 -35 -3 -84t-1 -114l-2 -265q47 2 98.5 5.5t100.5 7.5q98 6 196 -16.5t177 -74t127 -130 t48 -185.5q0 -121 -49 -210t-133 -144t-195.5 -75.5t-238.5 -4.5q-61 8 -125.5 10t-112.5 2q-37 0 -84 -1t-95 -3t-94 -3t-79 -3v12q57 8 101.5 18.5t73 30t45 52t18.5 88.5q2 43 2 132v190.5v193.5v141v203.5t-4 191.5q-2 55 -24.5 88t-59.5 51.5t-88.5 24.5t-108.5 6 q-121 -2 -186.5 -72.5t-81.5 -185.5l-19 2q2 55 4.5 99.5t1 87.5t-4.5 87t-11 97zM807 723l2 -301v-133.5t4 -102.5q6 -76 43 -118.5t143 -42.5q76 0 136.5 31.5t101.5 86t63.5 124t22.5 145.5q0 82 -26.5 150.5t-78 118.5t-123 77.5t-161.5 27.5h-127v-63z" />
<glyph unicode="&#x44b;" horiz-adv-x="2183" d="M125 1475v12q33 0 80 -1t97 -4t97 -5t82 -2q41 0 88 1t94.5 3t89.5 4t72 4v-14q-63 -6 -106 -17.5t-69.5 -32t-40 -53.5t-15.5 -82q-2 -35 -3 -84t-1 -114l-2 -265q47 2 98 5.5t100 7.5q98 6 196.5 -16.5t177.5 -74t127 -130t48 -185.5q0 -121 -49 -211t-133 -145.5 t-195.5 -74.5t-238.5 -3q-61 8 -126 10t-112 2q-37 0 -84 -1t-95 -3t-94 -3t-79 -3v12q57 8 101 18.5t73 30t45.5 52t18.5 88.5q2 43 2 132v190.5v193.5v141v105.5v115t-1 111.5t-3 96q-2 55 -18.5 88t-46.5 52.5t-74 29.5t-101 19zM588 723l2 -301v-133.5t4 -102.5 q6 -76 43 -117.5t143 -43.5q76 -2 136.5 29.5t101.5 86t63.5 125t22.5 146.5q0 82 -26.5 150.5t-78 118.5t-123 77.5t-161.5 27.5h-127v-63zM1350 1475v12q33 0 80 -1t97 -4t97 -5t82 -2q41 0 88 1t94 3t89 4t73 4v-14q-63 -6 -106 -17.5t-70 -32t-40 -53.5t-15 -82 q-2 -35 -3 -84t-1 -114l-3 -367l3 -301v-133.5t4 -102.5q4 -43 16 -72.5t40 -49t75 -32t121 -18.5v-14q-33 2 -79 4t-97.5 3t-100.5 2t-88 1q-37 0 -84 -1t-95 -3t-94.5 -3t-78.5 -3v12q57 8 101 18.5t72.5 30t45 52t18.5 88.5q2 43 2 132v190.5v193.5v141v105.5v115 t-1 111.5t-3 96q-2 55 -18.5 88t-46 52.5t-73.5 29.5t-101 19z" />
<glyph unicode="&#x44c;" horiz-adv-x="1386" d="M125 1475v12q33 0 80 -1t97 -4t97 -5t82 -2q41 0 88 1t94.5 3t89.5 4t72 4v-14q-63 -6 -106 -17.5t-69.5 -32t-40 -53.5t-15.5 -82q-2 -35 -3 -84t-1 -114l-2 -265q47 2 98 5.5t100 7.5q98 6 196.5 -16.5t177.5 -74t127 -130t48 -185.5q0 -121 -49 -211t-133 -145.5 t-195.5 -74.5t-238.5 -3q-61 8 -126 10t-112 2q-37 0 -84 -1t-95 -3t-94 -3t-79 -3v12q57 8 101 18.5t73 30t45.5 52t18.5 88.5q2 43 2 132v190.5v193.5v141v105.5v115t-1 111.5t-3 96q-2 55 -18.5 88t-46.5 52.5t-74 29.5t-101 19zM588 723l2 -301v-133.5t4 -102.5 q6 -76 43 -117.5t143 -43.5q76 -2 136.5 29.5t101.5 86t63.5 125t22.5 146.5q0 82 -26.5 150.5t-78 118.5t-123 77.5t-161.5 27.5h-127v-63z" />
<glyph unicode="&#x44d;" d="M131 354l14 17q31 -84 83.5 -148.5t120 -107.5t143 -64.5t153.5 -21.5q109 0 213.5 48t187 140t137 224t64.5 300l-456 -4q-49 0 -81 -18.5t-50.5 -46t-25.5 -59t-9 -58.5l-17 2q2 14 5 37.5t5.5 49.5t3.5 53.5t1 50.5q0 14 -2.5 37.5t-5.5 50t-6 52t-7 46.5l4 4q4 4 8 4 q10 -29 20.5 -50.5t27 -36.5t42 -24.5t66.5 -9.5q109 -2 205 -2q82 -2 160.5 -2h113.5q-4 129 -50 245t-128 203t-192.5 138t-239.5 51q-305 0 -426 -342h-25l64 340q51 14 108.5 26.5t110.5 20.5t100 12.5t76 4.5q166 0 323.5 -43t281.5 -134.5t199 -231.5t75 -337 t-67.5 -347.5t-184.5 -251.5t-274.5 -152.5t-337.5 -51.5q-12 0 -62.5 2t-116 8.5t-135 18.5t-119.5 35z" />
<glyph unicode="&#x44e;" horiz-adv-x="2748" d="M135 1475v12q33 0 80 -1t97 -4t97.5 -5t82.5 -2q41 0 88 1t94 3t89 4t73 4v-14q-63 -6 -106.5 -17.5t-70 -32t-40 -53.5t-15.5 -82q-2 -35 -3 -84t-1 -114l-2 -269l379 -4h27q14 135 74.5 262t164 225.5t249.5 157t331 58.5q174 0 321.5 -53.5t255 -151.5t168 -237.5 t60.5 -313.5q0 -172 -61.5 -319.5t-172 -255t-262.5 -168t-330 -60.5q-184 0 -332.5 63.5t-253 170t-161 248t-56.5 294.5v11h-401v-95l2 -231v-133.5t4 -102.5q4 -43 16.5 -72.5t40 -49t74.5 -32t121 -18.5v-14q-33 2 -79 4t-97 3t-100.5 2t-87.5 1q-37 0 -84.5 -1 t-95.5 -3t-94 -3t-79 -3v12q57 8 101.5 18.5t73 30t45 52t18.5 88.5q2 43 2 132v190.5v193.5v141v105.5v115t-1 111.5t-3 96q-2 55 -18.5 88t-46 52.5t-73.5 29.5t-102 19zM1284 780q0 -158 42 -294t117 -237.5t181.5 -158.5t235.5 -57q88 0 175 40t154.5 123t109.5 213 t42 310h2q0 154 -41 287t-116 231t-179 155.5t-229 57.5q-106 0 -196.5 -46t-157 -132t-103.5 -211t-37 -281z" />
<glyph unicode="&#x44f;" horiz-adv-x="1617" d="M-1204 -299l4 14q221 -43 422 -43q475 0 837.5 241t606.5 742q-147 47 -241.5 146.5t-94.5 238.5q0 109 52 192t135 138t184.5 84t199.5 29l238 -6q51 0 134 4t214 4v-15q-86 -12 -133 -27.5t-69.5 -55t-27 -112.5t-4.5 -200v-219v-61.5t-1 -85.5t-1 -98.5v-96.5 q0 -170 2 -265t23.5 -142.5t71 -63.5t143.5 -31v-12q-33 2 -79 3t-94 3t-95 3t-84 1q-39 0 -88.5 -1t-100.5 -2t-97 -3t-79 -4v14q109 10 163 33t74.5 68t19.5 118.5t-1 188.5v209q-14 -2 -28.5 -2h-30.5h-43.5t-42.5 2q-102 -238 -250 -434.5t-332 -337t-403 -217 t-461 -76.5q-154 0 -310.5 28.5t-332.5 106.5zM555 1028q0 -80 43 -141.5t112.5 -105.5t153.5 -68.5t168 -28.5v84l-2 326v313q-2 14 -14 20q-86 0 -169 -24.5t-147.5 -73.5t-104.5 -124t-40 -177z" />
<glyph unicode="&#x451;" horiz-adv-x="1345" d="M125 1470v17q45 -4 110.5 -6t135 -4t135 -2h112.5l306 2h89t65.5 5t46 17t32.5 37l14 -10q-12 -47 -15 -96.5t-7 -71.5q-2 -23 -4 -50.5t-3 -56t-2 -54.5t-1 -42h-19q-10 115 -69.5 178.5t-182.5 67.5l-106 2h-180v-586h80t118 2q72 0 156 2q41 0 66.5 9.5t42 24.5 t26.5 36.5t21 50.5q4 0 8 -4l4 -4q-4 -20 -7 -46t-6.5 -52.5t-5.5 -50t-2 -37.5v-50.5t1 -54.5t1 -49.5v-34.5l-18 2q-2 27 -7 57.5t-20.5 56t-45 43t-79.5 17.5l-333 6v-178l2 -280q0 -55 10 -95.5t35.5 -66t70.5 -36.5t117 -9q31 0 47.5 1t30.5 2t28.5 2t41.5 5 q45 6 82.5 19.5t69.5 42t60.5 76.5t55.5 122l16 -8l-71 -287q-8 -29 -19.5 -40t-40.5 -11q-111 2 -225.5 6t-265.5 4q-98 0 -232.5 -4t-265.5 -6v16q57 8 99 18.5t70 30t42 52.5t16 88q2 43 2 132v188.5v191.5v141v105.5v113t-1 109.5t-3 96q-2 55 -16 88t-42 52.5t-71 29.5 t-100 18zM434 1708q0 43 32 73.5t75 30.5t74.5 -30.5t31.5 -73.5q0 -45 -30.5 -75.5t-75.5 -30.5t-76 30.5t-31 75.5zM786 1706q0 45 32 75.5t75 30.5q45 0 74.5 -30.5t29.5 -75.5q0 -43 -29.5 -75t-74.5 -32q-43 0 -75 32t-32 75z" />
<glyph unicode="&#x452;" horiz-adv-x="1857" d="M23 1208q0 6 12 60.5t28 120.5q18 74 43 167l17 9q16 -31 44 -47.5t59.5 -24.5t64.5 -10t57 -2l408 -11l469 11q72 2 114.5 7t69.5 15t39 23.5t22 32.5l17 -9l-66 -374l-16 4q8 123 -44 167t-169 46l-361 4q-2 -80 -2 -166v-352q100 53 215 84.5t226 31.5q94 0 178 -25.5 t147.5 -84t101.5 -151.5t38 -226q0 -106 -32 -214t-95.5 -208t-155.5 -190.5t-211 -159.5l-10 18q86 76 136 176.5t74.5 198.5t32 182t7.5 127q0 125 -25.5 210t-71 137.5t-106.5 75t-131 22.5q-72 0 -152 -19.5t-166 -52.5v-389v-133.5t5 -102.5q4 -43 16 -72.5t40 -49 t75 -32t120 -18.5v-14q-33 2 -78.5 4t-97 3t-100.5 2t-88 1q-37 0 -84 -1t-95 -3t-94.5 -3t-78.5 -3v12q57 8 101 18.5t73.5 30t45 52t17.5 88.5q2 41 3 128t1 185v524q0 59 -1 123t-1 117v119l-305 -4q-61 0 -99 -10.5t-64.5 -34t-49 -60.5t-53.5 -90z" />
<glyph unicode="&#x453;" horiz-adv-x="1216" d="M119 0v12q57 8 101 18.5t73 30t45 52t18 88.5q0 20 1 54t1 77v92v98v336v105.5v113t-1 109.5t-3 96q-2 55 -16 88t-42 52.5t-71 29.5t-100 18v17q45 -4 110.5 -6t135 -4t135 -2h112.5l295 2h94.5t66 4t44 17t27.5 38l16 -10q-12 -47 -15 -96.5t-7 -71.5q-2 -23 -4 -50.5 t-3.5 -56t-2.5 -54.5t-1 -42h-18q-10 115 -69.5 179.5t-182.5 66.5l-137 2h-139q0 -137 -1 -230.5t-1 -156v-100v-65.5v-52.5v-59v-87v-134.5v-96v-133.5t4 -102.5q4 -43 16 -72.5t40 -49t75 -32t121 -18.5v-14q-33 2 -79 4t-97.5 3t-100.5 2t-88 1q-37 0 -84 -1t-95 -3 t-94 -3t-79 -3zM510 1622l305 352l156 -47l-27 -90l-414 -238z" />
<glyph unicode="&#x454;" d="M109 754q0 182 79.5 323.5t205.5 238.5t283 148.5t310 51.5q27 0 75 -1.5t108.5 -9.5t127 -23.5t132.5 -41.5l63 -332l-25 -4q-18 74 -62 136.5t-107.5 108.5t-146.5 71.5t-179 25.5q-129 0 -236.5 -49t-184.5 -135t-121 -201t-46 -244h112.5t159.5 2q96 0 207 2 q41 0 66.5 9.5t42 24.5t27 36.5t20.5 50.5q4 0 8 -4l4 -4q-4 -20 -7 -46t-6 -52.5t-5 -50t-2 -37.5v-50.5t1 -54.5t1 -49.5v-34.5l-19 2q-2 27 -7 57.5t-20.5 56t-45 43t-78.5 17.5l-457 6q10 -168 72.5 -300t155 -224t205 -140t220.5 -48q76 0 148 21.5t133 64.5 t109.5 107.5t78.5 148.5l15 -17l-99 -323q-49 -23 -113.5 -35t-125 -18.5t-105.5 -8.5t-57 -2q-182 0 -347 49.5t-292 147.5t-201.5 245.5t-74.5 344.5z" />
<glyph unicode="&#x455;" horiz-adv-x="1224" d="M147 129q8 76 12.5 141.5t8.5 155.5h14q16 -193 121 -289t270 -96q61 0 112.5 22.5t88.5 59.5t56.5 85t19.5 101q0 49 -12.5 87t-39 73t-69.5 72t-102 80q-72 51 -146.5 101t-135 108.5t-98.5 132t-38 174.5q0 80 32.5 148.5t93 118.5t145.5 79.5t190 29.5q37 0 82 -4 t91 -13t89 -24.5t76 -35.5q-2 -72 3 -145.5t9 -145.5l-19 -6q-14 94 -50 156.5t-83 99.5t-99 52t-97 15q-53 0 -99.5 -20.5t-80 -54t-53 -80.5t-19.5 -99q0 -43 14.5 -77.5t43 -67.5t68.5 -65.5t93 -69.5q72 -53 148.5 -104.5t141 -112t105.5 -133t41 -166.5 q0 -111 -44 -194t-116.5 -137t-167 -81t-194.5 -27q-111 0 -215.5 42t-190.5 114z" />
<glyph unicode="&#x456;" horiz-adv-x="956" d="M125 1475v12q33 0 80 -1t97 -4t97 -5t82 -2q41 0 88 1t94.5 3t89.5 4t72 4v-14q-63 -6 -106 -17.5t-69.5 -32t-40 -53.5t-15.5 -82q-2 -35 -3 -84t-1 -114v-668v-133.5t4 -102.5q4 -43 16.5 -72.5t40 -49t74.5 -32t121 -18.5v-14q-33 2 -79 4t-97.5 3t-100.5 2t-88 1 q-37 0 -84 -1t-95 -3t-94 -3t-79 -3v12q57 8 101 18.5t73 30t45.5 52t18.5 88.5q2 43 2 132v190.5v193.5v141v105.5v115t-1 111.5t-3 96q-2 55 -18.5 88t-46.5 52.5t-74 29.5t-101 19z" />
<glyph unicode="&#x457;" horiz-adv-x="956" d="M125 1475v12q33 0 80 -1t97 -4t97 -5t82 -2q41 0 88 1t94.5 3t89.5 4t72 4v-14q-63 -6 -106 -17.5t-69.5 -32t-40 -53.5t-15.5 -82q-2 -35 -3 -84t-1 -114v-668v-133.5t4 -102.5q4 -43 16.5 -72.5t40 -49t74.5 -32t121 -18.5v-14q-33 2 -79 4t-97.5 3t-100.5 2t-88 1 q-37 0 -84 -1t-95 -3t-94 -3t-79 -3v12q57 8 101 18.5t73 30t45.5 52t18.5 88.5q2 43 2 132v190.5v193.5v141v105.5v115t-1 111.5t-3 96q-2 55 -18.5 88t-46.5 52.5t-74 29.5t-101 19zM205 1708q0 43 31.5 73.5t74.5 30.5t75 -30.5t32 -73.5q0 -45 -31 -75.5t-76 -30.5 t-75.5 30.5t-30.5 75.5zM557 1706q0 45 32 75.5t75 30.5q45 0 74.5 -30.5t29.5 -75.5q0 -43 -29.5 -75t-74.5 -32q-43 0 -75 32t-32 75z" />
<glyph unicode="&#x458;" horiz-adv-x="876" d="M25 -428q96 45 160.5 125t102.5 176t54 201.5t16 201.5v44t-1 87.5t-1 113t-1 124t-1 117.5v96v105.5v115v111.5t-2 96q-2 55 -18.5 88t-46 52.5t-73.5 29.5t-101 19v12q33 0 80 -1t97 -4t97 -5t82 -2q41 0 88 1t94 3t89 4t73 4v-14q-63 -6 -106 -17.5t-70 -32t-40 -53.5 t-15 -82q-2 -35 -3 -84t-1 -114q0 -158 -1.5 -261.5t-1.5 -166v-90v-33.5q0 -82 2.5 -159t2.5 -142q0 -131 -40 -243t-112 -199t-172 -148.5t-221 -93.5z" />
<glyph unicode="&#x459;" horiz-adv-x="2244" d="M66 100q0 18 6 43t21.5 46.5t44 37t71.5 15.5q51 0 82 -23.5t55.5 -46t47 -32t59.5 19.5q51 39 85.5 111.5t58.5 168t39 208t28 233.5q10 98 19 207.5t5 195.5q-2 55 -19.5 88t-49 51.5t-77.5 28.5t-104 18v17q39 -4 72 -7t61.5 -5t58 -3.5t64.5 -1.5l312 3l272 4 q41 0 91 3t100.5 6t95.5 6l75 5v-14q-63 -6 -106 -17.5t-70.5 -32t-41 -53t-15.5 -82.5q0 -14 -1 -56t-1 -104.5v-142.5v-170q47 2 98 5.5t101 7.5q98 6 196 -16.5t177 -74t127 -130t48 -185.5q0 -121 -49 -211t-133 -145.5t-195.5 -74.5t-238.5 -3q-61 8 -125.5 10 t-112.5 2q-37 0 -84 -1t-95 -3t-94 -3t-79 -3v12q57 8 101.5 18.5t73 30t45 52t18.5 88.5q2 43 2 132v190.5v193.5v141v201.5t-4 189.5q-4 68 -41 111t-135 43q-104 0 -155.5 -47t-59.5 -142l-35 -391q-18 -176 -53 -332.5t-94.5 -275.5t-147.5 -188.5t-215 -69.5 q-33 0 -66 8t-58.5 25.5t-40.5 45t-15 64.5zM1405 723l2 -301v-133.5t4 -102.5q6 -76 43 -117.5t143 -43.5q76 -2 136.5 29.5t101.5 86t63.5 125t22.5 146.5q0 82 -26.5 150.5t-78 118.5t-123 77.5t-161.5 27.5h-127v-63z" />
<glyph unicode="&#x45a;" horiz-adv-x="2357" d="M135 1475v12q33 0 80 -1t97 -4t97.5 -5t82.5 -2q41 0 88 1t94 3t89 4t73 4v-14q-63 -6 -106.5 -17.5t-70 -32t-40 -53.5t-15.5 -82q-2 -35 -3 -84t-1 -114l-2 -269q186 -10 370.5 -11t370.5 9v39v105.5v115t-1 111.5t-3 96q-2 55 -18.5 88t-46 52.5t-73.5 29.5t-101 19 v12q33 0 80 -1t97 -4t97 -5t82 -2q41 0 88 1t94 3t89 4t73 4v-14q-63 -6 -106 -17.5t-70 -32t-40 -53.5t-15 -82q-2 -35 -3 -84t-1 -114l-2 -265q47 2 98 5.5t100 7.5q98 6 196.5 -16.5t177.5 -74t127 -130t48 -185.5q0 -121 -49 -211t-133 -145.5t-195.5 -74.5t-238.5 -3 q-61 8 -126 10t-112 2q-37 0 -84 -1t-95 -3t-94 -3t-79 -3v12q57 8 101 18.5t73 30t45 52t18 88.5q0 35 1 101.5t1 144v157.5v146q-186 10 -369.5 4t-371.5 -6v-95l2 -231v-133.5t4 -102.5q4 -43 16.5 -72.5t40 -49t74.5 -32t121 -18.5v-14q-33 2 -79 4t-97 3t-100.5 2 t-87.5 1q-37 0 -84.5 -1t-95.5 -3t-94 -3t-79 -3v12q57 8 101.5 18.5t73 30t45 52t18.5 88.5q2 43 2 132v190.5v193.5v141v105.5v115t-1 111.5t-3 96q-2 55 -18.5 88t-46 52.5t-73.5 29.5t-102 19zM1559 723l2 -301v-133.5t4 -102.5q6 -76 43 -117.5t143 -43.5 q76 -2 136.5 29.5t101.5 86t63.5 125t22.5 146.5q0 82 -27 149.5t-78 114.5t-122.5 73.5t-161.5 26.5l-127 -10v-43z" />
<glyph unicode="&#x45b;" horiz-adv-x="1929" d="M25 1208q0 6 12 60.5t29 120.5q18 74 43 167l12 13q16 -31 45 -47.5t60.5 -25.5t65.5 -12t58 -3l400 -11l477 11q72 2 114.5 7t69.5 15t39 23.5t23 32.5l16 -9l-66 -374l-16 4q8 123 -44 167t-169 46l-363 4q-2 -84 -2 -174v-361q111 66 233 101.5t238 35.5q80 0 150 -19 t122 -62.5t83 -109t31 -157.5v-446q0 -47 9 -81t34.5 -55.5t70.5 -35t119 -19.5v-14q-66 4 -145.5 7t-157.5 3q-37 0 -86 -1t-101.5 -3t-100.5 -3t-81 -3v12q57 8 99.5 19.5t68 31t37.5 53.5t12 89v424q0 68 -23.5 115t-63.5 76.5t-93 41.5t-110 12q-94 0 -188.5 -28.5 t-156.5 -71.5v-352v-133.5t5 -102.5q4 -43 10 -72.5t26.5 -49t60.5 -32t113 -18.5v-14q-66 4 -155.5 7t-167.5 3q-37 0 -84 -1t-95 -3t-94.5 -3t-78.5 -3v12q57 8 101 18.5t73.5 30t45 52t17.5 88.5q2 41 3 128t1 185v524q0 59 -1 123t-1 117v119l-303 -4q-61 0 -99 -10.5 t-64.5 -34t-49 -60.5t-53.5 -90z" />
<glyph unicode="&#x45c;" horiz-adv-x="1751" d="M117 1475v12q33 0 80 -1t97 -4t97 -5t82 -2q41 0 88 1t94 3t89 4t73 4v-14q-63 -6 -106 -17.5t-70 -32t-40 -53.5t-15 -82q-2 -35 -3 -84t-1 -114l-2 -367l2 -301v-133.5t4 -102.5q4 -43 16 -72.5t40 -49t75 -32t121 -18.5v-14q-33 2 -79 4t-97.5 3t-100.5 2t-88 1 q-37 0 -84 -1t-95 -3t-94 -3t-79 -3v12q57 8 101 18.5t74 30t45 52t17 88.5q2 43 2 132v190.5v193.5v141v105.5v115t-1 111.5t-3 96q-2 55 -18 88t-46 52.5t-74 29.5t-101 19zM625 797q16 18 52 55t81 83t95 96l95 95l81 81t52 53q23 23 51.5 55.5t39 65t-10 57t-96.5 30.5 v19l332 -10l233 10v-19q-10 0 -28.5 -1t-39 -4t-41 -7t-34.5 -10q-47 -18 -113.5 -61.5t-132.5 -106.5q-23 -23 -80 -76t-120.5 -113.5t-122 -117t-82.5 -82.5q70 -104 156.5 -233.5t188 -261.5t216 -257t238.5 -222t257.5 -156.5t272.5 -59.5q96 0 179 20.5t171 61.5 l12 -14q-47 -43 -116.5 -76t-146.5 -54.5t-152.5 -32t-137.5 -10.5q-150 0 -285 57.5t-259.5 153t-236.5 219t-212 258t-189.5 267.5t-166.5 248zM811 1620l305 352l156 -47l-27 -90l-414 -238z" />
<glyph unicode="&#x45e;" horiz-adv-x="1570" d="M27 1468v19q35 -2 81 -5t95 -5t95 -3t81 -1h47t80 2t97 4t99 8v-17q-23 -4 -47 -8t-46.5 -12t-37 -21.5t-14.5 -35.5q0 -12 2 -19q16 -78 55 -177t85 -203.5t95.5 -207t86.5 -186.5l241 596q29 72 43.5 117t14.5 61q0 25 -12.5 41.5t-32 28.5t-43 18t-48.5 11v12l238 -12 q84 0 167 5t142 9v-14q-117 -12 -190.5 -64.5t-116.5 -151.5l-422 -976q-51 -117 -102 -191t-104.5 -116t-107.5 -58t-112 -16q-61 0 -106 19.5t-75 50t-43 69.5t-11 78q0 14 6 37.5t20.5 47t41 41t67.5 17.5q35 0 57.5 -10t35.5 -24.5t18.5 -32t5.5 -29.5q2 -14 -7.5 -36 t-15.5 -36q-14 -33 3.5 -65.5t64.5 -32.5q43 0 85 36t77.5 86t63.5 104t42 91q-23 49 -57.5 128t-78.5 174.5t-92.5 201t-96.5 205.5t-94 190t-83 154q-35 57 -96.5 75.5t-140.5 28.5zM592 1927h31q16 -55 44.5 -92t63.5 -59.5t71.5 -31.5t69.5 -9t70 9t73 31.5t65.5 59.5 t45.5 92h31q0 -39 -20.5 -95t-57.5 -108.5t-89 -88.5t-116 -36q-68 0 -120 37t-87.5 89.5t-55 107.5t-19.5 94z" />
<glyph unicode="&#x45f;" horiz-adv-x="1959" d="M127 -2v12q57 8 101 18.5t74 30t46.5 52t18.5 88.5q2 43 3 98t1 114.5v118v107.5v141v193.5v190.5t-2 132q-2 55 -18.5 88t-45.5 52.5t-73 30t-101 18.5v12q33 -2 79 -4t94 -3t95 -2t84 -1q39 0 88.5 1t100.5 2t97 3t79 4v-14q-74 -6 -121 -18.5t-74.5 -33t-40 -49 t-16.5 -71.5q-4 -35 -4 -102.5v-133.5l-2 -231v-94l2 -312q0 -66 1 -95.5t3 -61.5q2 -49 15.5 -83t40 -56.5t69.5 -34t106 -11.5q92 -2 168 -4t164 2q117 2 176.5 41t63.5 148q4 86 4 199.5v211.5v58v147.5v159.5v142.5t-2 94.5q-2 55 -18.5 88t-45 52.5t-72.5 30t-102 18.5 v12q33 -2 79 -4t94 -3t95.5 -2t84.5 -1q39 0 88 1t100 2t97 3t79 4v-14q-74 -6 -121 -18.5t-74.5 -33t-40 -49t-16.5 -71.5q-4 -35 -4 -102.5v-133.5l-2 -301l2 -377q0 -66 1 -115t3 -83q2 -49 15.5 -82t40 -53.5t69.5 -32t107 -17.5v-14q-31 2 -73 4t-89 4t-94.5 3t-87.5 1 h-132.5t-138.5 -2q-84 -2 -128 -36.5t-64.5 -93t-26.5 -133.5t-12 -157h-23q-2 92 -11 169t-37 132.5t-79 86t-137 32.5q-70 2 -127 2h-117q-70 0 -161 -4t-195 -8z" />
<glyph unicode="&#x490;" horiz-adv-x="1216" d="M119 0v12q57 8 101 18.5t73 30t45 52t18 88.5q0 20 1 54t1 77v92v98v336v105.5v113t-1 109.5t-3 96q-2 55 -16 88t-42 52.5t-71 29.5t-100 18v17q45 -4 110.5 -6t135 -4t135 -2h112.5l281 2q68 0 113 22.5t74.5 59t50 86t41.5 106.5h20q-23 -100 -37 -172t-18 -115 q-4 -47 2 -71l-8 -7q-53 16 -139.5 19.5t-184.5 5.5h-49t-64.5 -1t-65.5 -3t-52 -4q0 -137 -1 -230.5t-1 -156v-100v-65.5v-52.5v-59v-87v-134.5v-96v-133.5t4 -102.5q4 -43 16 -72.5t40 -49t75 -32t121 -18.5v-14q-33 2 -79 4t-97.5 3t-100.5 2t-88 1q-37 0 -84 -1t-95 -3 t-94 -3t-79 -3z" />
<glyph unicode="&#x491;" horiz-adv-x="1216" d="M119 0v12q57 8 101 18.5t73 30t45 52t18 88.5q0 20 1 54t1 77v92v98v336v105.5v113t-1 109.5t-3 96q-2 55 -16 88t-42 52.5t-71 29.5t-100 18v17q45 -4 110.5 -6t135 -4t135 -2h112.5l281 2q68 0 113 22.5t74.5 59t50 86t41.5 106.5h20q-23 -100 -37 -172t-18 -115 q-4 -47 2 -71l-8 -7q-53 16 -139.5 19.5t-184.5 5.5h-49t-64.5 -1t-65.5 -3t-52 -4q0 -137 -1 -230.5t-1 -156v-100v-65.5v-52.5v-59v-87v-134.5v-96v-133.5t4 -102.5q4 -43 16 -72.5t40 -49t75 -32t121 -18.5v-14q-33 2 -79 4t-97.5 3t-100.5 2t-88 1q-37 0 -84 -1t-95 -3 t-94 -3t-79 -3z" />
<glyph unicode="&#x2000;" horiz-adv-x="987" />
<glyph unicode="&#x2001;" horiz-adv-x="1974" />
<glyph unicode="&#x2002;" horiz-adv-x="987" />
<glyph unicode="&#x2003;" horiz-adv-x="1974" />
<glyph unicode="&#x2004;" horiz-adv-x="658" />
<glyph unicode="&#x2005;" horiz-adv-x="493" />
<glyph unicode="&#x2006;" horiz-adv-x="329" />
<glyph unicode="&#x2007;" horiz-adv-x="329" />
<glyph unicode="&#x2008;" horiz-adv-x="246" />
<glyph unicode="&#x2009;" horiz-adv-x="394" />
<glyph unicode="&#x200a;" horiz-adv-x="109" />
<glyph unicode="&#x2010;" horiz-adv-x="772" d="M86 565v152l598 2v-154h-598z" />
<glyph unicode="&#x2011;" horiz-adv-x="772" d="M86 565v152l598 2v-154h-598z" />
<glyph unicode="&#x2012;" horiz-adv-x="772" d="M86 565v152l598 2v-154h-598z" />
<glyph unicode="&#x2013;" horiz-adv-x="1024" d="M0 631l20 123h1004l-20 -123h-1004z" />
<glyph unicode="&#x2014;" horiz-adv-x="2048" d="M0 631l20 123h2018l-21 -123h-2017z" />
<glyph unicode="&#x2018;" horiz-adv-x="622" d="M166 1196q0 51 27.5 110.5t69.5 114t89 99.5t84 69l29 -33q-76 -68 -107 -143q-4 -10 -6 -29.5t0 -43t10.5 -47t24.5 -42.5q23 -25 25 -69.5t-29 -85.5q-16 -20 -49 -34.5t-62 -8.5q-59 12 -82.5 52t-23.5 91z" />
<glyph unicode="&#x2019;" horiz-adv-x="694" d="M166 1085q76 68 106 144q4 10 6.5 29.5t0 43t-10.5 48t-24 43.5q-23 23 -25 67.5t29 85.5q16 23 49 36t61 7q59 -12 83 -52t24 -89q0 -51 -27.5 -110.5t-69.5 -115t-89.5 -100.5t-83.5 -69z" />
<glyph unicode="&#x201a;" horiz-adv-x="559" d="M125 -193q35 29 53.5 48.5t32.5 54.5q12 33 13 54.5t-5 38.5t-17.5 32.5t-23.5 36.5q-16 25 -20 65.5t24 77.5q14 20 48 35.5t63 9.5q53 -10 77.5 -52t24.5 -87q0 -49 -25.5 -99.5t-63.5 -96.5t-82 -85t-79 -61z" />
<glyph unicode="&#x201c;" horiz-adv-x="940" d="M166 1196q0 51 27.5 110.5t69.5 114t89 99.5t84 69l29 -33q-76 -68 -107 -143q-4 -10 -6 -29.5t0 -43t10.5 -47t24.5 -42.5q23 -25 25 -69.5t-29 -85.5q-16 -20 -49 -34.5t-62 -8.5q-59 12 -82.5 52t-23.5 91zM510 1196q0 51 27.5 110.5t69.5 114t89 99.5t84 69l29 -33 q-76 -68 -107 -143q-4 -10 -6 -29.5t0 -43t10.5 -47t24.5 -42.5q23 -25 25 -69.5t-29 -85.5q-16 -20 -49 -34.5t-62 -8.5q-59 12 -82.5 52t-23.5 91z" />
<glyph unicode="&#x201d;" horiz-adv-x="940" d="M166 1085q76 68 106 144q4 10 6.5 29.5t0 43t-10.5 48t-24 43.5q-23 23 -25 67.5t29 85.5q16 23 49 36t61 7q59 -12 83 -52t24 -89q0 -51 -27.5 -110.5t-69.5 -115t-89.5 -100.5t-83.5 -69zM510 1085q76 68 106 144q4 10 6.5 29.5t0.5 43t-10.5 48t-24.5 43.5 q-23 23 -25 67.5t29 85.5q16 23 49 36t61 7q59 -12 83 -52t24 -89q0 -51 -27.5 -110.5t-69.5 -115t-89.5 -100.5t-83.5 -69z" />
<glyph unicode="&#x201e;" horiz-adv-x="1103" d="M121 -195q35 29 53.5 48.5t32.5 54.5q12 33 13 54.5t-5 38.5t-17.5 32.5t-23.5 36.5q-16 25 -20 65.5t24 77.5q14 20 48 35.5t63 9.5q53 -10 77.5 -52t24.5 -87q0 -49 -25.5 -99.5t-63.5 -96.5t-82 -85t-79 -61zM623 -195q35 29 53 48.5t33 54.5q12 33 13 54.5t-5 38.5 t-17.5 32.5t-23.5 36.5q-16 25 -20.5 65.5t24.5 77.5q14 20 48 35.5t63 9.5q53 -10 77.5 -52t24.5 -87q0 -49 -25.5 -99.5t-63.5 -96.5t-82 -85t-79 -61z" />
<glyph unicode="&#x2020;" horiz-adv-x="956" d="M39 1124l4 4q4 4 8 5q10 -29 18.5 -50.5t24 -37t41 -24.5t72.5 -9q41 -2 78 -2q33 -2 66.5 -2h56.5q2 76 1 148.5t-3 129.5q-2 55 -25 88t-60.5 52.5t-88 29.5t-107.5 19v12q33 0 80 -1t97 -4t97 -5t82 -2q41 0 88 1t94.5 3t89.5 4t72 4v-14q-127 -10 -188.5 -49.5 t-67.5 -135.5q-2 -35 -3 -84t-1 -114v-82l195 4q47 0 72.5 9t41 24.5t23.5 37t18 50.5q4 0 9 -5l4 -4q-4 -20 -7 -45.5t-6.5 -52.5t-5.5 -50.5t-2 -37.5v-50.5t1 -54t1 -49v-34.5l-18 2q-2 27 -7 57.5t-20.5 56t-45.5 43t-79 17.5l-176 2v-205l2 -301v-133.5t4 -102.5 q8 -84 68.5 -120.5t208.5 -51.5v-14q-33 2 -79 4t-97.5 3t-100.5 2t-88 1q-37 0 -84 -1t-95 -3t-94 -3t-79 -3v12q57 8 107.5 18.5t87 30t59.5 52t25 88.5q2 43 2 132v190.5v193.5v141v74l-183 -6q-49 0 -78.5 -17.5t-45 -43t-20.5 -56.5t-7 -57l-19 -2v34.5t1 49t1 54v50.5 q0 14 -2 37.5t-5 50.5t-6 52.5t-7 45.5z" />
<glyph unicode="&#x2021;" horiz-adv-x="956" d="M39 645l4 4q4 4 8 4q10 -29 18.5 -50t24 -36.5t41 -25t72.5 -9.5q33 0 67 -2q29 -2 65 -3t71 -3v463l-183 -6q-49 0 -78.5 -17.5t-45 -43t-20.5 -56t-7 -57.5l-19 -2v34.5t1 49t1 54.5v50q0 14 -2 38t-5 50.5t-6 52t-7 46.5l4 4q4 4 8 4q10 -29 18.5 -50.5t24 -37 t41 -24.5t72.5 -9q41 -2 78 -2q33 -2 66.5 -2h56.5h2q0 27 -1 57.5t-1 61t-1 57.5t-1 47q-2 55 -25 88t-60.5 52.5t-88 29.5t-107.5 19v12q33 0 80 -1t97 -4t97 -5t82 -2q41 0 88 1t94.5 3t89.5 4t72 4v-14q-127 -10 -188.5 -49.5t-67.5 -135.5q-2 -35 -3 -97.5t-1 -127.5 l195 4q47 0 72.5 9t41 24.5t23.5 37t18 50.5q4 0 9 -4l4 -4q-4 -20 -7 -46t-6.5 -52.5t-5.5 -50t-2 -38.5v-50.5t1 -54t1 -49v-34.5l-18 2q-2 27 -7 57.5t-20.5 56t-45.5 43t-79 17.5l-174 2l-2 -260v-197q41 0 77 1t62 1q31 0 58 2q47 0 72.5 9.5t41 26t23.5 38t18 49.5 q4 0 9 -4l4 -4q-4 -20 -7 -46t-6.5 -52.5t-5.5 -50t-2 -37.5v-50.5t1 -54t1 -49v-35.5l-18 2q-2 27 -7 57.5t-20.5 56.5t-45.5 43t-79 17h-176q2 -125 2 -181t4 -79q8 -84 68.5 -120.5t208.5 -51.5v-14q-33 2 -79 4t-97.5 3t-100.5 2t-88 1q-37 0 -84 -1t-95 -3t-94 -3 t-79 -3v12q57 8 107.5 18.5t87 30t59.5 52t25 88.5q0 16 1 87.5t1 157.5h-183q-49 0 -78.5 -17t-45 -43t-20.5 -56.5t-7 -57.5l-19 -2v35t1 49.5t1 54v50.5q0 14 -2 37.5t-5 50t-6 52.5t-7 46z" />
<glyph unicode="&#x2022;" horiz-adv-x="966" d="M190 719q0 61 23 113.5t62.5 92.5t93 62.5t114.5 22.5t113.5 -22.5t91.5 -62.5t61.5 -93.5t22.5 -112.5t-22.5 -112.5t-62.5 -93.5t-92 -62.5t-114 -22.5q-59 0 -112.5 22.5t-93 62.5t-62.5 92t-23 114z" />
<glyph unicode="&#x2026;" horiz-adv-x="1742" d="M129 109q0 18 7 40.5t22.5 41t39 30.5t56.5 12q53 0 89 -32.5t36 -85.5t-34 -92t-93 -39q-66 0 -94.5 41t-28.5 84zM774 109q0 18 7 40.5t22.5 41t39 30.5t56.5 12q53 0 89 -32.5t36 -85.5t-34 -92t-93 -39q-66 0 -94.5 41t-28.5 84zM1372 109q0 18 7 40.5t22.5 41 t39 30.5t56.5 12q53 0 89 -32.5t36 -85.5t-34 -92t-93 -39q-66 0 -94.5 41t-28.5 84z" />
<glyph unicode="&#x202f;" horiz-adv-x="394" />
<glyph unicode="&#x2030;" horiz-adv-x="2340" d="M92 1096q0 74 23.5 137t67.5 111.5t105.5 76t137.5 27.5q78 0 138.5 -28.5t102.5 -75t63.5 -105.5t21.5 -121q0 -76 -25 -140.5t-70 -111.5t-106 -73.5t-137 -26.5t-135.5 27.5t-101.5 73.5t-63.5 105.5t-21.5 123.5zM242 1116q0 -61 13 -114.5t37.5 -93.5t59.5 -62.5 t78 -22.5q82 0 127 74t45 203q0 57 -12 109.5t-37 92t-60.5 64.5t-82.5 25q-80 0 -124 -76t-44 -199zM264 8l90 129q246 362 441 654q82 123 162.5 242.5t143 213.5t102.5 155.5t44 67.5q12 16 19 11l53 -37l9 -9t1 -10l-909 -1347q-20 -33 -37 -55q-14 -23 -25.5 -39.5 t-13.5 -20.5q-10 -16 -18 -10l-54 37q-2 2 -7 8t-1 10zM856 309q0 74 23.5 137.5t67.5 111.5t105.5 76t139.5 28t138.5 -28t101.5 -74t62.5 -105.5t21.5 -122.5q0 -76 -25 -140.5t-69 -111.5t-105 -73.5t-137 -26.5t-135.5 27.5t-101.5 73.5t-64.5 105.5t-22.5 122.5z M1006 332q0 -61 13 -115.5t37.5 -94.5t60.5 -62.5t79 -22.5q80 0 125 73.5t45 202.5q0 57 -12.5 109.5t-37 92.5t-60 64.5t-82.5 24.5q-80 0 -124 -74.5t-44 -197.5zM1597 309q0 74 24 137.5t68 111.5t105 76t139 28t138.5 -28t101.5 -74t62.5 -105.5t21.5 -122.5 q0 -76 -24.5 -140.5t-68.5 -111.5t-106.5 -73.5t-136.5 -26.5q-76 0 -136.5 27.5t-101.5 73.5t-63.5 105.5t-22.5 122.5zM1747 332q0 -61 13.5 -115.5t38 -94.5t60 -62.5t78.5 -22.5q80 0 125 73.5t45 202.5q0 57 -12 109.5t-36.5 92.5t-60.5 64.5t-83 24.5 q-80 0 -124 -74.5t-44 -197.5z" />
<glyph unicode="&#x2039;" horiz-adv-x="620" d="M98 385l394 375l55 -47l-219 -330l198 -317l-51 -54z" />
<glyph unicode="&#x203a;" horiz-adv-x="620" d="M96 713l56 47l393 -375l-377 -373l-51 54l198 317z" />
<glyph unicode="&#x205f;" horiz-adv-x="493" />
<glyph unicode="&#x20ac;" d="M27 563l12 70h172q-6 57 -6 121q0 20 1 38.5t3 36.5h-182l12 70h178q27 147 105.5 263t189.5 194t241 119t259 41q27 0 75 -1.5t108 -9.5t127 -23.5t132 -41.5l64 -332l-25 -4q-18 74 -62.5 136.5t-107.5 108.5t-146 71.5t-180 25.5q-100 0 -189 -42t-156.5 -116 t-111.5 -173t-55 -216h746l-12 -70h-738v-30q0 -45 2 -86t6 -80h742l-12 -70h-719q20 -127 73.5 -226t125 -168t155.5 -104.5t166 -35.5q76 0 147.5 21.5t133 64.5t109.5 107.5t79 148.5l14 -17l-98 -323q-49 -23 -113.5 -35t-125 -18.5t-105.5 -8.5t-57 -2 q-139 0 -270.5 37t-239 111.5t-180 186.5t-95.5 261h-192z" />
<glyph unicode="&#x2122;" horiz-adv-x="2166" d="M25 1313q0 4 6 35.5t16 66.5q8 41 23 92l24 11q27 -29 68 -31t76 -2h497q72 0 98.5 5t40.5 21l29 -6l-33 -213l-32 4q4 72 -33 92.5t-90 20.5l-174 2l-2 -342v-178v-74t2 -53q4 -47 29.5 -68.5t115.5 -29.5v-31h-438v31q37 4 61.5 10t41 17.5t23.5 29.5t9 49q2 25 2 59.5 v71.5v74v65v175v119.5t-2 74.5l-184 -2q-47 0 -74 -13.5t-49 -49.5q-6 -10 -11.5 -20.5t-11.5 -20.5zM872 637v31q66 8 94.5 39.5t43.5 115.5l84 506q-4 6 -11.5 20.5t-13.5 28.5q-23 45 -55.5 59.5t-81.5 22.5v29h254q76 -164 153.5 -306.5t155.5 -303.5q41 80 82 154.5 t82 148t81 149.5t81 158h223v-29q-78 -8 -104.5 -29.5t-28.5 -76.5q-2 -8 2 -25q6 -57 14 -117.5t15.5 -116t14.5 -101.5t11 -74q4 -37 8 -68q4 -27 6.5 -51.5t4.5 -34.5q4 -25 11 -41t22.5 -27.5t42 -18.5t71.5 -11v-31h-438v31q37 4 61.5 10t39.5 17.5t22.5 29.5t9.5 49 q0 16 -4 62.5t-10 101.5t-12.5 90t-10.5 70q-4 31 -9 71.5t-5 59.5q-18 -37 -54 -104.5t-81.5 -149.5t-92.5 -170t-86 -168h-24q-70 137 -127 254q-25 49 -50.5 100t-47 95t-38 78t-22.5 50q0 -6 -4 -33.5t-9 -69.5t-12.5 -93t-13.5 -103q-4 -45 -9 -87t-5 -62q0 -23 1 -38 t12 -27.5t36 -20.5t70 -12v-31h-349z" />
<glyph unicode="&#x25fc;" horiz-adv-x="1484" d="M0 0v1485h1485v-1485h-1485z" />
</font>
</defs>
</svg>
